0
SECTION
2
HEADER
9
$INSUNITS
70
1
9
$ACADVER
1
AC1014
9
$HANDSEED
5
FFFF
0
ENDSEC
0
SECTION
2
TABLES
0
TABLE
2
VPORT
5
8
100
AcDbSymbolTable
0
ENDTAB
0
TABLE
2
LTYPE
5
5
100
AcDbSymbolTable
0
LTYPE
5
14
100
AcDbSymbolTableRecord
100
AcDbLinetypeTableRecord
2
BYBLOCK
70
0
0
LTYPE
5
15
100
AcDbSymbolTableRecord
100
AcDbLinetypeTableRecord
2
BYLAYER
70
0
0
ENDTAB
0
TABLE
2
LAYER
5
2
100
AcDbSymbolTable
70
2
0
LAYER
5
50
100
AcDbSymbolTableRecord
100
AcDbLayerTableRecord
2
0
70
0
6
CONTINUOUS
0
ENDTAB
0
TABLE
2
STYLE
5
3
100
AcDbSymbolTable
70
1
0
STYLE
5
11
100
AcDbSymbolTableRecord
100
AcDbTextStyleTableRecord
2
STANDARD
70
0
0
ENDTAB
0
TABLE
2
VIEW
5
6
100
AcDbSymbolTable
70
0
0
ENDTAB
0
TABLE
2
UCS
5
7
100
AcDbSymbolTable
70
0
0
ENDTAB
0
TABLE
2
APPID
5
9
100
AcDbSymbolTable
70
2
0
APPID
5
12
100
AcDbSymbolTableRecord
100
AcDbRegAppTableRecord
2
ACAD
70
0
0
ENDTAB
0
TABLE
2
DIMSTYLE
5
A
100
AcDbSymbolTable
70
1
0
ENDTAB
0
TABLE
2
BLOCK_RECORD
5
1
100
AcDbSymbolTable
70
1
0
BLOCK_RECORD
5
1F
100
AcDbSymbolTableRecord
100
AcDbBlockTableRecord
2
*MODEL_SPACE
0
BLOCK_RECORD
5
1B
100
AcDbSymbolTableRecord
100
AcDbBlockTableRecord
2
*PAPER_SPACE
0
ENDTAB
0
ENDSEC
0
SECTION
2
BLOCKS
0
BLOCK
5
20
100
AcDbEntity
100
AcDbBlockBegin
2
*MODEL_SPACE
0
ENDBLK
5
21
100
AcDbEntity
100
AcDbBlockEnd
0
BLOCK
5
1C
100
AcDbEntity
100
AcDbBlockBegin
2
*PAPER_SPACE
0
ENDBLK
5
1D
100
AcDbEntity
100
AcDbBlockEnd
0
ENDSEC
0
SECTION
2
ENTITIES
0
LINE
5
100
100
AcDbEntity
8
0
100
AcDbLine
10
-5.9161821855322261
20
5.3084181150671021
30
0
11
-6.0533431738976802
21
5.3084181150671039
31
0
0
LWPOLYLINE
5
101
100
AcDbEntity
8
0
100
AcDbPolyline
90
44
70
1
43
0.0
10
2.0760354578082425
20
4.0633518627821568
42
-0.097081066473075406
10
1.8978106616689852
20
4.0284181149575957
10
1.2655737960760742
20
4.0284181149575975
42
0.21097472963040445
10
0.91665453854745571
20
3.8743334632124848
42
-0.48078743762623061
10
-1.1291883766312063
20
4.0067144942870154
42
0.24496493487435847
10
-1.5161821855322288
20
4.2084181151095592
10
-2.9905041622334654
20
4.2084181151095592
42
0.24496493487435958
10
-3.3774979711344892
20
4.0067144942870145
42
-0.52120632470927064
10
-5.5291883766312022
20
4.0067144942870145
42
0.24496493487435864
10
-5.9161821855322261
20
4.2084181151095592
10
-6.0533431738976802
20
4.2084181151095592
42
-0.99999999999999989
10
-6.0533431738976802
20
5.308418115067103
10
-5.9161821855322261
20
5.308418115067103
42
0.24496493487435833
10
-5.5291883766312022
20
5.5101217358896468
42
-0.52120632470927064
10
-3.3774979711344897
20
5.5101217358896486
42
0.24496493487435911
10
-2.9905041622334663
20
5.308418115067103
10
-1.5161821855322299
20
5.308418115067103
42
0.244964934874359
10
-1.1291883766312067
20
5.5101217358896486
42
-0.53797379274927315
10
1.0603821403664715
20
5.4527646843192272
42
0.25889098338613425
10
1.4612911807950717
20
5.2302685087666614
10
1.595368572995072
20
5.2302685087666596
42
0.054121076604477354
10
1.696750265222738
20
5.2412745190342305
10
2.2172781941556345
20
5.4534843672604634
42
-0.097081066477759992
10
2.3955029903030067
20
5.488418115088332
10
3.0277398558959168
20
5.4884181150883311
42
0.21097472965629022
10
3.376659113456058
20
5.642502766868029
42
-0.48078743765673981
10
5.4225020287223522
20
5.5101217358896459
42
0.24496493487435797
10
5.8094958376233752
20
5.3084181150671021
10
7.2838178143246131
20
5.308418115067103
42
0.24496493487436255
10
7.670811623225636
20
5.5101217358896468
42
-0.52120632470927131
10
9.8225020287223508
20
5.5101217358896477
42
0.24496493487435769
10
10.209495837623374
20
5.3084181150671039
10
10.346656825988827
20
5.308418115067103
42
-0.99999999999999989
10
10.346656825988827
20
4.2084181151095592
10
10.209495837623374
20
4.2084181151095592
42
0.24496493487436277
10
9.822502028722349
20
4.0067144942870137
42
-0.52120632470927064
10
7.670811623225636
20
4.0067144942870163
42
0.24496493487435769
10
7.2838178143246131
20
4.2084181151095601
10
5.8094958376233761
20
4.2084181151095592
42
0.24496493487436025
10
5.4225020287223531
20
4.0067144942870163
42
-0.53797379272744605
10
3.232931511771691
20
4.0640715457820233
42
0.25889098336807009
10
2.8320224713600144
20
4.2865677213074438
10
2.6979450791600148
20
4.2865677213074429
42
0.054121076706229954
10
2.5965633867450775
20
4.2755617109987263
0
CIRCLE
5
102
100
AcDbEntity
8
0
100
AcDbCircle
10
-6.0533431738976802
20
4.7584181150883316
30
0
40
0.17940944881889784
0
CIRCLE
5
103
100
AcDbEntity
8
0
100
AcDbCircle
10
-2.2533431738976804
20
4.758418115109559
30
0
40
0.17940944881889784
0
CIRCLE
5
104
100
AcDbEntity
8
0
100
AcDbCircle
10
2.6466568261023156
20
4.938418115109557
30
0
40
0.17940944881889728
0
CIRCLE
5
105
100
AcDbEntity
8
0
100
AcDbCircle
10
6.5466568261023159
20
4.758418115109559
30
0
40
0.17940944881889676
0
CIRCLE
5
106
100
AcDbEntity
8
0
100
AcDbCircle
10
10.346656825988827
20
4.7584181150883316
30
0
40
0.17940944893237112
0
CIRCLE
5
107
100
AcDbEntity
8
0
100
AcDbCircle
10
8.746656825973993
20
4.7584181150883316
30
0
40
0.84000000012832232
0
CIRCLE
5
108
100
AcDbEntity
8
0
100
AcDbCircle
10
4.3466568259739962
20
4.7584181150883316
30
0
40
0.84000000012831899
0
CIRCLE
5
109
100
AcDbEntity
8
0
100
AcDbCircle
10
1.6466568261023158
20
4.5784181151095575
30
0
40
0.17940944881889728
0
CIRCLE
5
110
100
AcDbEntity
8
0
100
AcDbCircle
10
-0.053343173882849378
20
4.7584181150883316
30
0
40
0.83999999998516783
0
CIRCLE
5
111
100
AcDbEntity
8
0
100
AcDbCircle
10
-4.4533431738828453
20
4.7584181150883316
30
0
40
0.83999999998516472
0
ENDSEC
0
SECTION
2
OBJECTS
0
DICTIONARY
5
C
100
AcDbDictionary
3
ACAD_GROUP
350
D
3
ACAD_MLINESTYLE
350
17
0
DICTIONARY
5
D
100
AcDbDictionary
0
DICTIONARY
5
1A
330
C
100
AcDbDictionary
0
DICTIONARY
5
17
100
AcDbDictionary
0
ENDSEC
0
EOF
