  0
SECTION
  2
HEADER
  9
$ACADVER
  1
AC1009
  9
$EXTMIN
 10
0.23035236
 20
0.05000000
 30
0.0
  9
$EXTMAX
 10
11.76964764
 20
11.95000000
 30
0.0
  0
ENDSEC
  0
SECTION
  2
TABLES
  0
TABLE
  2
LAYER
 70
1
 0
LAYER
 2
Default_Layer
 70
0
 62
1
 6
CONTINUOUS
 0
ENDTAB
 0
ENDSEC
  0
SECTION
  2
ENTITIES
  0
POLYLINE
  8
Default_Layer
 66
   1
 39
0.000000
 70
    1
  0
VERTEX
  8
0
 10
0.94632754
 20
11.77516910
  0
VERTEX
  8
0
 10
0.93829292
 20
11.75724198
  0
VERTEX
  8
0
 10
0.93192827
 20
11.73949212
  0
VERTEX
  8
0
 10
0.92713579
 20
11.72190765
  0
VERTEX
  8
0
 10
0.92381767
 20
11.70447671
  0
VERTEX
  8
0
 10
0.92187613
 20
11.68718741
  0
VERTEX
  8
0
 10
0.92121337
 20
11.67002788
  0
VERTEX
  8
0
 10
0.92173158
 20
11.65298624
  0
VERTEX
  8
0
 10
0.92333298
 20
11.63605063
  0
VERTEX
  8
0
 10
0.92591975
 20
11.61920916
  0
VERTEX
  8
0
 10
0.92939411
 20
11.60244997
  0
VERTEX
  8
0
 10
0.93861440
 20
11.56913089
  0
VERTEX
  8
0
 10
0.95021144
 20
11.53599840
  0
VERTEX
  8
0
 10
0.96340287
 20
11.50295749
  0
VERTEX
  8
0
 10
0.99143933
 20
11.43677046
  0
VERTEX
  8
0
 10
1.00471960
 20
11.40343434
  0
VERTEX
  8
0
 10
1.01646473
 20
11.36980981
  0
VERTEX
  8
0
 10
1.02589232
 20
11.33580187
  0
VERTEX
  8
0
 10
1.02949254
 20
11.31862445
  0
VERTEX
  8
0
 10
1.03221999
 20
11.30131554
  0
VERTEX
  8
0
 10
1.03397686
 20
11.28386329
  0
VERTEX
  8
0
 10
1.03466537
 20
11.26625581
  0
VERTEX
  8
0
 10
1.03418770
 20
11.24848123
  0
VERTEX
  8
0
 10
1.03244606
 20
11.23052768
  0
VERTEX
  8
0
 10
0.93520874
 20
11.24115370
  0
VERTEX
  8
0
 10
0.83815107
 20
11.25258855
  0
VERTEX
  8
0
 10
0.74106661
 20
11.26288496
  0
VERTEX
  8
0
 10
0.69244984
 20
11.26699772
  0
VERTEX
  8
0
 10
0.64374898
 20
11.27009565
  0
VERTEX
  8
0
 10
0.65073156
 20
11.08040216
  0
VERTEX
  8
0
 10
0.72600876
 20
11.07967681
  0
VERTEX
  8
0
 10
0.80129494
 20
11.07786869
  0
VERTEX
  8
0
 10
0.87665314
 20
11.07441790
  0
VERTEX
  8
0
 10
0.95214636
 20
11.06876452
  0
VERTEX
  8
0
 10
0.91591927
 20
11.03741006
  0
VERTEX
  8
0
 10
0.87884824
 20
11.00710728
  0
VERTEX
  8
0
 10
0.84098188
 20
10.97786107
  0
VERTEX
  8
0
 10
0.80236879
 20
10.94967630
  0
VERTEX
  8
0
 10
0.76305760
 20
10.92255787
  0
VERTEX
  8
0
 10
0.72309691
 20
10.89651066
  0
VERTEX
  8
0
 10
0.68253532
 20
10.87153954
  0
VERTEX
  8
0
 10
0.64142145
 20
10.84764941
  0
VERTEX
  8
0
 10
0.64923360
 20
10.78092029
  0
VERTEX
  8
0
 10
0.65944434
 20
10.71448201
  0
VERTEX
  8
0
 10
0.67140844
 20
10.64829290
  0
VERTEX
  8
0
 10
0.68448071
 20
10.58231128
  0
VERTEX
  8
0
 10
0.73308001
 20
10.61818556
  0
VERTEX
  8
0
 10
0.78010951
 20
10.65586401
  0
VERTEX
  8
0
 10
0.82591596
 20
10.69493066
  0
VERTEX
  8
0
 10
0.87084611
 20
10.73496952
  0
VERTEX
  8
0
 10
0.95946452
 20
10.81629996
  0
VERTEX
  8
0
 10
1.00384628
 20
10.85675958
  0
VERTEX
  8
0
 10
1.04873875
 20
10.89652749
  0
VERTEX
  8
0
 10
1.05205150
 20
10.74099912
  0
VERTEX
  8
0
 10
1.05468413
 20
10.58529807
  0
VERTEX
  8
0
 10
1.05648368
 20
10.50742466
  0
VERTEX
  8
0
 10
1.05899912
 20
10.42955833
  0
VERTEX
  8
0
 10
1.06252578
 20
10.35171583
  0
VERTEX
  8
0
 10
1.06735897
 20
10.27391390
  0
VERTEX
  8
0
 10
1.07252947
 20
10.21733181
  0
VERTEX
  8
0
 10
1.07652754
 20
10.16069695
  0
VERTEX
  8
0
 10
1.07951073
 20
10.10401629
  0
VERTEX
  8
0
 10
1.08163656
 20
10.04729684
  0
VERTEX
  8
0
 10
1.08394633
 20
9.93376943
  0
VERTEX
  8
0
 10
1.08471713
 20
9.82017059
  0
VERTEX
  8
0
 10
1.08520929
 20
9.70655619
  0
VERTEX
  8
0
 10
1.08668309
 20
9.59298208
  0
VERTEX
  8
0
 10
1.08818195
 20
9.53622759
  0
VERTEX
  8
0
 10
1.09039884
 20
9.47950412
  0
VERTEX
  8
0
 10
1.09349128
 20
9.42281866
  0
VERTEX
  8
0
 10
1.09761683
 20
9.36617819
  0
VERTEX
  8
0
 10
1.10478950
 20
9.29313718
  0
VERTEX
  8
0
 10
1.11039066
 20
9.22001725
  0
VERTEX
  8
0
 10
1.11463317
 20
9.14682741
  0
VERTEX
  8
0
 10
1.11772991
 20
9.07357669
  0
VERTEX
  8
0
 10
1.11989374
 20
9.00027411
  0
VERTEX
  8
0
 10
1.12133752
 20
8.92692871
  0
VERTEX
  8
0
 10
1.12291643
 20
8.78014550
  0
VERTEX
  8
0
 10
1.12416955
 20
8.63329927
  0
VERTEX
  8
0
 10
1.12679984
 20
8.48646220
  0
VERTEX
  8
0
 10
1.12916358
 20
8.41306966
  0
VERTEX
  8
0
 10
1.13251022
 20
8.33970650
  0
VERTEX
  8
0
 10
1.13705260
 20
8.26638172
  0
VERTEX
  8
0
 10
1.14300361
 20
8.19310435
  0
VERTEX
  8
0
 10
1.14362512
 20
8.15614450
  0
VERTEX
  8
0
 10
1.14496190
 20
8.11922084
  0
VERTEX
  8
0
 10
1.14933828
 20
8.04546053
  0
VERTEX
  8
0
 10
1.15524661
 20
7.97178041
  0
VERTEX
  8
0
 10
1.16180076
 20
7.89813742
  0
VERTEX
  8
0
 10
1.16811458
 20
7.82448854
  0
VERTEX
  8
0
 10
1.17330195
 20
7.75079072
  0
VERTEX
  8
0
 10
1.17647672
 20
7.67700094
  0
VERTEX
  8
0
 10
1.17703247
 20
7.64005811
  0
VERTEX
  8
0
 10
1.17675276
 20
7.60307614
  0
VERTEX
  8
0
 10
1.17755022
 20
7.35144990
  0
VERTEX
  8
0
 10
1.18074703
 20
7.09985224
  0
VERTEX
  8
0
 10
1.18572894
 20
6.84820262
  0
VERTEX
  8
0
 10
1.19188169
 20
6.59642052
  0
VERTEX
  8
0
 10
1.19793466
 20
6.52796661
  0
VERTEX
  8
0
 10
1.20274288
 20
6.45943412
  0
VERTEX
  8
0
 10
1.20648535
 20
6.39083186
  0
VERTEX
  8
0
 10
1.20934106
 20
6.32216864
  0
VERTEX
  8
0
 10
1.21310817
 20
6.18469459
  0
VERTEX
  8
0
 10
1.21547617
 20
6.04708248
  0
VERTEX
  8
0
 10
1.21787701
 20
5.90940283
  0
VERTEX
  8
0
 10
1.22174262
 20
5.77172616
  0
VERTEX
  8
0
 10
1.22467221
 20
5.70291097
  0
VERTEX
  8
0
 10
1.22850497
 20
5.63412298
  0
VERTEX
  8
0
 10
1.23341991
 20
5.56537098
  0
VERTEX
  8
0
 10
1.23959600
 20
5.49666380
  0
VERTEX
  8
0
 10
1.24275760
 20
5.37192913
  0
VERTEX
  8
0
 10
1.24522283
 20
5.24712069
  0
VERTEX
  8
0
 10
1.24898030
 20
4.99730179
  0
VERTEX
  8
0
 10
1.25270069
 20
4.74724562
  0
VERTEX
  8
0
 10
1.25511954
 20
4.62214062
  0
VERTEX
  8
0
 10
1.25821622
 20
4.49699075
  0
VERTEX
  8
0
 10
1.18526658
 20
4.50906825
  0
VERTEX
  8
0
 10
1.11246482
 20
4.52205768
  0
VERTEX
  8
0
 10
0.96721482
 20
4.55019339
  0
VERTEX
  8
0
 10
0.82228600
 20
4.58024000
  0
VERTEX
  8
0
 10
0.67749812
 20
4.61103960
  0
VERTEX
  8
0
 10
0.67922140
 20
4.47056106
  0
VERTEX
  8
0
 10
0.68215318
 20
4.32940878
  0
VERTEX
  8
0
 10
0.82214593
 20
4.29488422
  0
VERTEX
  8
0
 10
0.96157957
 20
4.25802088
  0
VERTEX
  8
0
 10
1.10066072
 20
4.21961105
  0
VERTEX
  8
0
 10
1.23959600
 20
4.18044702
  0
VERTEX
  8
0
 10
1.18691720
 20
4.14891516
  0
VERTEX
  8
0
 10
1.13348161
 20
4.11883378
  0
VERTEX
  8
0
 10
1.07940011
 20
4.08999215
  0
VERTEX
  8
0
 10
1.02478358
 20
4.06217953
  0
VERTEX
  8
0
 10
0.96974288
 20
4.03518518
  0
VERTEX
  8
0
 10
0.91438891
 20
4.00879837
  0
VERTEX
  8
0
 10
0.80318461
 20
3.95700439
  0
VERTEX
  8
0
 10
0.85633023
 20
3.83200252
  0
VERTEX
  8
0
 10
0.90908711
 20
3.70679518
  0
VERTEX
  8
0
 10
0.95964879
 20
3.72276411
  0
VERTEX
  8
0
 10
1.00973199
 20
3.74012828
  0
VERTEX
  8
0
 10
1.05939778
 20
3.75869352
  0
VERTEX
  8
0
 10
1.10870722
 20
3.77826565
  0
VERTEX
  8
0
 10
1.20650137
 20
3.81965387
  0
VERTEX
  8
0
 10
1.30360301
 20
3.86273952
  0
VERTEX
  8
0
 10
1.31108744
 20
3.48616410
  0
VERTEX
  8
0
 10
1.31499603
 20
3.29780560
  0
VERTEX
  8
0
 10
1.31994606
 20
3.10945071
  0
VERTEX
  8
0
 10
1.32663545
 20
2.92113753
  0
VERTEX
  8
0
 10
1.33576209
 20
2.73290416
  0
VERTEX
  8
0
 10
1.34145747
 20
2.63882931
  0
VERTEX
  8
0
 10
1.34802388
 20
2.54478870
  0
VERTEX
  8
0
 10
1.35554855
 20
2.45078710
  0
VERTEX
  8
0
 10
1.36411872
 20
2.35682926
  0
VERTEX
  8
0
 10
1.36648727
 20
2.24255361
  0
VERTEX
  8
0
 10
1.36788812
 20
2.12824572
  0
VERTEX
  8
0
 10
1.36911681
 20
1.89956106
  0
VERTEX
  8
0
 10
1.37046492
 20
1.67083093
  0
VERTEX
  8
0
 10
1.37201506
 20
1.55646620
  0
VERTEX
  8
0
 10
1.37459260
 20
1.44211097
  0
VERTEX
  8
0
 10
1.47888944
 20
1.45903773
  0
VERTEX
  8
0
 10
1.58255517
 20
1.47847686
  0
VERTEX
  8
0
 10
1.68552364
 20
1.50038985
  0
VERTEX
  8
0
 10
1.78772872
 20
1.52473820
  0
VERTEX
  8
0
 10
1.78744903
 20
1.64401242
  0
VERTEX
  8
0
 10
1.78572213
 20
1.76310284
  0
VERTEX
  8
0
 10
1.78389981
 20
1.82257798
  0
VERTEX
  8
0
 10
1.78121629
 20
1.88200579
  0
VERTEX
  8
0
 10
1.77750511
 20
1.94138580
  0
VERTEX
  8
0
 10
1.77259979
 20
2.00071756
  0
VERTEX
  8
0
 10
1.76669399
 20
2.05176141
  0
VERTEX
  8
0
 10
1.76215176
 20
2.10287892
  0
VERTEX
  8
0
 10
1.75879146
 20
2.15406101
  0
VERTEX
  8
0
 10
1.75643145
 20
2.20529860
  0
VERTEX
  8
0
 10
1.75398569
 20
2.30790391
  0
VERTEX
  8
0
 10
1.75336132
 20
2.41062216
  0
VERTEX
  8
0
 10
1.75310517
 20
2.51338068
  0
VERTEX
  8
0
 10
1.75176408
 20
2.61610678
  0
VERTEX
  8
0
 10
1.75023257
 20
2.66743496
  0
VERTEX
  8
0
 10
1.74788488
 20
2.71872777
  0
VERTEX
  8
0
 10
1.74453938
 20
2.76997615
  0
VERTEX
  8
0
 10
1.74001441
 20
2.82117099
  0
VERTEX
  8
0
 10
1.73424338
 20
2.87202551
  0
VERTEX
  8
0
 10
1.72968405
 20
2.92294162
  0
VERTEX
  8
0
 10
1.72617723
 20
2.97391200
  0
VERTEX
  8
0
 10
1.72356372
 20
3.02492931
  0
VERTEX
  8
0
 10
1.72037995
 20
3.12707549
  0
VERTEX
  8
0
 10
1.71885926
 20
3.22932156
  0
VERTEX
  8
0
 10
1.71772817
 20
3.33160895
  0
VERTEX
  8
0
 10
1.71571320
 20
3.43387906
  0
VERTEX
  8
0
 10
1.71397630
 20
3.48498933
  0
VERTEX
  8
0
 10
1.71154088
 20
3.53607331
  0
VERTEX
  8
0
 10
1.70824775
 20
3.58712368
  0
VERTEX
  8
0
 10
1.70393773
 20
3.63813312
  0
VERTEX
  8
0
 10
1.69933035
 20
3.68544579
  0
VERTEX
  8
0
 10
1.69559715
 20
3.73281254
  0
VERTEX
  8
0
 10
1.69026452
 20
3.82767457
  0
VERTEX
  8
0
 10
1.68696238
 20
3.92265181
  0
VERTEX
  8
0
 10
1.68471326
 20
4.01767686
  0
VERTEX
  8
0
 10
1.68253966
 20
4.11268231
  0
VERTEX
  8
0
 10
1.67946412
 20
4.20760077
  0
VERTEX
  8
0
 10
1.67450915
 20
4.30236483
  0
VERTEX
  8
0
 10
1.67102143
 20
4.34966789
  0
VERTEX
  8
0
 10
1.66669729
 20
4.39690707
  0
VERTEX
  8
0
 10
1.66240307
 20
4.45423805
  0
VERTEX
  8
0
 10
1.65916719
 20
4.51160039
  0
VERTEX
  8
0
 10
1.65681906
 20
4.56898693
  0
VERTEX
  8
0
 10
1.65518808
 20
4.62639050
  0
VERTEX
  8
0
 10
1.65339519
 20
4.74122007
  0
VERTEX
  8
0
 10
1.65242373
 20
4.85603175
  0
VERTEX
  8
0
 10
1.65090894
 20
4.97076821
  0
VERTEX
  8
0
 10
1.64748605
 20
5.08537211
  0
VERTEX
  8
0
 10
1.64463257
 20
5.14260644
  0
VERTEX
  8
0
 10
1.64079028
 20
5.19978612
  0
VERTEX
  8
0
 10
1.63578857
 20
5.25690399
  0
VERTEX
  8
0
 10
1.62945685
 20
5.31395289
  0
VERTEX
  8
0
 10
1.62341318
 20
5.39567468
  0
VERTEX
  8
0
 10
1.61976548
 20
5.47745380
  0
VERTEX
  8
0
 10
1.61786742
 20
5.55926623
  0
VERTEX
  8
0
 10
1.61707268
 20
5.64108798
  0
VERTEX
  8
0
 10
1.61620784
 20
5.80466342
  0
VERTEX
  8
0
 10
1.61484511
 20
5.88636911
  0
VERTEX
  8
0
 10
1.61200040
 20
5.96798811
  0
VERTEX
  8
0
 10
1.59974574
 20
6.11738083
  0
VERTEX
  8
0
 10
1.58868800
 20
6.26679091
  0
VERTEX
  8
0
 10
1.57894030
 20
6.41623124
  0
VERTEX
  8
0
 10
1.57061578
 20
6.56571469
  0
VERTEX
  8
0
 10
1.56382758
 20
6.71525413
  0
VERTEX
  8
0
 10
1.55868882
 20
6.86486244
  0
VERTEX
  8
0
 10
1.55531266
 20
7.01455252
  0
VERTEX
  8
0
 10
1.55381221
 20
7.16433722
  0
VERTEX
  8
0
 10
1.54674151
 20
7.21707549
  0
VERTEX
  8
0
 10
1.54103198
 20
7.26989691
  0
VERTEX
  8
0
 10
1.53650876
 20
7.32279181
  0
VERTEX
  8
0
 10
1.53299700
 20
7.37575054
  0
VERTEX
  8
0
 10
1.52830835
 20
7.48182089
  0
VERTEX
  8
0
 10
1.52556711
 20
7.58803076
  0
VERTEX
  8
0
 10
1.52337437
 20
7.69430291
  0
VERTEX
  8
0
 10
1.52033120
 20
7.80056015
  0
VERTEX
  8
0
 10
1.51805354
 20
7.85365904
  0
VERTEX
  8
0
 10
1.51503868
 20
7.90672524
  0
VERTEX
  8
0
 10
1.51111175
 20
7.95974910
  0
VERTEX
  8
0
 10
1.50609790
 20
8.01272097
  0
VERTEX
  8
0
 10
1.49790283
 20
8.16964500
  0
VERTEX
  8
0
 10
1.49060150
 20
8.32664437
  0
VERTEX
  8
0
 10
1.47675415
 20
8.64074053
  0
VERTEX
  8
0
 10
1.46924519
 20
8.79777299
  0
VERTEX
  8
0
 10
1.46070410
 20
8.95475217
  0
VERTEX
  8
0
 10
1.45064939
 20
9.11164591
  0
VERTEX
  8
0
 10
1.43859960
 20
9.26842204
  0
VERTEX
  8
0
 10
1.43661283
 20
9.33775529
  0
VERTEX
  8
0
 10
1.43548173
 20
9.40715057
  0
VERTEX
  8
0
 10
1.43379734
 20
9.54603524
  0
VERTEX
  8
0
 10
1.43224948
 20
9.61547865
  0
VERTEX
  8
0
 10
1.42956809
 20
9.68489213
  0
VERTEX
  8
0
 10
1.42525591
 20
9.75425269
  0
VERTEX
  8
0
 10
1.41881562
 20
9.82353733
  0
VERTEX
  8
0
 10
1.41463566
 20
9.86854493
  0
VERTEX
  8
0
 10
1.41142066
 20
9.91360848
  0
VERTEX
  8
0
 10
1.40732834
 20
10.00387390
  0
VERTEX
  8
0
 10
1.40542422
 20
10.09427447
  0
VERTEX
  8
0
 10
1.40459387
 20
10.18475103
  0
VERTEX
  8
0
 10
1.40372286
 20
10.27524447
  0
VERTEX
  8
0
 10
1.40169676
 20
10.36569563
  0
VERTEX
  8
0
 10
1.39990228
 20
10.41088688
  0
VERTEX
  8
0
 10
1.39740112
 20
10.45604539
  0
VERTEX
  8
0
 10
1.39405397
 20
10.50116376
  0
VERTEX
  8
0
 10
1.38972152
 20
10.54623461
  0
VERTEX
  8
0
 10
1.38438457
 20
10.59554950
  0
VERTEX
  8
0
 10
1.38021149
 20
10.64493363
  0
VERTEX
  8
0
 10
1.37704510
 20
10.69437839
  0
VERTEX
  8
0
 10
1.37472822
 20
10.74387517
  0
VERTEX
  8
0
 10
1.37201424
 20
10.84299032
  0
VERTEX
  8
0
 10
1.37081210
 20
10.94221013
  0
VERTEX
  8
0
 10
1.36986430
 20
11.04146570
  0
VERTEX
  8
0
 10
1.36791340
 20
11.14068811
  0
VERTEX
  8
0
 10
1.36616882
 20
11.19026533
  0
VERTEX
  8
0
 10
1.36370191
 20
11.23980841
  0
VERTEX
  8
0
 10
1.36035549
 20
11.28930875
  0
VERTEX
  8
0
 10
1.35597238
 20
11.33875771
  0
VERTEX
  8
0
 10
1.35450086
 20
11.35190123
  0
VERTEX
  8
0
 10
1.35398173
 20
11.36493240
  0
VERTEX
  8
0
 10
1.35434193
 20
11.37785883
  0
VERTEX
  8
0
 10
1.35550837
 20
11.39068815
  0
VERTEX
  8
0
 10
1.35996768
 20
11.41608592
  0
VERTEX
  8
0
 10
1.36677506
 20
11.44118668
  0
VERTEX
  8
0
 10
1.37534590
 20
11.46605140
  0
VERTEX
  8
0
 10
1.38509560
 20
11.49074103
  0
VERTEX
  8
0
 10
1.40579310
 20
11.53983890
  0
VERTEX
  8
0
 10
1.41557170
 20
11.56436907
  0
VERTEX
  8
0
 10
1.42419072
 20
11.58896801
  0
VERTEX
  8
0
 10
1.43106555
 20
11.61369669
  0
VERTEX
  8
0
 10
1.43561159
 20
11.63861608
  0
VERTEX
  8
0
 10
1.43682862
 20
11.65116634
  0
VERTEX
  8
0
 10
1.43724422
 20
11.66378714
  0
VERTEX
  8
0
 10
1.43678532
 20
11.67648609
  0
VERTEX
  8
0
 10
1.43537884
 20
11.68927082
  0
VERTEX
  8
0
 10
1.43295171
 20
11.70214896
  0
VERTEX
  8
0
 10
1.42943084
 20
11.71512811
  0
VERTEX
  8
0
 10
1.42474317
 20
11.72821590
  0
VERTEX
  8
0
 10
1.41881562
 20
11.74141996
  0
VERTEX
  8
0
 10
1.41192816
 20
11.75932505
  0
VERTEX
  8
0
 10
1.40368876
 20
11.77617620
  0
VERTEX
  8
0
 10
1.39418179
 20
11.79197009
  0
VERTEX
  8
0
 10
1.38349162
 20
11.80670342
  0
VERTEX
  8
0
 10
1.37170261
 20
11.82037285
  0
VERTEX
  8
0
 10
1.35889913
 20
11.83297506
  0
VERTEX
  8
0
 10
1.34516557
 20
11.84450675
  0
VERTEX
  8
0
 10
1.33058627
 20
11.85496459
  0
VERTEX
  8
0
 10
1.31524563
 20
11.86434526
  0
VERTEX
  8
0
 10
1.29922800
 20
11.87264544
  0
VERTEX
  8
0
 10
1.28261775
 20
11.87986182
  0
VERTEX
  8
0
 10
1.26549926
 20
11.88599107
  0
VERTEX
  8
0
 10
1.24795690
 20
11.89102988
  0
VERTEX
  8
0
 10
1.23007502
 20
11.89497492
  0
VERTEX
  8
0
 10
1.21193802
 20
11.89782289
  0
VERTEX
  8
0
 10
1.19363025
 20
11.89957046
  0
VERTEX
  8
0
 10
1.17523608
 20
11.90021431
  0
VERTEX
  8
0
 10
1.15683988
 20
11.89975112
  0
VERTEX
  8
0
 10
1.13852603
 20
11.89817757
  0
VERTEX
  8
0
 10
1.12037890
 20
11.89549036
  0
VERTEX
  8
0
 10
1.10248284
 20
11.89168614
  0
VERTEX
  8
0
 10
1.08492225
 20
11.88676162
  0
VERTEX
  8
0
 10
1.06778147
 20
11.88071347
  0
VERTEX
  8
0
 10
1.05114489
 20
11.87353836
  0
VERTEX
  8
0
 10
1.03509686
 20
11.86523299
  0
VERTEX
  8
0
 10
1.01972178
 20
11.85579403
  0
VERTEX
  8
0
 10
1.00510399
 20
11.84521817
  0
VERTEX
  8
0
 10
0.99132788
 20
11.83350208
  0
VERTEX
  8
0
 10
0.97847781
 20
11.82064245
  0
VERTEX
  8
0
 10
0.96663815
 20
11.80663595
  0
VERTEX
  8
0
 10
0.95589327
 20
11.79147928
  0
VERTEX
  8
0
 10
0.94632754
 20
11.77516910
  0
SEQEND
  0
POLYLINE
  8
Default_Layer
 66
   1
 39
0.000000
 70
    1
  0
VERTEX
  8
0
 10
2.36030047
 20
11.75887641
  0
VERTEX
  8
0
 10
2.18465977
 20
11.74134657
  0
VERTEX
  8
0
 10
2.09657172
 20
11.73136082
  0
VERTEX
  8
0
 10
2.05264380
 20
11.72557952
  0
VERTEX
  8
0
 10
2.00886302
 20
11.71908851
  0
VERTEX
  8
0
 10
1.96528165
 20
11.71174974
  0
VERTEX
  8
0
 10
1.92195200
 20
11.70342513
  0
VERTEX
  8
0
 10
1.87892636
 20
11.69397664
  0
VERTEX
  8
0
 10
1.83625702
 20
11.68326619
  0
VERTEX
  8
0
 10
1.79399628
 20
11.67115572
  0
VERTEX
  8
0
 10
1.75219643
 20
11.65750717
  0
VERTEX
  8
0
 10
1.71090977
 20
11.64218248
  0
VERTEX
  8
0
 10
1.67018858
 20
11.62504358
  0
VERTEX
  8
0
 10
1.66504569
 20
11.61657387
  0
VERTEX
  8
0
 10
1.66074297
 20
11.60779204
  0
VERTEX
  8
0
 10
1.65430952
 20
11.58943026
  0
VERTEX
  8
0
 10
1.65019122
 20
11.57023471
  0
VERTEX
  8
0
 10
1.64769102
 20
11.55048187
  0
VERTEX
  8
0
 10
1.64475684
 20
11.51041013
  0
VERTEX
  8
0
 10
1.64292879
 20
11.49064417
  0
VERTEX
  8
0
 10
1.63993073
 20
11.47142677
  0
VERTEX
  8
0
 10
1.68448327
 20
11.48629092
  0
VERTEX
  8
0
 10
1.72921006
 20
11.50032179
  0
VERTEX
  8
0
 10
1.77410374
 20
11.51354037
  0
VERTEX
  8
0
 10
1.81915696
 20
11.52596763
  0
VERTEX
  8
0
 10
1.86436236
 20
11.53762455
  0
VERTEX
  8
0
 10
1.90971262
 20
11.54853213
  0
VERTEX
  8
0
 10
2.00081825
 20
11.56818315
  0
VERTEX
  8
0
 10
2.09241506
 20
11.58508856
  0
VERTEX
  8
0
 10
2.18444426
 20
11.59941622
  0
VERTEX
  8
0
 10
2.27684706
 20
11.61133397
  0
VERTEX
  8
0
 10
2.36956466
 20
11.62100969
  0
VERTEX
  8
0
 10
2.46253826
 20
11.62861122
  0
VERTEX
  8
0
 10
2.55570908
 20
11.63430643
  0
VERTEX
  8
0
 10
2.64901833
 20
11.63826318
  0
VERTEX
  8
0
 10
2.74240720
 20
11.64064932
  0
VERTEX
  8
0
 10
2.83581691
 20
11.64163271
  0
VERTEX
  8
0
 10
2.92918867
 20
11.64138121
  0
VERTEX
  8
0
 10
3.02246367
 20
11.64006268
  0
VERTEX
  8
0
 10
3.11558313
 20
11.63784498
  0
VERTEX
  8
0
 10
3.23306624
 20
11.63265259
  0
VERTEX
  8
0
 10
3.35052118
 20
11.62584541
  0
VERTEX
  8
0
 10
3.46790573
 20
11.61737957
  0
VERTEX
  8
0
 10
3.58517770
 20
11.60721122
  0
VERTEX
  8
0
 10
3.70229486
 20
11.59529649
  0
VERTEX
  8
0
 10
3.81921501
 20
11.58159154
  0
VERTEX
  8
0
 10
3.93589594
 20
11.56605249
  0
VERTEX
  8
0
 10
4.05229545
 20
11.54863550
  0
VERTEX
  8
0
 10
4.16837132
 20
11.52929669
  0
VERTEX
  8
0
 10
4.28408134
 20
11.50799222
  0
VERTEX
  8
0
 10
4.39938331
 20
11.48467821
  0
VERTEX
  8
0
 10
4.51423501
 20
11.45931082
  0
VERTEX
  8
0
 10
4.62859424
 20
11.43184618
  0
VERTEX
  8
0
 10
4.74241878
 20
11.40224043
  0
VERTEX
  8
0
 10
4.85566643
 20
11.37044972
  0
VERTEX
  8
0
 10
4.96829499
 20
11.33643018
  0
VERTEX
  8
0
 10
5.07592305
 20
11.29958771
  0
VERTEX
  8
0
 10
5.12956207
 20
11.28012188
  0
VERTEX
  8
0
 10
5.18296090
 20
11.25983587
  0
VERTEX
  8
0
 10
5.23602690
 20
11.23863686
  0
VERTEX
  8
0
 10
5.28866744
 20
11.21643201
  0
VERTEX
  8
0
 10
5.34078987
 20
11.19312849
  0
VERTEX
  8
0
 10
5.39230156
 20
11.16863346
  0
VERTEX
  8
0
 10
5.44310988
 20
11.14285409
  0
VERTEX
  8
0
 10
5.49312218
 20
11.11569755
  0
VERTEX
  8
0
 10
5.54224583
 20
11.08707100
  0
VERTEX
  8
0
 10
5.59038818
 20
11.05688161
  0
VERTEX
  8
0
 10
5.63745661
 20
11.02503655
  0
VERTEX
  8
0
 10
5.68335848
 20
10.99144298
  0
VERTEX
  8
0
 10
5.72800114
 20
10.95600808
  0
VERTEX
  8
0
 10
5.77129196
 20
10.91863900
  0
VERTEX
  8
0
 10
5.79104194
 20
10.90087729
  0
VERTEX
  8
0
 10
5.80989767
 20
10.88236707
  0
VERTEX
  8
0
 10
5.82793123
 20
10.86317146
  0
VERTEX
  8
0
 10
5.84521467
 20
10.84335359
  0
VERTEX
  8
0
 10
5.86182005
 20
10.82297661
  0
VERTEX
  8
0
 10
5.87781944
 20
10.80210364
  0
VERTEX
  8
0
 10
5.90828849
 20
10.75912226
  0
VERTEX
  8
0
 10
5.93719831
 20
10.71491452
  0
VERTEX
  8
0
 10
5.96512541
 20
10.66998548
  0
VERTEX
  8
0
 10
6.02033739
 20
10.57998376
  0
VERTEX
  8
0
 10
6.02759793
 20
10.61690363
  0
VERTEX
  8
0
 10
6.03673446
 20
10.65510881
  0
VERTEX
  8
0
 10
6.04560551
 20
10.69394009
  0
VERTEX
  8
0
 10
6.04927228
 20
10.71338452
  0
VERTEX
  8
0
 10
6.05206962
 20
10.73273828
  0
VERTEX
  8
0
 10
6.05372987
 20
10.75191896
  0
VERTEX
  8
0
 10
6.05398533
 20
10.77084416
  0
VERTEX
  8
0
 10
6.05256831
 20
10.78943149
  0
VERTEX
  8
0
 10
6.04921115
 20
10.80759854
  0
VERTEX
  8
0
 10
6.04364615
 20
10.82526291
  0
VERTEX
  8
0
 10
6.03560562
 20
10.84234221
  0
VERTEX
  8
0
 10
6.02482190
 20
10.85875403
  0
VERTEX
  8
0
 10
6.01102729
 20
10.87441598
  0
VERTEX
  8
0
 10
5.98439957
 20
10.90642428
  0
VERTEX
  8
0
 10
5.95690103
 20
10.93742295
  0
VERTEX
  8
0
 10
5.92856318
 20
10.96743525
  0
VERTEX
  8
0
 10
5.89941755
 20
10.99648445
  0
VERTEX
  8
0
 10
5.86949563
 20
11.02459383
  0
VERTEX
  8
0
 10
5.83882897
 20
11.05178666
  0
VERTEX
  8
0
 10
5.80744906
 20
11.07808620
  0
VERTEX
  8
0
 10
5.77538744
 20
11.10351573
  0
VERTEX
  8
0
 10
5.74267562
 20
11.12809851
  0
VERTEX
  8
0
 10
5.70934512
 20
11.15185782
  0
VERTEX
  8
0
 10
5.67542745
 20
11.17481692
  0
VERTEX
  8
0
 10
5.64095414
 20
11.19699909
  0
VERTEX
  8
0
 10
5.60595670
 20
11.21842760
  0
VERTEX
  8
0
 10
5.57046665
 20
11.23912571
  0
VERTEX
  8
0
 10
5.53451550
 20
11.25911670
  0
VERTEX
  8
0
 10
5.49813479
 20
11.27842383
  0
VERTEX
  8
0
 10
5.42421071
 20
11.31507962
  0
VERTEX
  8
0
 10
5.34894656
 20
11.34927923
  0
VERTEX
  8
0
 10
5.27259449
 20
11.38120883
  0
VERTEX
  8
0
 10
5.19540662
 20
11.41105458
  0
VERTEX
  8
0
 10
5.11763512
 20
11.43900264
  0
VERTEX
  8
0
 10
5.03953212
 20
11.46523916
  0
VERTEX
  8
0
 10
4.96134978
 20
11.48995032
  0
VERTEX
  8
0
 10
4.88334023
 20
11.51332227
  0
VERTEX
  8
0
 10
4.82283697
 20
11.53117970
  0
VERTEX
  8
0
 10
4.76216004
 20
11.54820233
  0
VERTEX
  8
0
 10
4.70131641
 20
11.56441450
  0
VERTEX
  8
0
 10
4.64031304
 20
11.57984056
  0
VERTEX
  8
0
 10
4.57915689
 20
11.59450486
  0
VERTEX
  8
0
 10
4.51785492
 20
11.60843175
  0
VERTEX
  8
0
 10
4.39484139
 20
11.63417066
  0
VERTEX
  8
0
 10
4.27132815
 20
11.65725210
  0
VERTEX
  8
0
 10
4.14737090
 20
11.67787083
  0
VERTEX
  8
0
 10
4.02302534
 20
11.69622164
  0
VERTEX
  8
0
 10
3.89834717
 20
11.71249932
  0
VERTEX
  8
0
 10
3.77339209
 20
11.72689865
  0
VERTEX
  8
0
 10
3.64821579
 20
11.73961440
  0
VERTEX
  8
0
 10
3.52287398
 20
11.75084137
  0
VERTEX
  8
0
 10
3.39742237
 20
11.76077434
  0
VERTEX
  8
0
 10
3.27191664
 20
11.76960808
  0
VERTEX
  8
0
 10
3.14641250
 20
11.77753738
  0
VERTEX
  8
0
 10
2.89563179
 20
11.79146180
  0
VERTEX
  8
0
 10
2.82843898
 20
11.79019386
  0
VERTEX
  8
0
 10
2.76138946
 20
11.78709859
  0
VERTEX
  8
0
 10
2.69445107
 20
11.78268890
  0
VERTEX
  8
0
 10
2.62759165
 20
11.77747772
  0
VERTEX
  8
0
 10
2.49398108
 20
11.76670254
  0
VERTEX
  8
0
 10
2.42716561
 20
11.76216439
  0
VERTEX
  8
0
 10
2.36030047
 20
11.75887641
  0
SEQEND
  0
POLYLINE
  8
Default_Layer
 66
   1
 39
0.000000
 70
    1
  0
VERTEX
  8
0
 10
5.97029555
 20
9.71530731
  0
VERTEX
  8
0
 10
5.98701653
 20
9.68721650
  0
VERTEX
  8
0
 10
6.00444343
 20
9.65944202
  0
VERTEX
  8
0
 10
6.02258108
 20
9.63204120
  0
VERTEX
  8
0
 10
6.04143430
 20
9.60507137
  0
VERTEX
  8
0
 10
6.06100792
 20
9.57858987
  0
VERTEX
  8
0
 10
6.08130676
 20
9.55265403
  0
VERTEX
  8
0
 10
6.10233564
 20
9.52732119
  0
VERTEX
  8
0
 10
6.12409940
 20
9.50264867
  0
VERTEX
  8
0
 10
6.14660284
 20
9.47869382
  0
VERTEX
  8
0
 10
6.16985080
 20
9.45551396
  0
VERTEX
  8
0
 10
6.19384810
 20
9.43316642
  0
VERTEX
  8
0
 10
6.21859956
 20
9.41170855
  0
VERTEX
  8
0
 10
6.24411001
 20
9.39119767
  0
VERTEX
  8
0
 10
6.27038426
 20
9.37169112
  0
VERTEX
  8
0
 10
6.29742715
 20
9.35324623
  0
VERTEX
  8
0
 10
6.32524349
 20
9.33592033
  0
VERTEX
  8
0
 10
6.36671640
 20
9.31492750
  0
VERTEX
  8
0
 10
6.40893694
 20
9.29572510
  0
VERTEX
  8
0
 10
6.45184425
 20
9.27827156
  0
VERTEX
  8
0
 10
6.49537749
 20
9.26252534
  0
VERTEX
  8
0
 10
6.53947580
 20
9.24844486
  0
VERTEX
  8
0
 10
6.58407834
 20
9.23598858
  0
VERTEX
  8
0
 10
6.62912427
 20
9.22511494
  0
VERTEX
  8
0
 10
6.67455272
 20
9.21578237
  0
VERTEX
  8
0
 10
6.72030285
 20
9.20794932
  0
VERTEX
  8
0
 10
6.76631381
 20
9.20157423
  0
VERTEX
  8
0
 10
6.81252475
 20
9.19661555
  0
VERTEX
  8
0
 10
6.85887483
 20
9.19303171
  0
VERTEX
  8
0
 10
6.90530319
 20
9.19078115
  0
VERTEX
  8
0
 10
6.95174898
 20
9.18982233
  0
VERTEX
  8
0
 10
6.99815136
 20
9.19011367
  0
VERTEX
  8
0
 10
7.04444947
 20
9.19161363
  0
VERTEX
  8
0
 10
7.07923627
 20
9.19288463
  0
VERTEX
  8
0
 10
7.11388465
 20
9.19509154
  0
VERTEX
  8
0
 10
7.14840412
 20
9.19816963
  0
VERTEX
  8
0
 10
7.18280418
 20
9.20205420
  0
VERTEX
  8
0
 10
7.25128399
 20
9.21198386
  0
VERTEX
  8
0
 10
7.31940003
 20
9.22436277
  0
VERTEX
  8
0
 10
7.38722824
 20
9.23867318
  0
VERTEX
  8
0
 10
7.45484455
 20
9.25439732
  0
VERTEX
  8
0
 10
7.58974524
 20
9.28801580
  0
VERTEX
  8
0
 10
7.65718149
 20
9.30487463
  0
VERTEX
  8
0
 10
7.72470961
 20
9.32107618
  0
VERTEX
  8
0
 10
7.79240551
 20
9.33610269
  0
VERTEX
  8
0
 10
7.86034516
 20
9.34943641
  0
VERTEX
  8
0
 10
7.92860447
 20
9.36055959
  0
VERTEX
  8
0
 10
7.96287774
 20
9.36513042
  0
VERTEX
  8
0
 10
7.99725940
 20
9.36895446
  0
VERTEX
  8
0
 10
8.03175895
 20
9.37196699
  0
VERTEX
  8
0
 10
8.06638588
 20
9.37410329
  0
VERTEX
  8
0
 10
8.10114968
 20
9.37529863
  0
VERTEX
  8
0
 10
8.13605985
 20
9.37548830
  0
VERTEX
  8
0
 10
8.17910499
 20
9.37185457
  0
VERTEX
  8
0
 10
8.22176751
 20
9.36632443
  0
VERTEX
  8
0
 10
8.26400785
 20
9.35894463
  0
VERTEX
  8
0
 10
8.30578649
 20
9.34976189
  0
VERTEX
  8
0
 10
8.34706386
 20
9.33882293
  0
VERTEX
  8
0
 10
8.38780043
 20
9.32617451
  0
VERTEX
  8
0
 10
8.42795666
 20
9.31186333
  0
VERTEX
  8
0
 10
8.46749300
 20
9.29593614
  0
VERTEX
  8
0
 10
8.50636992
 20
9.27843967
  0
VERTEX
  8
0
 10
8.54454786
 20
9.25942064
  0
VERTEX
  8
0
 10
8.58198728
 20
9.23892579
  0
VERTEX
  8
0
 10
8.61864864
 20
9.21700185
  0
VERTEX
  8
0
 10
8.65449239
 20
9.19369555
  0
VERTEX
  8
0
 10
8.68947901
 20
9.16905362
  0
VERTEX
  8
0
 10
8.72356893
 20
9.14312279
  0
VERTEX
  8
0
 10
8.75672261
 20
9.11594980
  0
VERTEX
  8
0
 10
8.78890052
 20
9.08758137
  0
VERTEX
  8
0
 10
8.82006311
 20
9.05806424
  0
VERTEX
  8
0
 10
8.85017084
 20
9.02744513
  0
VERTEX
  8
0
 10
8.87918416
 20
8.99577078
  0
VERTEX
  8
0
 10
8.90706353
 20
8.96308792
  0
VERTEX
  8
0
 10
8.93376941
 20
8.92944328
  0
VERTEX
  8
0
 10
8.95926225
 20
8.89488360
  0
VERTEX
  8
0
 10
8.98350251
 20
8.85945559
  0
VERTEX
  8
0
 10
9.00645065
 20
8.82320600
  0
VERTEX
  8
0
 10
9.02806713
 20
8.78618155
  0
VERTEX
  8
0
 10
9.04831239
 20
8.74842897
  0
VERTEX
  8
0
 10
9.06714690
 20
8.70999500
  0
VERTEX
  8
0
 10
9.08453111
 20
8.67092637
  0
VERTEX
  8
0
 10
9.10042549
 20
8.63126981
  0
VERTEX
  8
0
 10
9.11479048
 20
8.59107205
  0
VERTEX
  8
0
 10
9.12758655
 20
8.55037982
  0
VERTEX
  8
0
 10
9.15627626
 20
8.58643133
  0
VERTEX
  8
0
 10
9.18574084
 20
8.62193256
  0
VERTEX
  8
0
 10
9.24501093
 20
8.69264848
  0
VERTEX
  8
0
 10
9.27382461
 20
8.72854534
  0
VERTEX
  8
0
 10
9.30142949
 20
8.76525624
  0
VERTEX
  8
0
 10
9.32732966
 20
8.80312227
  0
VERTEX
  8
0
 10
9.33948549
 20
8.82259505
  0
VERTEX
  8
0
 10
9.35102918
 20
8.84248451
  0
VERTEX
  8
0
 10
9.35480676
 20
8.85786789
  0
VERTEX
  8
0
 10
9.35718485
 20
8.87329422
  0
VERTEX
  8
0
 10
9.35827020
 20
8.88874494
  0
VERTEX
  8
0
 10
9.35816957
 20
8.90420150
  0
VERTEX
  8
0
 10
9.35698972
 20
8.91964536
  0
VERTEX
  8
0
 10
9.35483741
 20
8.93505796
  0
VERTEX
  8
0
 10
9.35181938
 20
8.95042075
  0
VERTEX
  8
0
 10
9.34804240
 20
8.96571518
  0
VERTEX
  8
0
 10
9.33863859
 20
8.99602476
  0
VERTEX
  8
0
 10
9.32748004
 20
9.02583829
  0
VERTEX
  8
0
 10
9.30331487
 20
9.08338360
  0
VERTEX
  8
0
 10
9.28038802
 20
9.12655749
  0
VERTEX
  8
0
 10
9.25601124
 20
9.16888166
  0
VERTEX
  8
0
 10
9.23024005
 20
9.21034579
  0
VERTEX
  8
0
 10
9.20312998
 20
9.25093960
  0
VERTEX
  8
0
 10
9.17473655
 20
9.29065278
  0
VERTEX
  8
0
 10
9.14511528
 20
9.32947502
  0
VERTEX
  8
0
 10
9.11432170
 20
9.36739601
  0
VERTEX
  8
0
 10
9.08241132
 20
9.40440547
  0
VERTEX
  8
0
 10
9.04943967
 20
9.44049308
  0
VERTEX
  8
0
 10
9.01546226
 20
9.47564854
  0
VERTEX
  8
0
 10
8.98053464
 20
9.50986156
  0
VERTEX
  8
0
 10
8.94471230
 20
9.54312181
  0
VERTEX
  8
0
 10
8.90805078
 20
9.57541901
  0
VERTEX
  8
0
 10
8.87060561
 20
9.60674285
  0
VERTEX
  8
0
 10
8.83243229
 20
9.63708302
  0
VERTEX
  8
0
 10
8.79358636
 20
9.66642923
  0
VERTEX
  8
0
 10
8.74590042
 20
9.69877041
  0
VERTEX
  8
0
 10
8.69674713
 20
9.72961915
  0
VERTEX
  8
0
 10
8.64624061
 20
9.75875983
  0
VERTEX
  8
0
 10
8.59449498
 20
9.78597686
  0
VERTEX
  8
0
 10
8.54162436
 20
9.81105461
  0
VERTEX
  8
0
 10
8.48774287
 20
9.83377748
  0
VERTEX
  8
0
 10
8.43296462
 20
9.85392985
  0
VERTEX
  8
0
 10
8.40527487
 20
9.86297472
  0
VERTEX
  8
0
 10
8.37740373
 20
9.87129612
  0
VERTEX
  8
0
 10
8.34936546
 20
9.87886708
  0
VERTEX
  8
0
 10
8.32117433
 20
9.88566066
  0
VERTEX
  8
0
 10
8.29284460
 20
9.89164992
  0
VERTEX
  8
0
 10
8.26439053
 20
9.89680788
  0
VERTEX
  8
0
 10
8.23582639
 20
9.90110762
  0
VERTEX
  8
0
 10
8.20716645
 20
9.90452216
  0
VERTEX
  8
0
 10
8.17842497
 20
9.90702457
  0
VERTEX
  8
0
 10
8.14961621
 20
9.90858789
  0
VERTEX
  8
0
 10
8.12075445
 20
9.90918516
  0
VERTEX
  8
0
 10
8.09185393
 20
9.90878945
  0
VERTEX
  8
0
 10
8.06292894
 20
9.90737379
  0
VERTEX
  8
0
 10
8.03399373
 20
9.90491124
  0
VERTEX
  8
0
 10
8.00506257
 20
9.90137484
  0
VERTEX
  8
0
 10
7.97614972
 20
9.89673764
  0
VERTEX
  8
0
 10
7.94726946
 20
9.89097269
  0
VERTEX
  8
0
 10
7.91843603
 20
9.88405305
  0
VERTEX
  8
0
 10
7.89436991
 20
9.88077307
  0
VERTEX
  8
0
 10
7.87065021
 20
9.87647173
  0
VERTEX
  8
0
 10
7.84725304
 20
9.87122094
  0
VERTEX
  8
0
 10
7.82415448
 20
9.86509261
  0
VERTEX
  8
0
 10
7.80133062
 20
9.85815865
  0
VERTEX
  8
0
 10
7.77875756
 20
9.85049099
  0
VERTEX
  8
0
 10
7.73426816
 20
9.83324219
  0
VERTEX
  8
0
 10
7.69049502
 20
9.81392151
  0
VERTEX
  8
0
 10
7.64724686
 20
9.79310426
  0
VERTEX
  8
0
 10
7.56156034
 20
9.74928131
  0
VERTEX
  8
0
 10
7.51873942
 20
9.72742622
  0
VERTEX
  8
0
 10
7.47567837
 20
9.70637581
  0
VERTEX
  8
0
 10
7.43218591
 20
9.68670538
  0
VERTEX
  8
0
 10
7.38807074
 20
9.66899024
  0
VERTEX
  8
0
 10
7.36571988
 20
9.66104569
  0
VERTEX
  8
0
 10
7.34314161
 20
9.65380570
  0
VERTEX
  8
0
 10
7.32031203
 20
9.64734219
  0
VERTEX
  8
0
 10
7.29720722
 20
9.64172707
  0
VERTEX
  8
0
 10
7.27380328
 20
9.63703226
  0
VERTEX
  8
0
 10
7.25007630
 20
9.63332967
  0
VERTEX
  8
0
 10
7.22600237
 20
9.63069121
  0
VERTEX
  8
0
 10
7.20155758
 20
9.62918879
  0
VERTEX
  8
0
 10
7.11127357
 20
9.62680937
  0
VERTEX
  8
0
 10
7.02026363
 20
9.62556073
  0
VERTEX
  8
0
 10
6.97464945
 20
9.62579655
  0
VERTEX
  8
0
 10
6.92904939
 20
9.62683836
  0
VERTEX
  8
0
 10
6.88352866
 20
9.62886061
  0
VERTEX
  8
0
 10
6.83815247
 20
9.63203773
  0
VERTEX
  8
0
 10
6.79298601
 20
9.63654416
  0
VERTEX
  8
0
 10
6.74809449
 20
9.64255433
  0
VERTEX
  8
0
 10
6.70354311
 20
9.65024268
  0
VERTEX
  8
0
 10
6.65939707
 20
9.65978365
  0
VERTEX
  8
0
 10
6.61572158
 20
9.67135166
  0
VERTEX
  8
0
 10
6.57258184
 20
9.68512116
  0
VERTEX
  8
0
 10
6.53004305
 20
9.70126658
  0
VERTEX
  8
0
 10
6.48817041
 20
9.71996236
  0
VERTEX
  8
0
 10
6.45234200
 20
9.73843168
  0
VERTEX
  8
0
 10
6.41787911
 20
9.75873680
  0
VERTEX
  8
0
 10
6.38467946
 20
9.78072557
  0
VERTEX
  8
0
 10
6.35264077
 20
9.80424582
  0
VERTEX
  8
0
 10
6.32166076
 20
9.82914538
  0
VERTEX
  8
0
 10
6.29163715
 20
9.85527207
  0
VERTEX
  8
0
 10
6.26246765
 20
9.88247374
  0
VERTEX
  8
0
 10
6.23404999
 20
9.91059822
  0
VERTEX
  8
0
 10
6.20628189
 20
9.93949334
  0
VERTEX
  8
0
 10
6.17906106
 20
9.96900692
  0
VERTEX
  8
0
 10
6.12585211
 20
10.02928084
  0
VERTEX
  8
0
 10
6.02150116
 20
10.15055494
  0
VERTEX
  8
0
 10
6.00853332
 20
10.09714056
  0
VERTEX
  8
0
 10
5.99497400
 20
10.04312690
  0
VERTEX
  8
0
 10
5.98205710
 20
9.98867195
  0
VERTEX
  8
0
 10
5.97101654
 20
9.93393369
  0
VERTEX
  8
0
 10
5.96658547
 20
9.90650769
  0
VERTEX
  8
0
 10
5.96308620
 20
9.87907011
  0
VERTEX
  8
0
 10
5.96067295
 20
9.85164070
  0
VERTEX
  8
0
 10
5.95949998
 20
9.82423920
  0
VERTEX
  8
0
 10
5.95972152
 20
9.79688536
  0
VERTEX
  8
0
 10
5.96149180
 20
9.76959894
  0
VERTEX
  8
0
 10
5.96496507
 20
9.74239967
  0
VERTEX
  8
0
 10
5.97029555
 20
9.71530731
  0
SEQEND
  0
POLYLINE
  8
Default_Layer
 66
   1
 39
0.000000
 70
    1
  0
VERTEX
  8
0
 10
5.84577284
 20
8.66559243
  0
VERTEX
  8
0
 10
5.86876195
 20
8.63623078
  0
VERTEX
  8
0
 10
5.89323741
 20
8.60788513
  0
VERTEX
  8
0
 10
5.91912578
 20
8.58065504
  0
VERTEX
  8
0
 10
5.94635366
 20
8.55464010
  0
VERTEX
  8
0
 10
5.97484763
 20
8.52993987
  0
VERTEX
  8
0
 10
6.00453427
 20
8.50665394
  0
VERTEX
  8
0
 10
6.03534016
 20
8.48488188
  0
VERTEX
  8
0
 10
6.06719190
 20
8.46472327
  0
VERTEX
  8
0
 10
6.10001607
 20
8.44627769
  0
VERTEX
  8
0
 10
6.13373925
 20
8.42964470
  0
VERTEX
  8
0
 10
6.16828802
 20
8.41492390
  0
VERTEX
  8
0
 10
6.20358898
 20
8.40221485
  0
VERTEX
  8
0
 10
6.23956870
 20
8.39161713
  0
VERTEX
  8
0
 10
6.27615377
 20
8.38323032
  0
VERTEX
  8
0
 10
6.31327077
 20
8.37715399
  0
VERTEX
  8
0
 10
6.35084629
 20
8.37348773
  0
VERTEX
  8
0
 10
6.41393034
 20
8.36840741
  0
VERTEX
  8
0
 10
6.47694537
 20
8.36226497
  0
VERTEX
  8
0
 10
6.60293505
 20
8.34941036
  0
VERTEX
  8
0
 10
6.66599304
 20
8.34400650
  0
VERTEX
  8
0
 10
6.72914871
 20
8.34015715
  0
VERTEX
  8
0
 10
6.79244372
 20
8.33851646
  0
VERTEX
  8
0
 10
6.82415651
 20
8.33872878
  0
VERTEX
  8
0
 10
6.85591975
 20
8.33973858
  0
VERTEX
  8
0
 10
6.98536901
 20
8.34849103
  0
VERTEX
  8
0
 10
7.11486539
 20
8.35833576
  0
VERTEX
  8
0
 10
7.37399952
 20
8.37843864
  0
VERTEX
  8
0
 10
7.50363726
 20
8.38726510
  0
VERTEX
  8
0
 10
7.63332213
 20
8.39432042
  0
VERTEX
  8
0
 10
7.76305412
 20
8.39888877
  0
VERTEX
  8
0
 10
7.82793779
 20
8.40001663
  0
VERTEX
  8
0
 10
7.89283323
 20
8.40025430
  0
VERTEX
  8
0
 10
7.92762912
 20
8.39790812
  0
VERTEX
  8
0
 10
7.96187573
 20
8.39384877
  0
VERTEX
  8
0
 10
7.99556023
 20
8.38812873
  0
VERTEX
  8
0
 10
8.02866980
 20
8.38080047
  0
VERTEX
  8
0
 10
8.06119161
 20
8.37191648
  0
VERTEX
  8
0
 10
8.09311283
 20
8.36152923
  0
VERTEX
  8
0
 10
8.12442063
 20
8.34969121
  0
VERTEX
  8
0
 10
8.15510217
 20
8.33645490
  0
VERTEX
  8
0
 10
8.18514464
 20
8.32187277
  0
VERTEX
  8
0
 10
8.21453519
 20
8.30599732
  0
VERTEX
  8
0
 10
8.24326100
 20
8.28888101
  0
VERTEX
  8
0
 10
8.27130925
 20
8.27057634
  0
VERTEX
  8
0
 10
8.29866710
 20
8.25113577
  0
VERTEX
  8
0
 10
8.32532172
 20
8.23061180
  0
VERTEX
  8
0
 10
8.35126028
 20
8.20905689
  0
VERTEX
  8
0
 10
8.37646996
 20
8.18652354
  0
VERTEX
  8
0
 10
8.40093792
 20
8.16306423
  0
VERTEX
  8
0
 10
8.42465133
 20
8.13873142
  0
VERTEX
  8
0
 10
8.44759737
 20
8.11357761
  0
VERTEX
  8
0
 10
8.46976321
 20
8.08765528
  0
VERTEX
  8
0
 10
8.49113601
 20
8.06101690
  0
VERTEX
  8
0
 10
8.51170295
 20
8.03371495
  0
VERTEX
  8
0
 10
8.53145120
 20
8.00580193
  0
VERTEX
  8
0
 10
8.55036792
 20
7.97733030
  0
VERTEX
  8
0
 10
8.56844030
 20
7.94835254
  0
VERTEX
  8
0
 10
8.58565549
 20
7.91892115
  0
VERTEX
  8
0
 10
8.60200067
 20
7.88908859
  0
VERTEX
  8
0
 10
8.61746302
 20
7.85890735
  0
VERTEX
  8
0
 10
8.63202969
 20
7.82842992
  0
VERTEX
  8
0
 10
8.64568786
 20
7.79770876
  0
VERTEX
  8
0
 10
8.65842471
 20
7.76679636
  0
VERTEX
  8
0
 10
8.67022740
 20
7.73574521
  0
VERTEX
  8
0
 10
8.69121050
 20
7.76077870
  0
VERTEX
  8
0
 10
8.71125981
 20
7.78660254
  0
VERTEX
  8
0
 10
8.73040817
 20
7.81315924
  0
VERTEX
  8
0
 10
8.74868840
 20
7.84039129
  0
VERTEX
  8
0
 10
8.76613335
 20
7.86824119
  0
VERTEX
  8
0
 10
8.78277585
 20
7.89665144
  0
VERTEX
  8
0
 10
8.79864874
 20
7.92556454
  0
VERTEX
  8
0
 10
8.81378486
 20
7.95492300
  0
VERTEX
  8
0
 10
8.82821704
 20
7.98466930
  0
VERTEX
  8
0
 10
8.84197811
 20
8.01474596
  0
VERTEX
  8
0
 10
8.86761830
 20
8.07566031
  0
VERTEX
  8
0
 10
8.89096812
 20
8.13720605
  0
VERTEX
  8
0
 10
8.91229026
 20
8.19892317
  0
VERTEX
  8
0
 10
8.90241373
 20
8.22175008
  0
VERTEX
  8
0
 10
8.89179446
 20
8.24419647
  0
VERTEX
  8
0
 10
8.88047687
 20
8.26627773
  0
VERTEX
  8
0
 10
8.86850539
 20
8.28800923
  0
VERTEX
  8
0
 10
8.84277838
 20
8.33048448
  0
VERTEX
  8
0
 10
8.81496878
 20
8.37174527
  0
VERTEX
  8
0
 10
8.78543194
 20
8.41191463
  0
VERTEX
  8
0
 10
8.75452320
 20
8.45111560
  0
VERTEX
  8
0
 10
8.72259790
 20
8.48947123
  0
VERTEX
  8
0
 10
8.69001138
 20
8.52710454
  0
VERTEX
  8
0
 10
8.65398171
 20
8.56528070
  0
VERTEX
  8
0
 10
8.61635109
 20
8.60244721
  0
VERTEX
  8
0
 10
8.57717860
 20
8.63839261
  0
VERTEX
  8
0
 10
8.53652334
 20
8.67290543
  0
VERTEX
  8
0
 10
8.49444440
 20
8.70577422
  0
VERTEX
  8
0
 10
8.45100086
 20
8.73678749
  0
VERTEX
  8
0
 10
8.40625182
 20
8.76573379
  0
VERTEX
  8
0
 10
8.36025637
 20
8.79240166
  0
VERTEX
  8
0
 10
8.31307360
 20
8.81657963
  0
VERTEX
  8
0
 10
8.28905543
 20
8.82766882
  0
VERTEX
  8
0
 10
8.26476259
 20
8.83805624
  0
VERTEX
  8
0
 10
8.24020247
 20
8.84771544
  0
VERTEX
  8
0
 10
8.21538244
 20
8.85662001
  0
VERTEX
  8
0
 10
8.19030990
 20
8.86474350
  0
VERTEX
  8
0
 10
8.16499224
 20
8.87205949
  0
VERTEX
  8
0
 10
8.13943683
 20
8.87854154
  0
VERTEX
  8
0
 10
8.11365107
 20
8.88416321
  0
VERTEX
  8
0
 10
8.08764235
 20
8.88889808
  0
VERTEX
  8
0
 10
8.06141804
 20
8.89271971
  0
VERTEX
  8
0
 10
8.03498553
 20
8.89560166
  0
VERTEX
  8
0
 10
8.00835222
 20
8.89751751
  0
VERTEX
  8
0
 10
7.98152548
 20
8.89844083
  0
VERTEX
  8
0
 10
7.95451271
 20
8.89834517
  0
VERTEX
  8
0
 10
7.87239942
 20
8.88869271
  0
VERTEX
  8
0
 10
7.79029668
 20
8.87818458
  0
VERTEX
  8
0
 10
7.62607999
 20
8.85562322
  0
VERTEX
  8
0
 10
7.46177697
 20
8.83270499
  0
VERTEX
  8
0
 10
7.37956631
 20
8.82175075
  0
VERTEX
  8
0
 10
7.29730195
 20
8.81147374
  0
VERTEX
  8
0
 10
7.21497316
 20
8.80212946
  0
VERTEX
  8
0
 10
7.13256925
 20
8.79397338
  0
VERTEX
  8
0
 10
7.05007950
 20
8.78726098
  0
VERTEX
  8
0
 10
6.96749321
 20
8.78224776
  0
VERTEX
  8
0
 10
6.88479966
 20
8.77918920
  0
VERTEX
  8
0
 10
6.80198815
 20
8.77834079
  0
VERTEX
  8
0
 10
6.71904797
 20
8.77995800
  0
VERTEX
  8
0
 10
6.63596841
 20
8.78429633
  0
VERTEX
  8
0
 10
6.60800547
 20
8.78764039
  0
VERTEX
  8
0
 10
6.58025103
 20
8.79184109
  0
VERTEX
  8
0
 10
6.55271518
 20
8.79688198
  0
VERTEX
  8
0
 10
6.52540802
 20
8.80274662
  0
VERTEX
  8
0
 10
6.49833965
 20
8.80941859
  0
VERTEX
  8
0
 10
6.47152016
 20
8.81688144
  0
VERTEX
  8
0
 10
6.44495966
 20
8.82511875
  0
VERTEX
  8
0
 10
6.41866823
 20
8.83411406
  0
VERTEX
  8
0
 10
6.39265598
 20
8.84385096
  0
VERTEX
  8
0
 10
6.36693301
 20
8.85431299
  0
VERTEX
  8
0
 10
6.34150940
 20
8.86548374
  0
VERTEX
  8
0
 10
6.31639526
 20
8.87734675
  0
VERTEX
  8
0
 10
6.26713579
 20
8.90308385
  0
VERTEX
  8
0
 10
6.21923535
 20
8.93139280
  0
VERTEX
  8
0
 10
6.17277474
 20
8.96214212
  0
VERTEX
  8
0
 10
6.12783473
 20
8.99520033
  0
VERTEX
  8
0
 10
6.08449610
 20
9.03043593
  0
VERTEX
  8
0
 10
6.04283962
 20
9.06771745
  0
VERTEX
  8
0
 10
6.00294609
 20
9.10691338
  0
VERTEX
  8
0
 10
5.96489628
 20
9.14789226
  0
VERTEX
  8
0
 10
5.92877096
 20
9.19052259
  0
VERTEX
  8
0
 10
5.89465091
 20
9.23467289
  0
VERTEX
  8
0
 10
5.88884703
 20
9.16333324
  0
VERTEX
  8
0
 10
5.88091879
 20
9.09202385
  0
VERTEX
  8
0
 10
5.86276316
 20
8.94955223
  0
VERTEX
  8
0
 10
5.85457274
 20
8.87841820
  0
VERTEX
  8
0
 10
5.84833189
 20
8.80737083
  0
VERTEX
  8
0
 10
5.84626083
 20
8.77188404
  0
VERTEX
  8
0
 10
5.84505910
 20
8.73642420
  0
VERTEX
  8
0
 10
5.84485399
 20
8.70099308
  0
VERTEX
  8
0
 10
5.84577284
 20
8.66559243
  0
SEQEND
  0
POLYLINE
  8
Default_Layer
 66
   1
 39
0.000000
 70
    1
  0
VERTEX
  8
0
 10
10.30764297
 20
8.02203108
  0
VERTEX
  8
0
 10
10.26257119
 20
8.01053964
  0
VERTEX
  8
0
 10
10.21779233
 20
7.99782859
  0
VERTEX
  8
0
 10
10.17324707
 20
7.98414887
  0
VERTEX
  8
0
 10
10.12887612
 20
7.96975141
  0
VERTEX
  8
0
 10
10.04041998
 20
7.93980700
  0
VERTEX
  8
0
 10
9.95194952
 20
7.91000282
  0
VERTEX
  8
0
 10
9.90756068
 20
7.89578065
  0
VERTEX
  8
0
 10
9.86299037
 20
7.88234633
  0
VERTEX
  8
0
 10
9.81817929
 20
7.86995080
  0
VERTEX
  8
0
 10
9.77306814
 20
7.85884499
  0
VERTEX
  8
0
 10
9.72759764
 20
7.84927983
  0
VERTEX
  8
0
 10
9.68170847
 20
7.84150626
  0
VERTEX
  8
0
 10
9.63534135
 20
7.83577520
  0
VERTEX
  8
0
 10
9.58843698
 20
7.83233760
  0
VERTEX
  8
0
 10
9.56286915
 20
7.83017477
  0
VERTEX
  8
0
 10
9.53730285
 20
7.82879995
  0
VERTEX
  8
0
 10
9.48621107
 20
7.82831030
  0
VERTEX
  8
0
 10
9.43523416
 20
7.83066050
  0
VERTEX
  8
0
 10
9.38444465
 20
7.83564241
  0
VERTEX
  8
0
 10
9.33391505
 20
7.84304789
  0
VERTEX
  8
0
 10
9.28371790
 20
7.85266881
  0
VERTEX
  8
0
 10
9.23392569
 20
7.86429702
  0
VERTEX
  8
0
 10
9.18461097
 20
7.87772438
  0
VERTEX
  8
0
 10
9.11973807
 20
7.77987658
  0
VERTEX
  8
0
 10
9.05543320
 20
7.68221208
  0
VERTEX
  8
0
 10
9.09805877
 20
7.65592149
  0
VERTEX
  8
0
 10
9.14212042
 20
7.63210026
  0
VERTEX
  8
0
 10
9.16465359
 20
7.62120862
  0
VERTEX
  8
0
 10
9.18750237
 20
7.61104588
  0
VERTEX
  8
0
 10
9.21065228
 20
7.60164923
  0
VERTEX
  8
0
 10
9.23408886
 20
7.59305586
  0
VERTEX
  8
0
 10
9.25779764
 20
7.58530295
  0
VERTEX
  8
0
 10
9.28176415
 20
7.57842770
  0
VERTEX
  8
0
 10
9.30597391
 20
7.57246728
  0
VERTEX
  8
0
 10
9.33041245
 20
7.56745889
  0
VERTEX
  8
0
 10
9.35506532
 20
7.56343972
  0
VERTEX
  8
0
 10
9.37991803
 20
7.56044695
  0
VERTEX
  8
0
 10
9.40495612
 20
7.55851776
  0
VERTEX
  8
0
 10
9.43016512
 20
7.55768936
  0
VERTEX
  8
0
 10
9.46843311
 20
7.55467388
  0
VERTEX
  8
0
 10
9.50666299
 20
7.55311911
  0
VERTEX
  8
0
 10
9.54485663
 20
7.55291086
  0
VERTEX
  8
0
 10
9.58301591
 20
7.55393496
  0
VERTEX
  8
0
 10
9.62114270
 20
7.55607723
  0
VERTEX
  8
0
 10
9.65923888
 20
7.55922348
  0
VERTEX
  8
0
 10
9.69730633
 20
7.56325954
  0
VERTEX
  8
0
 10
9.73534690
 20
7.56807122
  0
VERTEX
  8
0
 10
9.81135496
 20
7.57956473
  0
VERTEX
  8
0
 10
9.88727805
 20
7.59279057
  0
VERTEX
  8
0
 10
10.03892930
 20
7.62078544
  0
VERTEX
  8
0
 10
10.11468745
 20
7.63372758
  0
VERTEX
  8
0
 10
10.19042061
 20
7.64474827
  0
VERTEX
  8
0
 10
10.22828250
 20
7.64925261
  0
VERTEX
  8
0
 10
10.26614377
 20
7.65293405
  0
VERTEX
  8
0
 10
10.30400629
 20
7.65567840
  0
VERTEX
  8
0
 10
10.34187193
 20
7.65737149
  0
VERTEX
  8
0
 10
10.37974257
 20
7.65789912
  0
VERTEX
  8
0
 10
10.41762009
 20
7.65714713
  0
VERTEX
  8
0
 10
10.45550635
 20
7.65500132
  0
VERTEX
  8
0
 10
10.49340323
 20
7.65134753
  0
VERTEX
  8
0
 10
10.53131260
 20
7.64607157
  0
VERTEX
  8
0
 10
10.56923635
 20
7.63905925
  0
VERTEX
  8
0
 10
10.60717634
 20
7.63019640
  0
VERTEX
  8
0
 10
10.64513445
 20
7.61936883
  0
VERTEX
  8
0
 10
10.67700576
 20
7.60999786
  0
VERTEX
  8
0
 10
10.70769583
 20
7.59855425
  0
VERTEX
  8
0
 10
10.73723296
 20
7.58516178
  0
VERTEX
  8
0
 10
10.76564546
 20
7.56994421
  0
VERTEX
  8
0
 10
10.79296162
 20
7.55302528
  0
VERTEX
  8
0
 10
10.81920976
 20
7.53452877
  0
VERTEX
  8
0
 10
10.84441818
 20
7.51457844
  0
VERTEX
  8
0
 10
10.86861518
 20
7.49329803
  0
VERTEX
  8
0
 10
10.89182906
 20
7.47081133
  0
VERTEX
  8
0
 10
10.91408813
 20
7.44724208
  0
VERTEX
  8
0
 10
10.93542069
 20
7.42271404
  0
VERTEX
  8
0
 10
10.95585505
 20
7.39735098
  0
VERTEX
  8
0
 10
10.97541950
 20
7.37127665
  0
VERTEX
  8
0
 10
10.99414235
 20
7.34461483
  0
VERTEX
  8
0
 10
11.01205191
 20
7.31748925
  0
VERTEX
  8
0
 10
11.02917648
 20
7.29002370
  0
VERTEX
  8
0
 10
11.07187708
 20
7.33179932
  0
VERTEX
  8
0
 10
11.11519408
 20
7.37323702
  0
VERTEX
  8
0
 10
11.15847565
 20
7.41483460
  0
VERTEX
  8
0
 10
11.20106999
 20
7.45708988
  0
VERTEX
  8
0
 10
11.24232531
 20
7.50050067
  0
VERTEX
  8
0
 10
11.26224714
 20
7.52279494
  0
VERTEX
  8
0
 10
11.28158979
 20
7.54556476
  0
VERTEX
  8
0
 10
11.30027178
 20
7.56887236
  0
VERTEX
  8
0
 10
11.31821163
 20
7.59277997
  0
VERTEX
  8
0
 10
11.33532787
 20
7.61734981
  0
VERTEX
  8
0
 10
11.35153903
 20
7.64264411
  0
VERTEX
  8
0
 10
11.35495467
 20
7.65873218
  0
VERTEX
  8
0
 10
11.35723114
 20
7.67501574
  0
VERTEX
  8
0
 10
11.35842143
 20
7.69144837
  0
VERTEX
  8
0
 10
11.35857855
 20
7.70798362
  0
VERTEX
  8
0
 10
11.35775551
 20
7.72457506
  0
VERTEX
  8
0
 10
11.35600530
 20
7.74117626
  0
VERTEX
  8
0
 10
11.35338092
 20
7.75774076
  0
VERTEX
  8
0
 10
11.34993539
 20
7.77422215
  0
VERTEX
  8
0
 10
11.34079285
 20
7.80674980
  0
VERTEX
  8
0
 10
11.32900171
 20
7.83838771
  0
VERTEX
  8
0
 10
11.31498597
 20
7.86876440
  0
VERTEX
  8
0
 10
11.29916966
 20
7.89750837
  0
VERTEX
  8
0
 10
11.27862226
 20
7.91535026
  0
VERTEX
  8
0
 10
11.25714339
 20
7.93170856
  0
VERTEX
  8
0
 10
11.23481523
 20
7.94669067
  0
VERTEX
  8
0
 10
11.21171996
 20
7.96040398
  0
VERTEX
  8
0
 10
11.18793975
 20
7.97295588
  0
VERTEX
  8
0
 10
11.16355678
 20
7.98445379
  0
VERTEX
  8
0
 10
11.13865322
 20
7.99500509
  0
VERTEX
  8
0
 10
11.11331125
 20
8.00471719
  0
VERTEX
  8
0
 10
11.06164079
 20
8.02205336
  0
VERTEX
  8
0
 10
11.00920278
 20
8.03732148
  0
VERTEX
  8
0
 10
10.90465376
 20
8.06509034
  0
VERTEX
  8
0
 10
10.86742105
 20
8.07384497
  0
VERTEX
  8
0
 10
10.83007021
 20
8.08033676
  0
VERTEX
  8
0
 10
10.79262427
 20
8.08472357
  0
VERTEX
  8
0
 10
10.75510622
 20
8.08716328
  0
VERTEX
  8
0
 10
10.71753909
 20
8.08781375
  0
VERTEX
  8
0
 10
10.67994588
 20
8.08683287
  0
VERTEX
  8
0
 10
10.64234962
 20
8.08437849
  0
VERTEX
  8
0
 10
10.60477332
 20
8.08060851
  0
VERTEX
  8
0
 10
10.56723998
 20
8.07568077
  0
VERTEX
  8
0
 10
10.52977263
 20
8.06975317
  0
VERTEX
  8
0
 10
10.45512794
 20
8.05552984
  0
VERTEX
  8
0
 10
10.38102334
 20
8.03920149
  0
VERTEX
  8
0
 10
10.30764297
 20
8.02203108
  0
SEQEND
  0
POLYLINE
  8
Default_Layer
 66
   1
 39
0.000000
 70
    1
  0
VERTEX
  8
0
 10
5.80736863
 20
8.09651196
  0
VERTEX
  8
0
 10
5.80572223
 20
8.02903075
  0
VERTEX
  8
0
 10
5.80264819
 20
7.96147438
  0
VERTEX
  8
0
 10
5.79551452
 20
7.82627674
  0
VERTEX
  8
0
 10
5.79310355
 20
7.75870574
  0
VERTEX
  8
0
 10
5.79256226
 20
7.69120013
  0
VERTEX
  8
0
 10
5.79325035
 20
7.65748282
  0
VERTEX
  8
0
 10
5.79471498
 20
7.62379503
  0
VERTEX
  8
0
 10
5.79705920
 20
7.59014116
  0
VERTEX
  8
0
 10
5.80038605
 20
7.55652559
  0
VERTEX
  8
0
 10
5.81889690
 20
7.54215692
  0
VERTEX
  8
0
 10
5.83784973
 20
7.52865551
  0
VERTEX
  8
0
 10
5.85722380
 20
7.51599614
  0
VERTEX
  8
0
 10
5.87699838
 20
7.50415356
  0
VERTEX
  8
0
 10
5.89715274
 20
7.49310255
  0
VERTEX
  8
0
 10
5.91766614
 20
7.48281788
  0
VERTEX
  8
0
 10
5.93851786
 20
7.47327432
  0
VERTEX
  8
0
 10
5.95968715
 20
7.46444663
  0
VERTEX
  8
0
 10
6.00289554
 20
7.44883797
  0
VERTEX
  8
0
 10
6.04712544
 20
7.43579004
  0
VERTEX
  8
0
 10
6.09221100
 20
7.42510100
  0
VERTEX
  8
0
 10
6.13798636
 20
7.41656901
  0
VERTEX
  8
0
 10
6.18428564
 20
7.40999221
  0
VERTEX
  8
0
 10
6.23094299
 20
7.40516877
  0
VERTEX
  8
0
 10
6.27779255
 20
7.40189682
  0
VERTEX
  8
0
 10
6.32466844
 20
7.39997454
  0
VERTEX
  8
0
 10
6.37140481
 20
7.39920006
  0
VERTEX
  8
0
 10
6.41783580
 20
7.39937154
  0
VERTEX
  8
0
 10
6.50911816
 20
7.40174502
  0
VERTEX
  8
0
 10
6.56589153
 20
7.40866444
  0
VERTEX
  8
0
 10
6.62273155
 20
7.41453433
  0
VERTEX
  8
0
 10
6.67963111
 20
7.41943802
  0
VERTEX
  8
0
 10
6.73658310
 20
7.42345880
  0
VERTEX
  8
0
 10
6.85061595
 20
7.42918489
  0
VERTEX
  8
0
 10
6.96477322
 20
7.43237909
  0
VERTEX
  8
0
 10
7.07899803
 20
7.43370788
  0
VERTEX
  8
0
 10
7.19323350
 20
7.43383775
  0
VERTEX
  8
0
 10
7.42150892
 20
7.43316664
  0
VERTEX
  8
0
 10
7.46718297
 20
7.43232336
  0
VERTEX
  8
0
 10
7.51266892
 20
7.42903437
  0
VERTEX
  8
0
 10
7.55787627
 20
7.42336362
  0
VERTEX
  8
0
 10
7.60271449
 20
7.41537508
  0
VERTEX
  8
0
 10
7.64709309
 20
7.40513273
  0
VERTEX
  8
0
 10
7.69092154
 20
7.39270052
  0
VERTEX
  8
0
 10
7.73410933
 20
7.37814243
  0
VERTEX
  8
0
 10
7.77656596
 20
7.36152243
  0
VERTEX
  8
0
 10
7.81820091
 20
7.34290449
  0
VERTEX
  8
0
 10
7.85892366
 20
7.32235256
  0
VERTEX
  8
0
 10
7.89864371
 20
7.29993063
  0
VERTEX
  8
0
 10
7.93727054
 20
7.27570265
  0
VERTEX
  8
0
 10
7.97471364
 20
7.24973260
  0
VERTEX
  8
0
 10
8.01088249
 20
7.22208445
  0
VERTEX
  8
0
 10
8.04568659
 20
7.19282215
  0
VERTEX
  8
0
 10
8.07903543
 20
7.16200969
  0
VERTEX
  8
0
 10
8.09899917
 20
7.14223868
  0
VERTEX
  8
0
 10
8.11785184
 20
7.12164783
  0
VERTEX
  8
0
 10
8.13568092
 20
7.10030647
  0
VERTEX
  8
0
 10
8.15257389
 20
7.07828390
  0
VERTEX
  8
0
 10
8.16861824
 20
7.05564947
  0
VERTEX
  8
0
 10
8.18390144
 20
7.03247249
  0
VERTEX
  8
0
 10
8.21253430
 20
6.98476820
  0
VERTEX
  8
0
 10
8.23917232
 20
6.93572561
  0
VERTEX
  8
0
 10
8.26451534
 20
6.88589932
  0
VERTEX
  8
0
 10
8.31411570
 20
6.78611401
  0
VERTEX
  8
0
 10
8.33967543
 20
6.83195048
  0
VERTEX
  8
0
 10
8.36378729
 20
6.87868975
  0
VERTEX
  8
0
 10
8.38628777
 20
6.92629415
  0
VERTEX
  8
0
 10
8.40701334
 20
6.97472602
  0
VERTEX
  8
0
 10
8.42580050
 20
7.02394770
  0
VERTEX
  8
0
 10
8.44248572
 20
7.07392150
  0
VERTEX
  8
0
 10
8.45690549
 20
7.12460978
  0
VERTEX
  8
0
 10
8.46889628
 20
7.17597485
  0
VERTEX
  8
0
 10
8.47126848
 20
7.18755579
  0
VERTEX
  8
0
 10
8.47254612
 20
7.19904443
  0
VERTEX
  8
0
 10
8.47281283
 20
7.21043931
  0
VERTEX
  8
0
 10
8.47215227
 20
7.22173898
  0
VERTEX
  8
0
 10
8.47064808
 20
7.23294197
  0
VERTEX
  8
0
 10
8.46838392
 20
7.24404682
  0
VERTEX
  8
0
 10
8.46191023
 20
7.26595624
  0
VERTEX
  8
0
 10
8.45340039
 20
7.28745553
  0
VERTEX
  8
0
 10
8.44352358
 20
7.30853300
  0
VERTEX
  8
0
 10
8.42234573
 20
7.34937565
  0
VERTEX
  8
0
 10
8.39265548
 20
7.39940992
  0
VERTEX
  8
0
 10
8.36042929
 20
7.44793359
  0
VERTEX
  8
0
 10
8.32577667
 20
7.49483830
  0
VERTEX
  8
0
 10
8.28880709
 20
7.54001573
  0
VERTEX
  8
0
 10
8.24963004
 20
7.58335754
  0
VERTEX
  8
0
 10
8.20835502
 20
7.62475540
  0
VERTEX
  8
0
 10
8.16509151
 20
7.66410096
  0
VERTEX
  8
0
 10
8.11994900
 20
7.70128589
  0
VERTEX
  8
0
 10
8.07303697
 20
7.73620185
  0
VERTEX
  8
0
 10
8.02446493
 20
7.76874051
  0
VERTEX
  8
0
 10
7.97434234
 20
7.79879353
  0
VERTEX
  8
0
 10
7.92277872
 20
7.82625257
  0
VERTEX
  8
0
 10
7.89649072
 20
7.83897549
  0
VERTEX
  8
0
 10
7.86988353
 20
7.85100930
  0
VERTEX
  8
0
 10
7.84297082
 20
7.86234044
  0
VERTEX
  8
0
 10
7.81576627
 20
7.87295538
  0
VERTEX
  8
0
 10
7.78828359
 20
7.88284057
  0
VERTEX
  8
0
 10
7.76053644
 20
7.89198247
  0
VERTEX
  8
0
 10
7.73253852
 20
7.90036754
  0
VERTEX
  8
0
 10
7.70430351
 20
7.90798224
  0
VERTEX
  8
0
 10
7.65699917
 20
7.91651440
  0
VERTEX
  8
0
 10
7.60968201
 20
7.92323761
  0
VERTEX
  8
0
 10
7.56235278
 20
7.92827373
  0
VERTEX
  8
0
 10
7.51501222
 20
7.93174461
  0
VERTEX
  8
0
 10
7.46766110
 20
7.93377211
  0
VERTEX
  8
0
 10
7.42030014
 20
7.93447810
  0
VERTEX
  8
0
 10
7.37293011
 20
7.93398444
  0
VERTEX
  8
0
 10
7.32555175
 20
7.93241299
  0
VERTEX
  8
0
 10
7.27816581
 20
7.92988561
  0
VERTEX
  8
0
 10
7.23077304
 20
7.92652416
  0
VERTEX
  8
0
 10
7.13597000
 20
7.91778648
  0
VERTEX
  8
0
 10
7.04114862
 20
7.90717485
  0
VERTEX
  8
0
 10
6.94631489
 20
7.89566415
  0
VERTEX
  8
0
 10
6.85147481
 20
7.88422926
  0
VERTEX
  8
0
 10
6.75663436
 20
7.87384508
  0
VERTEX
  8
0
 10
6.66179953
 20
7.86548648
  0
VERTEX
  8
0
 10
6.61438610
 20
7.86237143
  0
VERTEX
  8
0
 10
6.56697631
 20
7.86012835
  0
VERTEX
  8
0
 10
6.51957093
 20
7.85887912
  0
VERTEX
  8
0
 10
6.47217070
 20
7.85874558
  0
VERTEX
  8
0
 10
6.42477637
 20
7.85984961
  0
VERTEX
  8
0
 10
6.37738868
 20
7.86231305
  0
VERTEX
  8
0
 10
6.33000839
 20
7.86625778
  0
VERTEX
  8
0
 10
6.28263624
 20
7.87180565
  0
VERTEX
  8
0
 10
6.23527298
 20
7.87907852
  0
VERTEX
  8
0
 10
6.18791937
 20
7.88819826
  0
VERTEX
  8
0
 10
6.16119731
 20
7.89494787
  0
VERTEX
  8
0
 10
6.13505190
 20
7.90302967
  0
VERTEX
  8
0
 10
6.10944350
 20
7.91233735
  0
VERTEX
  8
0
 10
6.08433248
 20
7.92276456
  0
VERTEX
  8
0
 10
6.05967920
 20
7.93420498
  0
VERTEX
  8
0
 10
6.03544403
 20
7.94655229
  0
VERTEX
  8
0
 10
6.01158734
 20
7.95970015
  0
VERTEX
  8
0
 10
5.98806949
 20
7.97354224
  0
VERTEX
  8
0
 10
5.94189175
 20
8.00288381
  0
VERTEX
  8
0
 10
5.89659375
 20
8.03372636
  0
VERTEX
  8
0
 10
5.80736863
 20
8.09651196
  0
SEQEND
  0
POLYLINE
  8
Default_Layer
 66
   1
 39
0.000000
 70
    1
  0
VERTEX
  8
0
 10
8.88319616
 20
7.38196103
  0
VERTEX
  8
0
 10
8.83060831
 20
7.26453617
  0
VERTEX
  8
0
 10
8.77729366
 20
7.14804453
  0
VERTEX
  8
0
 10
8.81691444
 20
7.12358395
  0
VERTEX
  8
0
 10
8.85723142
 20
7.09986062
  0
VERTEX
  8
0
 10
8.87785365
 20
7.08884576
  0
VERTEX
  8
0
 10
8.89889313
 20
7.07869961
  0
VERTEX
  8
0
 10
8.92043093
 20
7.06965032
  0
VERTEX
  8
0
 10
8.94254811
 20
7.06192601
  0
VERTEX
  8
0
 10
8.97703723
 20
7.05357541
  0
VERTEX
  8
0
 10
9.01165006
 20
7.04675385
  0
VERTEX
  8
0
 10
9.04637696
 20
7.04135058
  0
VERTEX
  8
0
 10
9.08120831
 20
7.03725484
  0
VERTEX
  8
0
 10
9.11613446
 20
7.03435586
  0
VERTEX
  8
0
 10
9.15114577
 20
7.03254289
  0
VERTEX
  8
0
 10
9.18623262
 20
7.03170515
  0
VERTEX
  8
0
 10
9.22138535
 20
7.03173190
  0
VERTEX
  8
0
 10
9.29184995
 20
7.03393579
  0
VERTEX
  8
0
 10
9.36246246
 20
7.03826845
  0
VERTEX
  8
0
 10
9.50382283
 20
7.04977576
  0
VERTEX
  8
0
 10
9.57441650
 20
7.05517822
  0
VERTEX
  8
0
 10
9.64484969
 20
7.05916509
  0
VERTEX
  8
0
 10
9.71504531
 20
7.06085028
  0
VERTEX
  8
0
 10
9.75002993
 20
7.06055284
  0
VERTEX
  8
0
 10
9.78492625
 20
7.05934770
  0
VERTEX
  8
0
 10
9.81972462
 20
7.05712409
  0
VERTEX
  8
0
 10
9.85441542
 20
7.05377126
  0
VERTEX
  8
0
 10
9.88898899
 20
7.04917843
  0
VERTEX
  8
0
 10
9.92343571
 20
7.04323486
  0
VERTEX
  8
0
 10
9.95774594
 20
7.03582977
  0
VERTEX
  8
0
 10
9.99191004
 20
7.02685241
  0
VERTEX
  8
0
 10
10.02591837
 20
7.01619201
  0
VERTEX
  8
0
 10
10.05976129
 20
7.00373782
  0
VERTEX
  8
0
 10
10.09641272
 20
6.98846589
  0
VERTEX
  8
0
 10
10.13155898
 20
6.97096534
  0
VERTEX
  8
0
 10
10.16524224
 20
6.95137490
  0
VERTEX
  8
0
 10
10.19750471
 20
6.92983335
  0
VERTEX
  8
0
 10
10.22838857
 20
6.90647942
  0
VERTEX
  8
0
 10
10.25793602
 20
6.88145189
  0
VERTEX
  8
0
 10
10.28618925
 20
6.85488950
  0
VERTEX
  8
0
 10
10.31319045
 20
6.82693101
  0
VERTEX
  8
0
 10
10.33898182
 20
6.79771517
  0
VERTEX
  8
0
 10
10.36360554
 20
6.76738074
  0
VERTEX
  8
0
 10
10.38710381
 20
6.73606647
  0
VERTEX
  8
0
 10
10.40951882
 20
6.70391112
  0
VERTEX
  8
0
 10
10.43089276
 20
6.67105343
  0
VERTEX
  8
0
 10
10.45126783
 20
6.63763217
  0
VERTEX
  8
0
 10
10.47068621
 20
6.60378610
  0
VERTEX
  8
0
 10
10.48919011
 20
6.56965395
  0
VERTEX
  8
0
 10
10.50578625
 20
6.59594498
  0
VERTEX
  8
0
 10
10.52315629
 20
6.62173597
  0
VERTEX
  8
0
 10
10.55970291
 20
6.67214283
  0
VERTEX
  8
0
 10
10.59779969
 20
6.72152457
  0
VERTEX
  8
0
 10
10.63641633
 20
6.77053121
  0
VERTEX
  8
0
 10
10.67452256
 20
6.81981279
  0
VERTEX
  8
0
 10
10.71108810
 20
6.87001935
  0
VERTEX
  8
0
 10
10.72847115
 20
6.89567262
  0
VERTEX
  8
0
 10
10.74508267
 20
6.92180090
  0
VERTEX
  8
0
 10
10.76079388
 20
6.94848544
  0
VERTEX
  8
0
 10
10.77547598
 20
6.97580749
  0
VERTEX
  8
0
 10
10.76514895
 20
7.00345635
  0
VERTEX
  8
0
 10
10.75252324
 20
7.02973274
  0
VERTEX
  8
0
 10
10.73779214
 20
7.05471021
  0
VERTEX
  8
0
 10
10.72114892
 20
7.07846231
  0
VERTEX
  8
0
 10
10.70278688
 20
7.10106258
  0
VERTEX
  8
0
 10
10.68289928
 20
7.12258456
  0
VERTEX
  8
0
 10
10.66167941
 20
7.14310181
  0
VERTEX
  8
0
 10
10.63932054
 20
7.16268786
  0
VERTEX
  8
0
 10
10.61601597
 20
7.18141626
  0
VERTEX
  8
0
 10
10.59195897
 20
7.19936056
  0
VERTEX
  8
0
 10
10.56734281
 20
7.21659431
  0
VERTEX
  8
0
 10
10.54236078
 20
7.23319104
  0
VERTEX
  8
0
 10
10.49207223
 20
7.26476765
  0
VERTEX
  8
0
 10
10.44263956
 20
7.29467875
  0
VERTEX
  8
0
 10
10.41530093
 20
7.31016559
  0
VERTEX
  8
0
 10
10.38733839
 20
7.32364916
  0
VERTEX
  8
0
 10
10.35881056
 20
7.33525135
  0
VERTEX
  8
0
 10
10.32977601
 20
7.34509401
  0
VERTEX
  8
0
 10
10.30029337
 20
7.35329903
  0
VERTEX
  8
0
 10
10.27042121
 20
7.35998826
  0
VERTEX
  8
0
 10
10.24021816
 20
7.36528357
  0
VERTEX
  8
0
 10
10.20974280
 20
7.36930683
  0
VERTEX
  8
0
 10
10.17905373
 20
7.37217992
  0
VERTEX
  8
0
 10
10.14820956
 20
7.37402469
  0
VERTEX
  8
0
 10
10.11726888
 20
7.37496302
  0
VERTEX
  8
0
 10
10.08629030
 20
7.37511678
  0
VERTEX
  8
0
 10
10.02445381
 20
7.37355803
  0
VERTEX
  8
0
 10
9.96316890
 20
7.37032340
  0
VERTEX
  8
0
 10
9.92731674
 20
7.36808614
  0
VERTEX
  8
0
 10
9.89177992
 20
7.36395010
  0
VERTEX
  8
0
 10
9.85650938
 20
7.35820944
  0
VERTEX
  8
0
 10
9.82145607
 20
7.35115831
  0
VERTEX
  8
0
 10
9.78657095
 20
7.34309089
  0
VERTEX
  8
0
 10
9.75180498
 20
7.33430132
  0
VERTEX
  8
0
 10
9.68243425
 20
7.31573242
  0
VERTEX
  8
0
 10
9.61295150
 20
7.29780489
  0
VERTEX
  8
0
 10
9.57804550
 20
7.28981705
  0
VERTEX
  8
0
 10
9.54296435
 20
7.28287204
  0
VERTEX
  8
0
 10
9.50765899
 20
7.27726401
  0
VERTEX
  8
0
 10
9.47208039
 20
7.27328713
  0
VERTEX
  8
0
 10
9.43617950
 20
7.27123557
  0
VERTEX
  8
0
 10
9.39990726
 20
7.27140348
  0
VERTEX
  8
0
 10
9.36636814
 20
7.27043259
  0
VERTEX
  8
0
 10
9.33302210
 20
7.27102628
  0
VERTEX
  8
0
 10
9.29986333
 20
7.27307444
  0
VERTEX
  8
0
 10
9.26688600
 20
7.27646697
  0
VERTEX
  8
0
 10
9.23408431
 20
7.28109377
  0
VERTEX
  8
0
 10
9.20145246
 20
7.28684473
  0
VERTEX
  8
0
 10
9.16898462
 20
7.29360976
  0
VERTEX
  8
0
 10
9.13667499
 20
7.30127875
  0
VERTEX
  8
0
 10
9.07250711
 20
7.31888821
  0
VERTEX
  8
0
 10
9.00890234
 20
7.33879228
  0
VERTEX
  8
0
 10
8.94581419
 20
7.36011017
  0
VERTEX
  8
0
 10
8.88319616
 20
7.38196103
  0
SEQEND
  0
POLYLINE
  8
Default_Layer
 66
   1
 39
0.000000
 70
    1
  0
VERTEX
  8
0
 10
5.74801668
 20
6.99559148
  0
VERTEX
  8
0
 10
5.74383451
 20
6.88010458
  0
VERTEX
  8
0
 10
5.74060434
 20
6.76449661
  0
VERTEX
  8
0
 10
5.74002509
 20
6.70669878
  0
VERTEX
  8
0
 10
5.74049845
 20
6.64893253
  0
VERTEX
  8
0
 10
5.74229596
 20
6.59121849
  0
VERTEX
  8
0
 10
5.74568916
 20
6.53357728
  0
VERTEX
  8
0
 10
5.74803281
 20
6.51862366
  0
VERTEX
  8
0
 10
5.75148750
 20
6.50315855
  0
VERTEX
  8
0
 10
5.75624356
 20
6.48772436
  0
VERTEX
  8
0
 10
5.76249127
 20
6.47286352
  0
VERTEX
  8
0
 10
5.77042095
 20
6.45911847
  0
VERTEX
  8
0
 10
5.78022291
 20
6.44703163
  0
VERTEX
  8
0
 10
5.78588546
 20
6.44177955
  0
VERTEX
  8
0
 10
5.79208744
 20
6.43714543
  0
VERTEX
  8
0
 10
5.79885265
 20
6.43319708
  0
VERTEX
  8
0
 10
5.80620487
 20
6.43000231
  0
VERTEX
  8
0
 10
5.83237387
 20
6.42014982
  0
VERTEX
  8
0
 10
5.85888444
 20
6.41106605
  0
VERTEX
  8
0
 10
5.88570334
 20
6.40278674
  0
VERTEX
  8
0
 10
5.91279729
 20
6.39534761
  0
VERTEX
  8
0
 10
5.94013303
 20
6.38878437
  0
VERTEX
  8
0
 10
5.96767729
 20
6.38313276
  0
VERTEX
  8
0
 10
5.99539683
 20
6.37842851
  0
VERTEX
  8
0
 10
6.02325837
 20
6.37470732
  0
VERTEX
  8
0
 10
6.05122865
 20
6.37200494
  0
VERTEX
  8
0
 10
6.07927441
 20
6.37035708
  0
VERTEX
  8
0
 10
6.10736239
 20
6.36979947
  0
VERTEX
  8
0
 10
6.13545932
 20
6.37036783
  0
VERTEX
  8
0
 10
6.16353194
 20
6.37209790
  0
VERTEX
  8
0
 10
6.19154699
 20
6.37502538
  0
VERTEX
  8
0
 10
6.21947120
 20
6.37918601
  0
VERTEX
  8
0
 10
6.24727132
 20
6.38461552
  0
VERTEX
  8
0
 10
6.37582937
 20
6.40986311
  0
VERTEX
  8
0
 10
6.50515983
 20
6.43350183
  0
VERTEX
  8
0
 10
6.57007365
 20
6.44436167
  0
VERTEX
  8
0
 10
6.63513129
 20
6.45439184
  0
VERTEX
  8
0
 10
6.70031632
 20
6.46344988
  0
VERTEX
  8
0
 10
6.76561231
 20
6.47139329
  0
VERTEX
  8
0
 10
6.83100284
 20
6.47807961
  0
VERTEX
  8
0
 10
6.89647148
 20
6.48336634
  0
VERTEX
  8
0
 10
6.96200180
 20
6.48711101
  0
VERTEX
  8
0
 10
7.02757737
 20
6.48917114
  0
VERTEX
  8
0
 10
7.09318177
 20
6.48940425
  0
VERTEX
  8
0
 10
7.15879856
 20
6.48766785
  0
VERTEX
  8
0
 10
7.22441132
 20
6.48381947
  0
VERTEX
  8
0
 10
7.29000362
 20
6.47771662
  0
VERTEX
  8
0
 10
7.32020989
 20
6.47332660
  0
VERTEX
  8
0
 10
7.35009315
 20
6.46797575
  0
VERTEX
  8
0
 10
7.37965224
 20
6.46168924
  0
VERTEX
  8
0
 10
7.40888601
 20
6.45449222
  0
VERTEX
  8
0
 10
7.43779331
 20
6.44640985
  0
VERTEX
  8
0
 10
7.46637299
 20
6.43746728
  0
VERTEX
  8
0
 10
7.49462389
 20
6.42768966
  0
VERTEX
  8
0
 10
7.52254486
 20
6.41710217
  0
VERTEX
  8
0
 10
7.55013476
 20
6.40572995
  0
VERTEX
  8
0
 10
7.57739241
 20
6.39359815
  0
VERTEX
  8
0
 10
7.60431669
 20
6.38073195
  0
VERTEX
  8
0
 10
7.63090642
 20
6.36715649
  0
VERTEX
  8
0
 10
7.68307766
 20
6.33797842
  0
VERTEX
  8
0
 10
7.73389691
 20
6.30626520
  0
VERTEX
  8
0
 10
7.78335496
 20
6.27221809
  0
VERTEX
  8
0
 10
7.83144259
 20
6.23603834
  0
VERTEX
  8
0
 10
7.87815057
 20
6.19792720
  0
VERTEX
  8
0
 10
7.92346968
 20
6.15808593
  0
VERTEX
  8
0
 10
7.96739071
 20
6.11671577
  0
VERTEX
  8
0
 10
8.00990443
 20
6.07401799
  0
VERTEX
  8
0
 10
8.05100162
 20
6.03019384
  0
VERTEX
  8
0
 10
8.09067307
 20
5.98544456
  0
VERTEX
  8
0
 10
8.09860308
 20
6.01188027
  0
VERTEX
  8
0
 10
8.10730527
 20
6.03837821
  0
VERTEX
  8
0
 10
8.12613137
 20
6.09157849
  0
VERTEX
  8
0
 10
8.14536167
 20
6.14508085
  0
VERTEX
  8
0
 10
8.16320652
 20
6.19892074
  0
VERTEX
  8
0
 10
8.17105012
 20
6.22597834
  0
VERTEX
  8
0
 10
8.17787624
 20
6.25313362
  0
VERTEX
  8
0
 10
8.18346115
 20
6.28039100
  0
VERTEX
  8
0
 10
8.18758116
 20
6.30775493
  0
VERTEX
  8
0
 10
8.19001255
 20
6.33522983
  0
VERTEX
  8
0
 10
8.19053161
 20
6.36282013
  0
VERTEX
  8
0
 10
8.18891464
 20
6.39053027
  0
VERTEX
  8
0
 10
8.18493793
 20
6.41836467
  0
VERTEX
  8
0
 10
8.17415419
 20
6.43907773
  0
VERTEX
  8
0
 10
8.16269102
 20
6.45925113
  0
VERTEX
  8
0
 10
8.15057167
 20
6.47889459
  0
VERTEX
  8
0
 10
8.13781939
 20
6.49801783
  0
VERTEX
  8
0
 10
8.12445744
 20
6.51663059
  0
VERTEX
  8
0
 10
8.11050906
 20
6.53474260
  0
VERTEX
  8
0
 10
8.08094603
 20
6.56950326
  0
VERTEX
  8
0
 10
8.04931630
 20
6.60237763
  0
VERTEX
  8
0
 10
8.01580588
 20
6.63344354
  0
VERTEX
  8
0
 10
7.98060078
 20
6.66277882
  0
VERTEX
  8
0
 10
7.94388699
 20
6.69046128
  0
VERTEX
  8
0
 10
7.90585054
 20
6.71656876
  0
VERTEX
  8
0
 10
7.86667742
 20
6.74117907
  0
VERTEX
  8
0
 10
7.82655363
 20
6.76437004
  0
VERTEX
  8
0
 10
7.78566519
 20
6.78621950
  0
VERTEX
  8
0
 10
7.74419810
 20
6.80680526
  0
VERTEX
  8
0
 10
7.70233837
 20
6.82620516
  0
VERTEX
  8
0
 10
7.66027200
 20
6.84449701
  0
VERTEX
  8
0
 10
7.61818499
 20
6.86175865
  0
VERTEX
  8
0
 10
7.59514668
 20
6.87094093
  0
VERTEX
  8
0
 10
7.57196547
 20
6.87934220
  0
VERTEX
  8
0
 10
7.52520191
 20
6.89392783
  0
VERTEX
  8
0
 10
7.47794949
 20
6.90576777
  0
VERTEX
  8
0
 10
7.43026336
 20
6.91511428
  0
VERTEX
  8
0
 10
7.38219870
 20
6.92221960
  0
VERTEX
  8
0
 10
7.33381067
 20
6.92733597
  0
VERTEX
  8
0
 10
7.28515445
 20
6.93071564
  0
VERTEX
  8
0
 10
7.23628519
 20
6.93261087
  0
VERTEX
  8
0
 10
7.18725807
 20
6.93327388
  0
VERTEX
  8
0
 10
7.13812825
 20
6.93295694
  0
VERTEX
  8
0
 10
7.03978120
 20
6.93039216
  0
VERTEX
  8
0
 10
6.94168537
 20
6.92693448
  0
VERTEX
  8
0
 10
6.84428211
 20
6.92460189
  0
VERTEX
  8
0
 10
6.80524853
 20
6.92404943
  0
VERTEX
  8
0
 10
6.76632967
 20
6.92233073
  0
VERTEX
  8
0
 10
6.72751061
 20
6.91959303
  0
VERTEX
  8
0
 10
6.68877645
 20
6.91598357
  0
VERTEX
  8
0
 10
6.61150315
 20
6.90673833
  0
VERTEX
  8
0
 10
6.53439047
 20
6.89577290
  0
VERTEX
  8
0
 10
6.45731910
 20
6.88426519
  0
VERTEX
  8
0
 10
6.38016974
 20
6.87339309
  0
VERTEX
  8
0
 10
6.30282308
 20
6.86433451
  0
VERTEX
  8
0
 10
6.26403848
 20
6.86085339
  0
VERTEX
  8
0
 10
6.22515981
 20
6.85826736
  0
VERTEX
  8
0
 10
6.19325201
 20
6.85669657
  0
VERTEX
  8
0
 10
6.16175907
 20
6.85744817
  0
VERTEX
  8
0
 10
6.13065173
 20
6.86031461
  0
VERTEX
  8
0
 10
6.09990067
 20
6.86508834
  0
VERTEX
  8
0
 10
6.06947661
 20
6.87156180
  0
VERTEX
  8
0
 10
6.03935027
 20
6.87952743
  0
VERTEX
  8
0
 10
6.00949234
 20
6.88877768
  0
VERTEX
  8
0
 10
5.97987353
 20
6.89910500
  0
VERTEX
  8
0
 10
5.95046457
 20
6.91030184
  0
VERTEX
  8
0
 10
5.92123614
 20
6.92216063
  0
VERTEX
  8
0
 10
5.86320375
 20
6.94703388
  0
VERTEX
  8
0
 10
5.80554205
 20
6.97206430
  0
VERTEX
  8
0
 10
5.74801668
 20
6.99559148
  0
SEQEND
  0
POLYLINE
  8
Default_Layer
 66
   1
 39
0.000000
 70
    1
  0
VERTEX
  8
0
 10
3.44260074
 20
6.77331261
  0
VERTEX
  8
0
 10
3.36141894
 20
6.77097308
  0
VERTEX
  8
0
 10
3.28032706
 20
6.76720563
  0
VERTEX
  8
0
 10
3.19932895
 20
6.76208382
  0
VERTEX
  8
0
 10
3.11842848
 20
6.75568125
  0
VERTEX
  8
0
 10
3.03762950
 20
6.74807147
  0
VERTEX
  8
0
 10
2.95693587
 20
6.73932806
  0
VERTEX
  8
0
 10
2.87635143
 20
6.72952459
  0
VERTEX
  8
0
 10
2.79588006
 20
6.71873465
  0
VERTEX
  8
0
 10
2.71552559
 20
6.70703179
  0
VERTEX
  8
0
 10
2.63529190
 20
6.69448961
  0
VERTEX
  8
0
 10
2.47520224
 20
6.66718153
  0
VERTEX
  8
0
 10
2.31564193
 20
6.63739901
  0
VERTEX
  8
0
 10
2.15664182
 20
6.60573063
  0
VERTEX
  8
0
 10
2.15430590
 20
6.47722477
  0
VERTEX
  8
0
 10
2.15429538
 20
6.34857694
  0
VERTEX
  8
0
 10
2.15574902
 20
6.21991006
  0
VERTEX
  8
0
 10
2.15780558
 20
6.09134706
  0
VERTEX
  8
0
 10
2.35681195
 20
6.13868856
  0
VERTEX
  8
0
 10
2.45663922
 20
6.16128093
  0
VERTEX
  8
0
 10
2.55667994
 20
6.18300971
  0
VERTEX
  8
0
 10
2.65693217
 20
6.20376641
  0
VERTEX
  8
0
 10
2.75739396
 20
6.22344252
  0
VERTEX
  8
0
 10
2.85806337
 20
6.24192954
  0
VERTEX
  8
0
 10
2.95893845
 20
6.25911898
  0
VERTEX
  8
0
 10
3.06001726
 20
6.27490232
  0
VERTEX
  8
0
 10
3.16129784
 20
6.28917108
  0
VERTEX
  8
0
 10
3.26277825
 20
6.30181675
  0
VERTEX
  8
0
 10
3.36445655
 20
6.31273082
  0
VERTEX
  8
0
 10
3.46633078
 20
6.32180481
  0
VERTEX
  8
0
 10
3.56839901
 20
6.32893020
  0
VERTEX
  8
0
 10
3.67065927
 20
6.33399850
  0
VERTEX
  8
0
 10
3.77310964
 20
6.33690121
  0
VERTEX
  8
0
 10
3.82050102
 20
6.34435748
  0
VERTEX
  8
0
 10
3.86788405
 20
6.34960223
  0
VERTEX
  8
0
 10
3.91526143
 20
6.35287347
  0
VERTEX
  8
0
 10
3.96263586
 20
6.35440920
  0
VERTEX
  8
0
 10
4.01001005
 20
6.35444741
  0
VERTEX
  8
0
 10
4.05738671
 20
6.35322611
  0
VERTEX
  8
0
 10
4.10476853
 20
6.35098329
  0
VERTEX
  8
0
 10
4.15215822
 20
6.34795696
  0
VERTEX
  8
0
 10
4.24697203
 20
6.34050576
  0
VERTEX
  8
0
 10
4.34184978
 20
6.33277650
  0
VERTEX
  8
0
 10
4.43681308
 20
6.32667318
  0
VERTEX
  8
0
 10
4.48433358
 20
6.32482625
  0
VERTEX
  8
0
 10
4.53188359
 20
6.32409981
  0
VERTEX
  8
0
 10
4.59221767
 20
6.32003878
  0
VERTEX
  8
0
 10
4.65237480
 20
6.31459424
  0
VERTEX
  8
0
 10
4.71236693
 20
6.30788149
  0
VERTEX
  8
0
 10
4.77220599
 20
6.30001587
  0
VERTEX
  8
0
 10
4.83190391
 20
6.29111270
  0
VERTEX
  8
0
 10
4.89147261
 20
6.28128730
  0
VERTEX
  8
0
 10
5.01027014
 20
6.25933109
  0
VERTEX
  8
0
 10
5.12869403
 20
6.23506983
  0
VERTEX
  8
0
 10
5.24683975
 20
6.20942611
  0
VERTEX
  8
0
 10
5.48267855
 20
6.15768159
  0
VERTEX
  8
0
 10
5.48455060
 20
6.25880347
  0
VERTEX
  8
0
 10
5.48663452
 20
6.36020821
  0
VERTEX
  8
0
 10
5.48670792
 20
6.41092330
  0
VERTEX
  8
0
 10
5.48557669
 20
6.46159709
  0
VERTEX
  8
0
 10
5.48282162
 20
6.51219223
  0
VERTEX
  8
0
 10
5.47802350
 20
6.56267137
  0
VERTEX
  8
0
 10
5.46275555
 20
6.58006967
  0
VERTEX
  8
0
 10
5.44619524
 20
6.59536399
  0
VERTEX
  8
0
 10
5.42846762
 20
6.60873459
  0
VERTEX
  8
0
 10
5.40969773
 20
6.62036176
  0
VERTEX
  8
0
 10
5.39001062
 20
6.63042578
  0
VERTEX
  8
0
 10
5.36953133
 20
6.63910693
  0
VERTEX
  8
0
 10
5.34838491
 20
6.64658548
  0
VERTEX
  8
0
 10
5.32669639
 20
6.65304171
  0
VERTEX
  8
0
 10
5.30459083
 20
6.65865591
  0
VERTEX
  8
0
 10
5.28219327
 20
6.66360834
  0
VERTEX
  8
0
 10
5.23702232
 20
6.67224905
  0
VERTEX
  8
0
 10
5.19218390
 20
6.68040607
  0
VERTEX
  8
0
 10
5.14867836
 20
6.68952162
  0
VERTEX
  8
0
 10
5.04316806
 20
6.70639698
  0
VERTEX
  8
0
 10
4.93737230
 20
6.72224961
  0
VERTEX
  8
0
 10
4.83132027
 20
6.73696612
  0
VERTEX
  8
0
 10
4.72504114
 20
6.75043316
  0
VERTEX
  8
0
 10
4.61856411
 20
6.76253736
  0
VERTEX
  8
0
 10
4.51191835
 20
6.77316535
  0
VERTEX
  8
0
 10
4.40513305
 20
6.78220375
  0
VERTEX
  8
0
 10
4.29823738
 20
6.78953921
  0
VERTEX
  8
0
 10
4.19126053
 20
6.79505835
  0
VERTEX
  8
0
 10
4.08423167
 20
6.79864781
  0
VERTEX
  8
0
 10
3.97718000
 20
6.80019422
  0
VERTEX
  8
0
 10
3.87013470
 20
6.79958421
  0
VERTEX
  8
0
 10
3.76312494
 20
6.79670441
  0
VERTEX
  8
0
 10
3.65617990
 20
6.79144145
  0
VERTEX
  8
0
 10
3.54932878
 20
6.78368197
  0
VERTEX
  8
0
 10
3.44260074
 20
6.77331261
  0
SEQEND
  0
POLYLINE
  8
Default_Layer
 66
   1
 39
0.000000
 70
    1
  0
VERTEX
  8
0
 10
8.51544683
 20
6.49517307
  0
VERTEX
  8
0
 10
8.54546797
 20
6.47375159
  0
VERTEX
  8
0
 10
8.57601664
 20
6.45386455
  0
VERTEX
  8
0
 10
8.60706788
 20
6.43544465
  0
VERTEX
  8
0
 10
8.63859674
 20
6.41842453
  0
VERTEX
  8
0
 10
8.67057829
 20
6.40273688
  0
VERTEX
  8
0
 10
8.70298756
 20
6.38831436
  0
VERTEX
  8
0
 10
8.73579963
 20
6.37508965
  0
VERTEX
  8
0
 10
8.76898953
 20
6.36299541
  0
VERTEX
  8
0
 10
8.80253233
 20
6.35196432
  0
VERTEX
  8
0
 10
8.83640309
 20
6.34192904
  0
VERTEX
  8
0
 10
8.87057684
 20
6.33282224
  0
VERTEX
  8
0
 10
8.90502865
 20
6.32457660
  0
VERTEX
  8
0
 10
8.93973357
 20
6.31712477
  0
VERTEX
  8
0
 10
8.97466665
 20
6.31039945
  0
VERTEX
  8
0
 10
9.04511754
 20
6.29885895
  0
VERTEX
  8
0
 10
9.11618172
 20
6.28941646
  0
VERTEX
  8
0
 10
9.18765964
 20
6.28153335
  0
VERTEX
  8
0
 10
9.33105842
 20
6.26829066
  0
VERTEX
  8
0
 10
9.40258014
 20
6.26185381
  0
VERTEX
  8
0
 10
9.47371732
 20
6.25482176
  0
VERTEX
  8
0
 10
9.54427039
 20
6.24665588
  0
VERTEX
  8
0
 10
9.61403978
 20
6.23681753
  0
VERTEX
  8
0
 10
9.63360292
 20
6.23410148
  0
VERTEX
  8
0
 10
9.65267359
 20
6.23044347
  0
VERTEX
  8
0
 10
9.67126118
 20
6.22587757
  0
VERTEX
  8
0
 10
9.68937506
 20
6.22043781
  0
VERTEX
  8
0
 10
9.70702461
 20
6.21415827
  0
VERTEX
  8
0
 10
9.72421920
 20
6.20707300
  0
VERTEX
  8
0
 10
9.74096821
 20
6.19921605
  0
VERTEX
  8
0
 10
9.75728102
 20
6.19062148
  0
VERTEX
  8
0
 10
9.77316700
 20
6.18132335
  0
VERTEX
  8
0
 10
9.78863552
 20
6.17135570
  0
VERTEX
  8
0
 10
9.81835773
 20
6.14954812
  0
VERTEX
  8
0
 10
9.84652263
 20
6.12547118
  0
VERTEX
  8
0
 10
9.87320525
 20
6.09939732
  0
VERTEX
  8
0
 10
9.89848059
 20
6.07159901
  0
VERTEX
  8
0
 10
9.92242366
 20
6.04234869
  0
VERTEX
  8
0
 10
9.94510947
 20
6.01191881
  0
VERTEX
  8
0
 10
9.96661302
 20
5.98058182
  0
VERTEX
  8
0
 10
9.98700932
 20
5.94861017
  0
VERTEX
  8
0
 10
10.00637339
 20
5.91627630
  0
VERTEX
  8
0
 10
10.04230484
 20
5.85161173
  0
VERTEX
  8
0
 10
10.09583797
 20
5.85859432
  0
VERTEX
  8
0
 10
10.10748064
 20
5.88546858
  0
VERTEX
  8
0
 10
10.11978890
 20
5.91204887
  0
VERTEX
  8
0
 10
10.14592254
 20
5.96453394
  0
VERTEX
  8
0
 10
10.20090083
 20
6.06824698
  0
VERTEX
  8
0
 10
10.22782691
 20
6.12030064
  0
VERTEX
  8
0
 10
10.25309858
 20
6.17303618
  0
VERTEX
  8
0
 10
10.26481424
 20
6.19978868
  0
VERTEX
  8
0
 10
10.27575656
 20
6.22686646
  0
VERTEX
  8
0
 10
10.28580564
 20
6.25432114
  0
VERTEX
  8
0
 10
10.29484156
 20
6.28220431
  0
VERTEX
  8
0
 10
10.28465753
 20
6.30491554
  0
VERTEX
  8
0
 10
10.27335758
 20
6.32700815
  0
VERTEX
  8
0
 10
10.26100423
 20
6.34848743
  0
VERTEX
  8
0
 10
10.24765999
 20
6.36935866
  0
VERTEX
  8
0
 10
10.23338737
 20
6.38962712
  0
VERTEX
  8
0
 10
10.21824890
 20
6.40929811
  0
VERTEX
  8
0
 10
10.20230708
 20
6.42837690
  0
VERTEX
  8
0
 10
10.18562442
 20
6.44686878
  0
VERTEX
  8
0
 10
10.16826344
 20
6.46477903
  0
VERTEX
  8
0
 10
10.15028665
 20
6.48211293
  0
VERTEX
  8
0
 10
10.13175657
 20
6.49887577
  0
VERTEX
  8
0
 10
10.11273571
 20
6.51507284
  0
VERTEX
  8
0
 10
10.07347170
 20
6.54579078
  0
VERTEX
  8
0
 10
10.03299473
 20
6.57430901
  0
VERTEX
  8
0
 10
10.00124358
 20
6.59407410
  0
VERTEX
  8
0
 10
9.96858899
 20
6.61140287
  0
VERTEX
  8
0
 10
9.93511550
 20
6.62646671
  0
VERTEX
  8
0
 10
9.90090767
 20
6.63943702
  0
VERTEX
  8
0
 10
9.86605006
 20
6.65048521
  0
VERTEX
  8
0
 10
9.83062724
 20
6.65978268
  0
VERTEX
  8
0
 10
9.79472374
 20
6.66750084
  0
VERTEX
  8
0
 10
9.75842414
 20
6.67381108
  0
VERTEX
  8
0
 10
9.72181298
 20
6.67888482
  0
VERTEX
  8
0
 10
9.68497484
 20
6.68289346
  0
VERTEX
  8
0
 10
9.64799425
 20
6.68600839
  0
VERTEX
  8
0
 10
9.61095578
 20
6.68840103
  0
VERTEX
  8
0
 10
9.53704344
 20
6.69170502
  0
VERTEX
  8
0
 10
9.46391426
 20
6.69417667
  0
VERTEX
  8
0
 10
9.35800329
 20
6.68542014
  0
VERTEX
  8
0
 10
9.25107710
 20
6.67786052
  0
VERTEX
  8
0
 10
9.19744426
 20
6.67519454
  0
VERTEX
  8
0
 10
9.14381076
 20
6.67362577
  0
VERTEX
  8
0
 10
9.09026099
 20
6.67342021
  0
VERTEX
  8
0
 10
9.03687934
 20
6.67484385
  0
VERTEX
  8
0
 10
8.98375019
 20
6.67816270
  0
VERTEX
  8
0
 10
8.93095792
 20
6.68364274
  0
VERTEX
  8
0
 10
8.87858692
 20
6.69154997
  0
VERTEX
  8
0
 10
8.82672157
 20
6.70215040
  0
VERTEX
  8
0
 10
8.80100488
 20
6.70854368
  0
VERTEX
  8
0
 10
8.77544626
 20
6.71571001
  0
VERTEX
  8
0
 10
8.75005623
 20
6.72368263
  0
VERTEX
  8
0
 10
8.72484536
 20
6.73249480
  0
VERTEX
  8
0
 10
8.69982420
 20
6.74217976
  0
VERTEX
  8
0
 10
8.67500328
 20
6.75277076
  0
VERTEX
  8
0
 10
8.65039316
 20
6.76430106
  0
VERTEX
  8
0
 10
8.62600438
 20
6.77680390
  0
VERTEX
  8
0
 10
8.59605173
 20
6.70726587
  0
VERTEX
  8
0
 10
8.56777345
 20
6.63701170
  0
VERTEX
  8
0
 10
8.54097126
 20
6.56624591
  0
VERTEX
  8
0
 10
8.51544683
 20
6.49517307
  0
SEQEND
  0
POLYLINE
  8
Default_Layer
 66
   1
 39
0.000000
 70
    1
  0
VERTEX
  8
0
 10
6.12274860
 20
5.90165357
  0
VERTEX
  8
0
 10
6.10028115
 20
5.89774030
  0
VERTEX
  8
0
 10
6.07780629
 20
5.89492205
  0
VERTEX
  8
0
 10
6.05532957
 20
5.89312169
  0
VERTEX
  8
0
 10
6.03285648
 20
5.89226210
  0
VERTEX
  8
0
 10
6.01039257
 20
5.89226617
  0
VERTEX
  8
0
 10
5.98794333
 20
5.89305678
  0
VERTEX
  8
0
 10
5.94311101
 20
5.89668915
  0
VERTEX
  8
0
 10
5.89840367
 20
5.90254224
  0
VERTEX
  8
0
 10
5.85386547
 20
5.90999911
  0
VERTEX
  8
0
 10
5.76547314
 20
5.92725638
  0
VERTEX
  8
0
 10
5.76568704
 20
5.87766557
  0
VERTEX
  8
0
 10
5.76526790
 20
5.82804152
  0
VERTEX
  8
0
 10
5.76433937
 20
5.72883494
  0
VERTEX
  8
0
 10
5.76473441
 20
5.67932304
  0
VERTEX
  8
0
 10
5.76630526
 20
5.62991916
  0
VERTEX
  8
0
 10
5.76950413
 20
5.58065861
  0
VERTEX
  8
0
 10
5.77478325
 20
5.53157671
  0
VERTEX
  8
0
 10
5.79436571
 20
5.51406884
  0
VERTEX
  8
0
 10
5.81507910
 20
5.49905722
  0
VERTEX
  8
0
 10
5.83681151
 20
5.48636169
  0
VERTEX
  8
0
 10
5.85945106
 20
5.47580211
  0
VERTEX
  8
0
 10
5.88288585
 20
5.46719831
  0
VERTEX
  8
0
 10
5.90700399
 20
5.46037013
  0
VERTEX
  8
0
 10
5.93169357
 20
5.45513742
  0
VERTEX
  8
0
 10
5.95684272
 20
5.45132003
  0
VERTEX
  8
0
 10
5.98233954
 20
5.44873779
  0
VERTEX
  8
0
 10
6.00807212
 20
5.44721054
  0
VERTEX
  8
0
 10
6.03392859
 20
5.44655814
  0
VERTEX
  8
0
 10
6.05979704
 20
5.44660042
  0
VERTEX
  8
0
 10
6.11112231
 20
5.44804841
  0
VERTEX
  8
0
 10
6.16115281
 20
5.45011325
  0
VERTEX
  8
0
 10
6.22030733
 20
5.45740344
  0
VERTEX
  8
0
 10
6.27931253
 20
5.46622934
  0
VERTEX
  8
0
 10
6.33819981
 20
5.47627804
  0
VERTEX
  8
0
 10
6.39700057
 20
5.48723658
  0
VERTEX
  8
0
 10
6.51446815
 20
5.51063149
  0
VERTEX
  8
0
 10
6.63196651
 20
5.53391061
  0
VERTEX
  8
0
 10
6.69080576
 20
5.54472441
  0
VERTEX
  8
0
 10
6.74974691
 20
5.55457046
  0
VERTEX
  8
0
 10
6.80882139
 20
5.56313582
  0
VERTEX
  8
0
 10
6.86806059
 20
5.57010757
  0
VERTEX
  8
0
 10
6.92749591
 20
5.57517277
  0
VERTEX
  8
0
 10
6.98715877
 20
5.57801849
  0
VERTEX
  8
0
 10
7.04708057
 20
5.57833178
  0
VERTEX
  8
0
 10
7.07714839
 20
5.57744098
  0
VERTEX
  8
0
 10
7.10729272
 20
5.57579973
  0
VERTEX
  8
0
 10
7.14612217
 20
5.57200193
  0
VERTEX
  8
0
 10
7.18508358
 20
5.56717781
  0
VERTEX
  8
0
 10
7.22407624
 20
5.56126513
  0
VERTEX
  8
0
 10
7.26299947
 20
5.55420162
  0
VERTEX
  8
0
 10
7.30175258
 20
5.54592502
  0
VERTEX
  8
0
 10
7.34023487
 20
5.53637307
  0
VERTEX
  8
0
 10
7.37834565
 20
5.52548351
  0
VERTEX
  8
0
 10
7.41598423
 20
5.51319409
  0
VERTEX
  8
0
 10
7.45304992
 20
5.49944253
  0
VERTEX
  8
0
 10
7.48944204
 20
5.48416658
  0
VERTEX
  8
0
 10
7.52505988
 20
5.46730398
  0
VERTEX
  8
0
 10
7.55980276
 20
5.44879248
  0
VERTEX
  8
0
 10
7.59356998
 20
5.42856980
  0
VERTEX
  8
0
 10
7.62626086
 20
5.40657369
  0
VERTEX
  8
0
 10
7.65777470
 20
5.38274190
  0
VERTEX
  8
0
 10
7.68801082
 20
5.35701215
  0
VERTEX
  8
0
 10
7.70179311
 20
5.34503928
  0
VERTEX
  8
0
 10
7.71502324
 20
5.33239607
  0
VERTEX
  8
0
 10
7.74024640
 20
5.30560343
  0
VERTEX
  8
0
 10
7.78867984
 20
5.24952714
  0
VERTEX
  8
0
 10
7.81356757
 20
5.22226280
  0
VERTEX
  8
0
 10
7.82654614
 20
5.20926582
  0
VERTEX
  8
0
 10
7.84002096
 20
5.19686057
  0
VERTEX
  8
0
 10
7.85409687
 20
5.18517325
  0
VERTEX
  8
0
 10
7.86887872
 20
5.17433009
  0
VERTEX
  8
0
 10
7.88447134
 20
5.16445727
  0
VERTEX
  8
0
 10
7.90097958
 20
5.15568102
  0
VERTEX
  8
0
 10
7.92875558
 20
5.25883086
  0
VERTEX
  8
0
 10
7.94222352
 20
5.31099507
  0
VERTEX
  8
0
 10
7.95418194
 20
5.36348849
  0
VERTEX
  8
0
 10
7.95930691
 20
5.38984375
  0
VERTEX
  8
0
 10
7.96370870
 20
5.41626341
  0
VERTEX
  8
0
 10
7.96727205
 20
5.44274150
  0
VERTEX
  8
0
 10
7.96988169
 20
5.46927207
  0
VERTEX
  8
0
 10
7.97142236
 20
5.49584914
  0
VERTEX
  8
0
 10
7.97177879
 20
5.52246676
  0
VERTEX
  8
0
 10
7.97083572
 20
5.54911894
  0
VERTEX
  8
0
 10
7.96847787
 20
5.57579973
  0
VERTEX
  8
0
 10
7.95037367
 20
5.60627340
  0
VERTEX
  8
0
 10
7.93048125
 20
5.63529645
  0
VERTEX
  8
0
 10
7.90893215
 20
5.66293457
  0
VERTEX
  8
0
 10
7.88585790
 20
5.68925347
  0
VERTEX
  8
0
 10
7.86139004
 20
5.71431883
  0
VERTEX
  8
0
 10
7.83566011
 20
5.73819635
  0
VERTEX
  8
0
 10
7.80879964
 20
5.76095172
  0
VERTEX
  8
0
 10
7.78094019
 20
5.78265063
  0
VERTEX
  8
0
 10
7.75221327
 20
5.80335878
  0
VERTEX
  8
0
 10
7.72275044
 20
5.82314185
  0
VERTEX
  8
0
 10
7.69268323
 20
5.84206555
  0
VERTEX
  8
0
 10
7.66214318
 20
5.86019556
  0
VERTEX
  8
0
 10
7.60017069
 20
5.89433730
  0
VERTEX
  8
0
 10
7.53788529
 20
5.92609261
  0
VERTEX
  8
0
 10
7.50334698
 20
5.94212009
  0
VERTEX
  8
0
 10
7.46822711
 20
5.95535704
  0
VERTEX
  8
0
 10
7.43258557
 20
5.96605575
  0
VERTEX
  8
0
 10
7.39648224
 20
5.97446846
  0
VERTEX
  8
0
 10
7.35997700
 20
5.98084743
  0
VERTEX
  8
0
 10
7.32312975
 20
5.98544492
  0
VERTEX
  8
0
 10
7.28600036
 20
5.98851320
  0
VERTEX
  8
0
 10
7.24864872
 20
5.99030453
  0
VERTEX
  8
0
 10
7.21113472
 20
5.99107115
  0
VERTEX
  8
0
 10
7.17351824
 20
5.99106534
  0
VERTEX
  8
0
 10
7.09821738
 20
5.98974545
  0
VERTEX
  8
0
 10
7.02322523
 20
5.98836293
  0
VERTEX
  8
0
 10
6.98599462
 20
5.98827883
  0
VERTEX
  8
0
 10
6.94902085
 20
5.98893585
  0
VERTEX
  8
0
 10
6.89686813
 20
5.98967379
  0
VERTEX
  8
0
 10
6.84479345
 20
5.98921605
  0
VERTEX
  8
0
 10
6.79279468
 20
5.98764191
  0
VERTEX
  8
0
 10
6.74086968
 20
5.98503065
  0
VERTEX
  8
0
 10
6.68901633
 20
5.98146152
  0
VERTEX
  8
0
 10
6.63723249
 20
5.97701380
  0
VERTEX
  8
0
 10
6.53386484
 20
5.96579968
  0
VERTEX
  8
0
 10
6.43074967
 20
5.95202243
  0
VERTEX
  8
0
 10
6.32786994
 20
5.93631623
  0
VERTEX
  8
0
 10
6.22520860
 20
5.91931522
  0
VERTEX
  8
0
 10
6.12274860
 20
5.90165357
  0
SEQEND
  0
POLYLINE
  8
Default_Layer
 66
   1
 39
0.000000
 70
    1
  0
VERTEX
  8
0
 10
8.35833872
 20
6.02617629
  0
VERTEX
  8
0
 10
8.31909750
 20
5.91008058
  0
VERTEX
  8
0
 10
8.28227582
 20
5.79330606
  0
VERTEX
  8
0
 10
8.26489983
 20
5.73462198
  0
VERTEX
  8
0
 10
8.24828175
 20
5.67571747
  0
VERTEX
  8
0
 10
8.23247257
 20
5.61657562
  0
VERTEX
  8
0
 10
8.21752331
 20
5.55717951
  0
VERTEX
  8
0
 10
8.26877801
 20
5.52822983
  0
VERTEX
  8
0
 10
8.32103441
 20
5.50132108
  0
VERTEX
  8
0
 10
8.37421983
 20
5.47642536
  0
VERTEX
  8
0
 10
8.42826162
 20
5.45351473
  0
VERTEX
  8
0
 10
8.48308713
 20
5.43256129
  0
VERTEX
  8
0
 10
8.53862370
 20
5.41353712
  0
VERTEX
  8
0
 10
8.59479866
 20
5.39641429
  0
VERTEX
  8
0
 10
8.65153936
 20
5.38116489
  0
VERTEX
  8
0
 10
8.70877315
 20
5.36776100
  0
VERTEX
  8
0
 10
8.76642736
 20
5.35617470
  0
VERTEX
  8
0
 10
8.82442934
 20
5.34637809
  0
VERTEX
  8
0
 10
8.88270642
 20
5.33834322
  0
VERTEX
  8
0
 10
8.94118595
 20
5.33204220
  0
VERTEX
  8
0
 10
8.99979528
 20
5.32744710
  0
VERTEX
  8
0
 10
9.05846174
 20
5.32453001
  0
VERTEX
  8
0
 10
9.11711267
 20
5.32326300
  0
VERTEX
  8
0
 10
9.16455958
 20
5.32141463
  0
VERTEX
  8
0
 10
9.21222277
 20
5.31827393
  0
VERTEX
  8
0
 10
9.25984527
 20
5.31342111
  0
VERTEX
  8
0
 10
9.30717011
 20
5.30643636
  0
VERTEX
  8
0
 10
9.35394031
 20
5.29689989
  0
VERTEX
  8
0
 10
9.37703712
 20
5.29104356
  0
VERTEX
  8
0
 10
9.39989890
 20
5.28439189
  0
VERTEX
  8
0
 10
9.42249353
 20
5.27689238
  0
VERTEX
  8
0
 10
9.44478888
 20
5.26849257
  0
VERTEX
  8
0
 10
9.46675285
 20
5.25913997
  0
VERTEX
  8
0
 10
9.48835330
 20
5.24878212
  0
VERTEX
  8
0
 10
9.50641913
 20
5.23714036
  0
VERTEX
  8
0
 10
9.52347746
 20
5.22446474
  0
VERTEX
  8
0
 10
9.53960832
 20
5.21084599
  0
VERTEX
  8
0
 10
9.55489173
 20
5.19637486
  0
VERTEX
  8
0
 10
9.56940773
 20
5.18114206
  0
VERTEX
  8
0
 10
9.58323634
 20
5.16523835
  0
VERTEX
  8
0
 10
9.59645758
 20
5.14875446
  0
VERTEX
  8
0
 10
9.60915150
 20
5.13178113
  0
VERTEX
  8
0
 10
9.63327743
 20
5.09672907
  0
VERTEX
  8
0
 10
9.65625435
 20
5.06080807
  0
VERTEX
  8
0
 10
9.70132206
 20
4.98926281
  0
VERTEX
  8
0
 10
9.74499807
 20
5.08537247
  0
VERTEX
  8
0
 10
9.76689330
 20
5.13352228
  0
VERTEX
  8
0
 10
9.78817084
 20
5.18194308
  0
VERTEX
  8
0
 10
9.80833881
 20
5.23079062
  0
VERTEX
  8
0
 10
9.82690531
 20
5.28022065
  0
VERTEX
  8
0
 10
9.84337847
 20
5.33038892
  0
VERTEX
  8
0
 10
9.85067633
 20
5.35579857
  0
VERTEX
  8
0
 10
9.85726640
 20
5.38145119
  0
VERTEX
  8
0
 10
9.86126298
 20
5.40082419
  0
VERTEX
  8
0
 10
9.86272285
 20
5.41976783
  0
VERTEX
  8
0
 10
9.86184471
 20
5.43827571
  0
VERTEX
  8
0
 10
9.85882730
 20
5.45634143
  0
VERTEX
  8
0
 10
9.85386933
 20
5.47395862
  0
VERTEX
  8
0
 10
9.84716952
 20
5.49112087
  0
VERTEX
  8
0
 10
9.83892659
 20
5.50782179
  0
VERTEX
  8
0
 10
9.82933926
 20
5.52405498
  0
VERTEX
  8
0
 10
9.81860625
 20
5.53981407
  0
VERTEX
  8
0
 10
9.80692628
 20
5.55509264
  0
VERTEX
  8
0
 10
9.79449808
 20
5.56988432
  0
VERTEX
  8
0
 10
9.78152035
 20
5.58418270
  0
VERTEX
  8
0
 10
9.75471121
 20
5.61127401
  0
VERTEX
  8
0
 10
9.72808863
 20
5.63631544
  0
VERTEX
  8
0
 10
9.70901214
 20
5.65245467
  0
VERTEX
  8
0
 10
9.68946824
 20
5.66753334
  0
VERTEX
  8
0
 10
9.66947846
 20
5.68159257
  0
VERTEX
  8
0
 10
9.64906432
 20
5.69467347
  0
VERTEX
  8
0
 10
9.62824736
 20
5.70681716
  0
VERTEX
  8
0
 10
9.60704910
 20
5.71806476
  0
VERTEX
  8
0
 10
9.58549107
 20
5.72845737
  0
VERTEX
  8
0
 10
9.56359481
 20
5.73803611
  0
VERTEX
  8
0
 10
9.54138183
 20
5.74684210
  0
VERTEX
  8
0
 10
9.51887369
 20
5.75491645
  0
VERTEX
  8
0
 10
9.47305797
 20
5.76903469
  0
VERTEX
  8
0
 10
9.42631990
 20
5.78071976
  0
VERTEX
  8
0
 10
9.37883170
 20
5.79030057
  0
VERTEX
  8
0
 10
9.33076562
 20
5.79810604
  0
VERTEX
  8
0
 10
9.28229388
 20
5.80446510
  0
VERTEX
  8
0
 10
9.23358873
 20
5.80970664
  0
VERTEX
  8
0
 10
9.18482239
 20
5.81415961
  0
VERTEX
  8
0
 10
9.08779512
 20
5.82201546
  0
VERTEX
  8
0
 10
8.99258995
 20
5.83066399
  0
VERTEX
  8
0
 10
8.95026922
 20
5.83238359
  0
VERTEX
  8
0
 10
8.90843347
 20
5.83627349
  0
VERTEX
  8
0
 10
8.86705536
 20
5.84216864
  0
VERTEX
  8
0
 10
8.82610753
 20
5.84990396
  0
VERTEX
  8
0
 10
8.78556262
 20
5.85931439
  0
VERTEX
  8
0
 10
8.74539329
 20
5.87023484
  0
VERTEX
  8
0
 10
8.70557218
 20
5.88250027
  0
VERTEX
  8
0
 10
8.66607194
 20
5.89594559
  0
VERTEX
  8
0
 10
8.62686520
 20
5.91040574
  0
VERTEX
  8
0
 10
8.58792463
 20
5.92571565
  0
VERTEX
  8
0
 10
8.51073254
 20
5.95822449
  0
VERTEX
  8
0
 10
8.35833872
 20
6.02617629
  0
SEQEND
  0
POLYLINE
  8
Default_Layer
 66
   1
 39
0.000000
 70
    1
  0
VERTEX
  8
0
 10
2.16129688
 20
5.59907500
  0
VERTEX
  8
0
 10
2.15843358
 20
5.47346079
  0
VERTEX
  8
0
 10
2.15664355
 20
5.34793868
  0
VERTEX
  8
0
 10
2.15630737
 20
5.22258918
  0
VERTEX
  8
0
 10
2.15780558
 20
5.09749284
  0
VERTEX
  8
0
 10
2.22096129
 20
5.11761636
  0
VERTEX
  8
0
 10
2.28432983
 20
5.13697411
  0
VERTEX
  8
0
 10
2.34790363
 20
5.15557219
  0
VERTEX
  8
0
 10
2.41167510
 20
5.17341673
  0
VERTEX
  8
0
 10
2.47563667
 20
5.19051381
  0
VERTEX
  8
0
 10
2.53978075
 20
5.20686957
  0
VERTEX
  8
0
 10
2.60409978
 20
5.22249009
  0
VERTEX
  8
0
 10
2.66858616
 20
5.23738150
  0
VERTEX
  8
0
 10
2.79803069
 20
5.26500141
  0
VERTEX
  8
0
 10
2.92805371
 20
5.28977817
  0
VERTEX
  8
0
 10
3.05859459
 20
5.31176066
  0
VERTEX
  8
0
 10
3.18959269
 20
5.33099774
  0
VERTEX
  8
0
 10
3.32098737
 20
5.34753830
  0
VERTEX
  8
0
 10
3.45271801
 20
5.36143121
  0
VERTEX
  8
0
 10
3.58472398
 20
5.37272534
  0
VERTEX
  8
0
 10
3.71694463
 20
5.38146958
  0
VERTEX
  8
0
 10
3.84931934
 20
5.38771280
  0
VERTEX
  8
0
 10
3.98178747
 20
5.39150386
  0
VERTEX
  8
0
 10
4.11428840
 20
5.39289166
  0
VERTEX
  8
0
 10
4.24676147
 20
5.39192506
  0
VERTEX
  8
0
 10
4.32690873
 20
5.39305993
  0
VERTEX
  8
0
 10
4.40707853
 20
5.39291141
  0
VERTEX
  8
0
 10
4.48724960
 20
5.39147896
  0
VERTEX
  8
0
 10
4.56740069
 20
5.38876202
  0
VERTEX
  8
0
 10
4.64751056
 20
5.38476002
  0
VERTEX
  8
0
 10
4.72755794
 20
5.37947240
  0
VERTEX
  8
0
 10
4.80752158
 20
5.37289862
  0
VERTEX
  8
0
 10
4.88738022
 20
5.36503810
  0
VERTEX
  8
0
 10
4.96711262
 20
5.35589030
  0
VERTEX
  8
0
 10
5.04669751
 20
5.34545465
  0
VERTEX
  8
0
 10
5.12611364
 20
5.33373060
  0
VERTEX
  8
0
 10
5.20533976
 20
5.32071758
  0
VERTEX
  8
0
 10
5.28435461
 20
5.30641504
  0
VERTEX
  8
0
 10
5.36313693
 20
5.29082242
  0
VERTEX
  8
0
 10
5.44166548
 20
5.27393916
  0
VERTEX
  8
0
 10
5.51991899
 20
5.25576470
  0
VERTEX
  8
0
 10
5.51808396
 20
5.37488260
  0
VERTEX
  8
0
 10
5.51643797
 20
5.43440009
  0
VERTEX
  8
0
 10
5.51396973
 20
5.49385684
  0
VERTEX
  8
0
 10
5.51042676
 20
5.55322806
  0
VERTEX
  8
0
 10
5.50555661
 20
5.61248891
  0
VERTEX
  8
0
 10
5.49910681
 20
5.67161460
  0
VERTEX
  8
0
 10
5.49082490
 20
5.73058031
  0
VERTEX
  8
0
 10
5.36556701
 20
5.75413367
  0
VERTEX
  8
0
 10
5.23988303
 20
5.77507896
  0
VERTEX
  8
0
 10
5.11381671
 20
5.79348290
  0
VERTEX
  8
0
 10
4.98741175
 20
5.80941220
  0
VERTEX
  8
0
 10
4.86071190
 20
5.82293359
  0
VERTEX
  8
0
 10
4.73376089
 20
5.83411378
  0
VERTEX
  8
0
 10
4.60660244
 20
5.84301949
  0
VERTEX
  8
0
 10
4.47928029
 20
5.84971743
  0
VERTEX
  8
0
 10
4.35183816
 20
5.85427433
  0
VERTEX
  8
0
 10
4.22431978
 20
5.85675691
  0
VERTEX
  8
0
 10
4.09676889
 20
5.85723188
  0
VERTEX
  8
0
 10
3.96922920
 20
5.85576596
  0
VERTEX
  8
0
 10
3.84174447
 20
5.85242587
  0
VERTEX
  8
0
 10
3.71435840
 20
5.84727832
  0
VERTEX
  8
0
 10
3.58711473
 20
5.84039004
  0
VERTEX
  8
0
 10
3.46005720
 20
5.83182775
  0
VERTEX
  8
0
 10
3.37744352
 20
5.82743251
  0
VERTEX
  8
0
 10
3.29495626
 20
5.82145110
  0
VERTEX
  8
0
 10
3.21260950
 20
5.81393336
  0
VERTEX
  8
0
 10
3.13041733
 20
5.80492912
  0
VERTEX
  8
0
 10
3.04839383
 20
5.79448824
  0
VERTEX
  8
0
 10
2.96655309
 20
5.78266055
  0
VERTEX
  8
0
 10
2.88490920
 20
5.76949591
  0
VERTEX
  8
0
 10
2.80347625
 20
5.75504415
  0
VERTEX
  8
0
 10
2.72226832
 20
5.73935511
  0
VERTEX
  8
0
 10
2.64129951
 20
5.72247864
  0
VERTEX
  8
0
 10
2.56058389
 20
5.70446459
  0
VERTEX
  8
0
 10
2.48013556
 20
5.68536279
  0
VERTEX
  8
0
 10
2.39996861
 20
5.66522309
  0
VERTEX
  8
0
 10
2.32009712
 20
5.64409533
  0
VERTEX
  8
0
 10
2.24053518
 20
5.62202935
  0
VERTEX
  8
0
 10
2.16129688
 20
5.59907500
  0
SEQEND
  0
POLYLINE
  8
Default_Layer
 66
   1
 39
0.000000
 70
    1
  0
VERTEX
  8
0
 10
8.10812952
 20
5.12309564
  0
VERTEX
  8
0
 10
8.09973413
 20
5.07547379
  0
VERTEX
  8
0
 10
8.09015688
 20
5.02805893
  0
VERTEX
  8
0
 10
8.06946410
 20
4.93346651
  0
VERTEX
  8
0
 10
8.05935219
 20
4.88609709
  0
VERTEX
  8
0
 10
8.05006569
 20
4.83855097
  0
VERTEX
  8
0
 10
8.04210641
 20
4.79073221
  0
VERTEX
  8
0
 10
8.03597617
 20
4.74254490
  0
VERTEX
  8
0
 10
8.03428781
 20
4.73332162
  0
VERTEX
  8
0
 10
8.03399269
 20
4.72474272
  0
VERTEX
  8
0
 10
8.03497351
 20
4.71676530
  0
VERTEX
  8
0
 10
8.03711295
 20
4.70934649
  0
VERTEX
  8
0
 10
8.04029370
 20
4.70244338
  0
VERTEX
  8
0
 10
8.04439844
 20
4.69601310
  0
VERTEX
  8
0
 10
8.04930987
 20
4.69001276
  0
VERTEX
  8
0
 10
8.05491068
 20
4.68439945
  0
VERTEX
  8
0
 10
8.06771116
 20
4.67416243
  0
VERTEX
  8
0
 10
8.08186138
 20
4.66495893
  0
VERTEX
  8
0
 10
8.11045705
 20
4.64828004
  0
VERTEX
  8
0
 10
8.15781826
 20
4.62247908
  0
VERTEX
  8
0
 10
8.20615529
 20
4.59784974
  0
VERTEX
  8
0
 10
8.25546709
 20
4.57499828
  0
VERTEX
  8
0
 10
8.30575260
 20
4.55453097
  0
VERTEX
  8
0
 10
8.33126017
 20
4.54538083
  0
VERTEX
  8
0
 10
8.35701077
 20
4.53705407
  0
VERTEX
  8
0
 10
8.38300426
 20
4.52962647
  0
VERTEX
  8
0
 10
8.40924053
 20
4.52317383
  0
VERTEX
  8
0
 10
8.43571942
 20
4.51777191
  0
VERTEX
  8
0
 10
8.46244082
 20
4.51349651
  0
VERTEX
  8
0
 10
8.48940459
 20
4.51042341
  0
VERTEX
  8
0
 10
8.51661059
 20
4.50862839
  0
VERTEX
  8
0
 10
8.68074479
 20
4.50361098
  0
VERTEX
  8
0
 10
8.76298179
 20
4.50076268
  0
VERTEX
  8
0
 10
8.84511927
 20
4.49652089
  0
VERTEX
  8
0
 10
8.92699763
 20
4.49001030
  0
VERTEX
  8
0
 10
8.96778977
 20
4.48563068
  0
VERTEX
  8
0
 10
9.00845728
 20
4.48035561
  0
VERTEX
  8
0
 10
9.04898021
 20
4.47407569
  0
VERTEX
  8
0
 10
9.08933861
 20
4.46668151
  0
VERTEX
  8
0
 10
9.12951254
 20
4.45806364
  0
VERTEX
  8
0
 10
9.16948204
 20
4.44811268
  0
VERTEX
  8
0
 10
9.19598673
 20
4.43914087
  0
VERTEX
  8
0
 10
9.22085627
 20
4.42792703
  0
VERTEX
  8
0
 10
9.24421163
 20
4.41466553
  0
VERTEX
  8
0
 10
9.26617377
 20
4.39955074
  0
VERTEX
  8
0
 10
9.28686364
 20
4.38277705
  0
VERTEX
  8
0
 10
9.30640222
 20
4.36453883
  0
VERTEX
  8
0
 10
9.32491046
 20
4.34503045
  0
VERTEX
  8
0
 10
9.34250933
 20
4.32444630
  0
VERTEX
  8
0
 10
9.35931977
 20
4.30298075
  0
VERTEX
  8
0
 10
9.37546277
 20
4.28082817
  0
VERTEX
  8
0
 10
9.40623024
 20
4.23523946
  0
VERTEX
  8
0
 10
9.43577943
 20
4.18923518
  0
VERTEX
  8
0
 10
9.46507803
 20
4.14437035
  0
VERTEX
  8
0
 10
9.47914434
 20
4.20147924
  0
VERTEX
  8
0
 10
9.49497870
 20
4.25867203
  0
VERTEX
  8
0
 10
9.51110076
 20
4.31601938
  0
VERTEX
  8
0
 10
9.52603015
 20
4.37359197
  0
VERTEX
  8
0
 10
9.53258499
 20
4.40248482
  0
VERTEX
  8
0
 10
9.53828653
 20
4.43146048
  0
VERTEX
  8
0
 10
9.54294972
 20
4.46052780
  0
VERTEX
  8
0
 10
9.54638952
 20
4.48969559
  0
VERTEX
  8
0
 10
9.54842089
 20
4.51897271
  0
VERTEX
  8
0
 10
9.54885879
 20
4.54836798
  0
VERTEX
  8
0
 10
9.54751816
 20
4.57789023
  0
VERTEX
  8
0
 10
9.54421396
 20
4.60754831
  0
VERTEX
  8
0
 10
9.53477818
 20
4.63255356
  0
VERTEX
  8
0
 10
9.52332608
 20
4.65627945
  0
VERTEX
  8
0
 10
9.51000446
 20
4.67875329
  0
VERTEX
  8
0
 10
9.49496010
 20
4.70000235
  0
VERTEX
  8
0
 10
9.47833981
 20
4.72005395
  0
VERTEX
  8
0
 10
9.46029039
 20
4.73893537
  0
VERTEX
  8
0
 10
9.44095863
 20
4.75667392
  0
VERTEX
  8
0
 10
9.42049133
 20
4.77329688
  0
VERTEX
  8
0
 10
9.39903528
 20
4.78883155
  0
VERTEX
  8
0
 10
9.37673729
 20
4.80330524
  0
VERTEX
  8
0
 10
9.35374414
 20
4.81674523
  0
VERTEX
  8
0
 10
9.33020264
 20
4.82917883
  0
VERTEX
  8
0
 10
9.30625959
 20
4.84063332
  0
VERTEX
  8
0
 10
9.28206177
 20
4.85113601
  0
VERTEX
  8
0
 10
9.25775599
 20
4.86071418
  0
VERTEX
  8
0
 10
9.23348905
 20
4.86939515
  0
VERTEX
  8
0
 10
9.18882915
 20
4.88168114
  0
VERTEX
  8
0
 10
9.14386812
 20
4.89205626
  0
VERTEX
  8
0
 10
9.09864141
 20
4.90074520
  0
VERTEX
  8
0
 10
9.05318446
 20
4.90797266
  0
VERTEX
  8
0
 10
9.00753271
 20
4.91396334
  0
VERTEX
  8
0
 10
8.96172163
 20
4.91894193
  0
VERTEX
  8
0
 10
8.86976322
 20
4.92676163
  0
VERTEX
  8
0
 10
8.77759281
 20
4.93322934
  0
VERTEX
  8
0
 10
8.68549398
 20
4.94014263
  0
VERTEX
  8
0
 10
8.63956004
 20
4.94432811
  0
VERTEX
  8
0
 10
8.59375033
 20
4.94929907
  0
VERTEX
  8
0
 10
8.54810031
 20
4.95528022
  0
VERTEX
  8
0
 10
8.50264542
 20
4.96249625
  0
VERTEX
  8
0
 10
8.47656899
 20
4.96865974
  0
VERTEX
  8
0
 10
8.45080111
 20
4.97569179
  0
VERTEX
  8
0
 10
8.42531622
 20
4.98351696
  0
VERTEX
  8
0
 10
8.40008875
 20
4.99205982
  0
VERTEX
  8
0
 10
8.35030375
 20
5.01099687
  0
VERTEX
  8
0
 10
8.30124156
 20
5.03189945
  0
VERTEX
  8
0
 10
8.25269762
 20
5.05416409
  0
VERTEX
  8
0
 10
8.20446734
 20
5.07718732
  0
VERTEX
  8
0
 10
8.10812952
 20
5.12309564
  0
SEQEND
  0
POLYLINE
  8
Default_Layer
 66
   1
 39
0.000000
 70
    1
  0
VERTEX
  8
0
 10
5.80154981
 20
4.92525581
  0
VERTEX
  8
0
 10
5.80150380
 20
4.87368258
  0
VERTEX
  8
0
 10
5.80256234
 20
4.82212450
  0
VERTEX
  8
0
 10
5.80474085
 20
4.77060572
  0
VERTEX
  8
0
 10
5.80805470
 20
4.71915041
  0
VERTEX
  8
0
 10
5.81251929
 20
4.66778275
  0
VERTEX
  8
0
 10
5.81815002
 20
4.61652688
  0
VERTEX
  8
0
 10
5.82496227
 20
4.56540698
  0
VERTEX
  8
0
 10
5.83297143
 20
4.51444721
  0
VERTEX
  8
0
 10
5.85937388
 20
4.51030301
  0
VERTEX
  8
0
 10
5.88573955
 20
4.50699197
  0
VERTEX
  8
0
 10
5.91207024
 20
4.50447417
  0
VERTEX
  8
0
 10
5.93836776
 20
4.50270969
  0
VERTEX
  8
0
 10
5.99087051
 20
4.50128102
  0
VERTEX
  8
0
 10
6.04326221
 20
4.50238659
  0
VERTEX
  8
0
 10
6.09555731
 20
4.50570703
  0
VERTEX
  8
0
 10
6.14777022
 20
4.51092298
  0
VERTEX
  8
0
 10
6.19991538
 20
4.51771506
  0
VERTEX
  8
0
 10
6.25200721
 20
4.52576391
  0
VERTEX
  8
0
 10
6.35608863
 20
4.54435446
  0
VERTEX
  8
0
 10
6.46012991
 20
4.56413969
  0
VERTEX
  8
0
 10
6.51217157
 20
4.57368189
  0
VERTEX
  8
0
 10
6.56424649
 20
4.58256466
  0
VERTEX
  8
0
 10
6.61636908
 20
4.59046863
  0
VERTEX
  8
0
 10
6.66855379
 20
4.59707444
  0
VERTEX
  8
0
 10
6.75154437
 20
4.60736702
  0
VERTEX
  8
0
 10
6.83538135
 20
4.61837516
  0
VERTEX
  8
0
 10
6.91969352
 20
4.62812524
  0
VERTEX
  8
0
 10
6.96191180
 20
4.63191175
  0
VERTEX
  8
0
 10
7.00410969
 20
4.63464364
  0
VERTEX
  8
0
 10
7.04624077
 20
4.63607420
  0
VERTEX
  8
0
 10
7.08825865
 20
4.63595674
  0
VERTEX
  8
0
 10
7.13011694
 20
4.63404455
  0
VERTEX
  8
0
 10
7.17176923
 20
4.63009093
  0
VERTEX
  8
0
 10
7.21316912
 20
4.62384918
  0
VERTEX
  8
0
 10
7.25427021
 20
4.61507259
  0
VERTEX
  8
0
 10
7.29502611
 20
4.60351446
  0
VERTEX
  8
0
 10
7.31526011
 20
4.59661522
  0
VERTEX
  8
0
 10
7.33539041
 20
4.58892809
  0
VERTEX
  8
0
 10
7.36668553
 20
4.57585539
  0
VERTEX
  8
0
 10
7.39660776
 20
4.56082810
  0
VERTEX
  8
0
 10
7.42526786
 20
4.54401719
  0
VERTEX
  8
0
 10
7.45277661
 20
4.52559365
  0
VERTEX
  8
0
 10
7.47924477
 20
4.50572846
  0
VERTEX
  8
0
 10
7.50478314
 20
4.48459260
  0
VERTEX
  8
0
 10
7.52950247
 20
4.46235704
  0
VERTEX
  8
0
 10
7.55351354
 20
4.43919278
  0
VERTEX
  8
0
 10
7.57692712
 20
4.41527078
  0
VERTEX
  8
0
 10
7.59985400
 20
4.39076204
  0
VERTEX
  8
0
 10
7.64469070
 20
4.34066822
  0
VERTEX
  8
0
 10
7.68890984
 20
4.29027917
  0
VERTEX
  8
0
 10
7.73339760
 20
4.24096273
  0
VERTEX
  8
0
 10
7.74037158
 20
4.28804906
  0
VERTEX
  8
0
 10
7.74812381
 20
4.33505997
  0
VERTEX
  8
0
 10
7.76432829
 20
4.42903270
  0
VERTEX
  8
0
 10
7.77196320
 20
4.47608312
  0
VERTEX
  8
0
 10
7.77874165
 20
4.52323531
  0
VERTEX
  8
0
 10
7.78425498
 20
4.57053357
  0
VERTEX
  8
0
 10
7.78809450
 20
4.61802218
  0
VERTEX
  8
0
 10
7.78934989
 20
4.63029022
  0
VERTEX
  8
0
 10
7.78932704
 20
4.64222934
  0
VERTEX
  8
0
 10
7.78812268
 20
4.65385045
  0
VERTEX
  8
0
 10
7.78583352
 20
4.66516446
  0
VERTEX
  8
0
 10
7.78255630
 20
4.67618227
  0
VERTEX
  8
0
 10
7.77838775
 20
4.68691480
  0
VERTEX
  8
0
 10
7.77342459
 20
4.69737295
  0
VERTEX
  8
0
 10
7.76776354
 20
4.70756763
  0
VERTEX
  8
0
 10
7.75473471
 20
4.72721022
  0
VERTEX
  8
0
 10
7.74007506
 20
4.74592981
  0
VERTEX
  8
0
 10
7.72455841
 20
4.76381369
  0
VERTEX
  8
0
 10
7.70895856
 20
4.78094910
  0
VERTEX
  8
0
 10
7.68943805
 20
4.80118539
  0
VERTEX
  8
0
 10
7.66927514
 20
4.82078968
  0
VERTEX
  8
0
 10
7.64849483
 20
4.83974952
  0
VERTEX
  8
0
 10
7.62712213
 20
4.85805246
  0
VERTEX
  8
0
 10
7.60518203
 20
4.87568604
  0
VERTEX
  8
0
 10
7.58269952
 20
4.89263780
  0
VERTEX
  8
0
 10
7.55969962
 20
4.90889530
  0
VERTEX
  8
0
 10
7.53620732
 20
4.92444608
  0
VERTEX
  8
0
 10
7.51224761
 20
4.93927769
  0
VERTEX
  8
0
 10
7.48784550
 20
4.95337767
  0
VERTEX
  8
0
 10
7.46302599
 20
4.96673357
  0
VERTEX
  8
0
 10
7.43781406
 20
4.97933294
  0
VERTEX
  8
0
 10
7.41223474
 20
4.99116333
  0
VERTEX
  8
0
 10
7.38631300
 20
5.00221227
  0
VERTEX
  8
0
 10
7.36007386
 20
5.01246731
  0
VERTEX
  8
0
 10
7.33354231
 20
5.02191601
  0
VERTEX
  8
0
 10
7.30674334
 20
5.03054591
  0
VERTEX
  8
0
 10
7.27970197
 20
5.03834456
  0
VERTEX
  8
0
 10
7.25244318
 20
5.04529949
  0
VERTEX
  8
0
 10
7.22499198
 20
5.05139827
  0
VERTEX
  8
0
 10
7.19737336
 20
5.05662842
  0
VERTEX
  8
0
 10
7.16961233
 20
5.06097751
  0
VERTEX
  8
0
 10
7.14173388
 20
5.06443308
  0
VERTEX
  8
0
 10
7.11376301
 20
5.06698267
  0
VERTEX
  8
0
 10
7.08572472
 20
5.06861383
  0
VERTEX
  8
0
 10
7.05764401
 20
5.06931411
  0
VERTEX
  8
0
 10
7.02954589
 20
5.06907105
  0
VERTEX
  8
0
 10
7.00145534
 20
5.06787220
  0
VERTEX
  8
0
 10
6.97339736
 20
5.06570510
  0
VERTEX
  8
0
 10
6.94539697
 20
5.06255731
  0
VERTEX
  8
0
 10
6.91747915
 20
5.05841637
  0
VERTEX
  8
0
 10
6.88966890
 20
5.05326982
  0
VERTEX
  8
0
 10
6.82127784
 20
5.04853179
  0
VERTEX
  8
0
 10
6.75301739
 20
5.04267440
  0
VERTEX
  8
0
 10
6.68487052
 20
5.03584428
  0
VERTEX
  8
0
 10
6.61682021
 20
5.02818806
  0
VERTEX
  8
0
 10
6.48094113
 20
5.01098393
  0
VERTEX
  8
0
 10
6.34524395
 20
4.99223512
  0
VERTEX
  8
0
 10
6.20959244
 20
4.97311478
  0
VERTEX
  8
0
 10
6.07385039
 20
4.95479603
  0
VERTEX
  8
0
 10
5.93788159
 20
4.93845199
  0
VERTEX
  8
0
 10
5.86976959
 20
4.93138710
  0
VERTEX
  8
0
 10
5.80154981
 20
4.92525581
  0
SEQEND
  0
POLYLINE
  8
Default_Layer
 66
   1
 39
0.000000
 70
    1
  0
VERTEX
  8
0
 10
2.12289267
 20
4.63547864
  0
VERTEX
  8
0
 10
2.09588338
 20
4.47575737
  0
VERTEX
  8
0
 10
2.06927281
 20
4.31577584
  0
VERTEX
  8
0
 10
2.05673335
 20
4.23562598
  0
VERTEX
  8
0
 10
2.04503314
 20
4.15533726
  0
VERTEX
  8
0
 10
2.03441869
 20
4.07488507
  0
VERTEX
  8
0
 10
2.02513652
 20
3.99424482
  0
VERTEX
  8
0
 10
2.07304866
 20
4.02204309
  0
VERTEX
  8
0
 10
2.12147855
 20
4.04859522
  0
VERTEX
  8
0
 10
2.17040526
 20
4.07393681
  0
VERTEX
  8
0
 10
2.21980791
 20
4.09810347
  0
VERTEX
  8
0
 10
2.26966557
 20
4.12113079
  0
VERTEX
  8
0
 10
2.31995736
 20
4.14305439
  0
VERTEX
  8
0
 10
2.37066235
 20
4.16390986
  0
VERTEX
  8
0
 10
2.42175964
 20
4.18373281
  0
VERTEX
  8
0
 10
2.47322833
 20
4.20255883
  0
VERTEX
  8
0
 10
2.52504752
 20
4.22042354
  0
VERTEX
  8
0
 10
2.57719629
 20
4.23736253
  0
VERTEX
  8
0
 10
2.62965373
 20
4.25341142
  0
VERTEX
  8
0
 10
2.68239896
 20
4.26860579
  0
VERTEX
  8
0
 10
2.73541105
 20
4.28298125
  0
VERTEX
  8
0
 10
2.78866910
 20
4.29657342
  0
VERTEX
  8
0
 10
2.84215220
 20
4.30941788
  0
VERTEX
  8
0
 10
2.94970996
 20
4.33300611
  0
VERTEX
  8
0
 10
3.05791707
 20
4.35403077
  0
VERTEX
  8
0
 10
3.16660627
 20
4.37277669
  0
VERTEX
  8
0
 10
3.27561033
 20
4.38952868
  0
VERTEX
  8
0
 10
3.38476200
 20
4.40457157
  0
VERTEX
  8
0
 10
3.49389403
 20
4.41819018
  0
VERTEX
  8
0
 10
3.60283916
 20
4.43066934
  0
VERTEX
  8
0
 10
3.71143016
 20
4.44229386
  0
VERTEX
  8
0
 10
3.82726473
 20
4.45402253
  0
VERTEX
  8
0
 10
3.94333551
 20
4.46323210
  0
VERTEX
  8
0
 10
4.05958243
 20
4.46990282
  0
VERTEX
  8
0
 10
4.17594541
 20
4.47401497
  0
VERTEX
  8
0
 10
4.29236438
 20
4.47554880
  0
VERTEX
  8
0
 10
4.40877927
 20
4.47448457
  0
VERTEX
  8
0
 10
4.52513000
 20
4.47080256
  0
VERTEX
  8
0
 10
4.64135649
 20
4.46448302
  0
VERTEX
  8
0
 10
4.75739866
 20
4.45550622
  0
VERTEX
  8
0
 10
4.87319646
 20
4.44385242
  0
VERTEX
  8
0
 10
4.98868979
 20
4.42950188
  0
VERTEX
  8
0
 10
5.10381860
 20
4.41243488
  0
VERTEX
  8
0
 10
5.21852279
 20
4.39263166
  0
VERTEX
  8
0
 10
5.33274229
 20
4.37007249
  0
VERTEX
  8
0
 10
5.44641704
 20
4.34473764
  0
VERTEX
  8
0
 10
5.55948696
 20
4.31660738
  0
VERTEX
  8
0
 10
5.55706539
 20
4.43298092
  0
VERTEX
  8
0
 10
5.55368116
 20
4.54912689
  0
VERTEX
  8
0
 10
5.54552179
 20
4.78094910
  0
VERTEX
  8
0
 10
5.49946473
 20
4.79730498
  0
VERTEX
  8
0
 10
5.45302331
 20
4.81208631
  0
VERTEX
  8
0
 10
5.40623049
 20
4.82540217
  0
VERTEX
  8
0
 10
5.35911918
 20
4.83736165
  0
VERTEX
  8
0
 10
5.31172233
 20
4.84807381
  0
VERTEX
  8
0
 10
5.26407286
 20
4.85764775
  0
VERTEX
  8
0
 10
5.21620370
 20
4.86619253
  0
VERTEX
  8
0
 10
5.16814778
 20
4.87381725
  0
VERTEX
  8
0
 10
5.07160741
 20
4.88674278
  0
VERTEX
  8
0
 10
4.97471519
 20
4.89729698
  0
VERTEX
  8
0
 10
4.87773458
 20
4.90635249
  0
VERTEX
  8
0
 10
4.78092903
 20
4.91478193
  0
VERTEX
  8
0
 10
4.64319222
 20
4.91748665
  0
VERTEX
  8
0
 10
4.50546615
 20
4.91935386
  0
VERTEX
  8
0
 10
4.36776283
 20
4.92041593
  0
VERTEX
  8
0
 10
4.23009430
 20
4.92070521
  0
VERTEX
  8
0
 10
3.95490969
 20
4.91909493
  0
VERTEX
  8
0
 10
3.68000854
 20
4.91478193
  0
VERTEX
  8
0
 10
3.48258412
 20
4.89812937
  0
VERTEX
  8
0
 10
3.28478162
 20
4.87964484
  0
VERTEX
  8
0
 10
3.18592200
 20
4.86918664
  0
VERTEX
  8
0
 10
3.08718793
 20
4.85763571
  0
VERTEX
  8
0
 10
2.98865279
 20
4.84478047
  0
VERTEX
  8
0
 10
2.89038993
 20
4.83040934
  0
VERTEX
  8
0
 10
2.79247272
 20
4.81431074
  0
VERTEX
  8
0
 10
2.69497452
 20
4.79627308
  0
VERTEX
  8
0
 10
2.59796869
 20
4.77608480
  0
VERTEX
  8
0
 10
2.50152858
 20
4.75353431
  0
VERTEX
  8
0
 10
2.40572757
 20
4.72841003
  0
VERTEX
  8
0
 10
2.35808964
 20
4.71481660
  0
VERTEX
  8
0
 10
2.31063900
 20
4.70050037
  0
VERTEX
  8
0
 10
2.26338481
 20
4.68543491
  0
VERTEX
  8
0
 10
2.21633625
 20
4.66959377
  0
VERTEX
  8
0
 10
2.16950248
 20
4.65295049
  0
VERTEX
  8
0
 10
2.12289267
 20
4.63547864
  0
SEQEND
  0
POLYLINE
  8
Default_Layer
 66
   1
 39
0.000000
 70
    1
  0
VERTEX
  8
0
 10
7.94636636
 20
4.27005683
  0
VERTEX
  8
0
 10
7.92876521
 20
4.16442018
  0
VERTEX
  8
0
 10
7.92008988
 20
4.11144106
  0
VERTEX
  8
0
 10
7.91234276
 20
4.05832747
  0
VERTEX
  8
0
 10
7.90615738
 20
4.00505896
  0
VERTEX
  8
0
 10
7.90216729
 20
3.95161507
  0
VERTEX
  8
0
 10
7.90119345
 20
3.92482096
  0
VERTEX
  8
0
 10
7.90100602
 20
3.89797533
  0
VERTEX
  8
0
 10
7.90168417
 20
3.87107563
  0
VERTEX
  8
0
 10
7.90330711
 20
3.84411930
  0
VERTEX
  8
0
 10
7.93382357
 20
3.82060550
  0
VERTEX
  8
0
 10
7.96565886
 20
3.79965586
  0
VERTEX
  8
0
 10
7.99868923
 20
3.78108100
  0
VERTEX
  8
0
 10
8.03279094
 20
3.76469157
  0
VERTEX
  8
0
 10
8.06784025
 20
3.75029822
  0
VERTEX
  8
0
 10
8.10371342
 20
3.73771157
  0
VERTEX
  8
0
 10
8.14028671
 20
3.72674227
  0
VERTEX
  8
0
 10
8.17743636
 20
3.71720096
  0
VERTEX
  8
0
 10
8.21503865
 20
3.70889828
  0
VERTEX
  8
0
 10
8.25296982
 20
3.70164486
  0
VERTEX
  8
0
 10
8.32932386
 20
3.68952838
  0
VERTEX
  8
0
 10
8.40550854
 20
3.67933664
  0
VERTEX
  8
0
 10
8.48053391
 20
3.66955474
  0
VERTEX
  8
0
 10
8.54820992
 20
3.66304111
  0
VERTEX
  8
0
 10
8.61642336
 20
3.65779049
  0
VERTEX
  8
0
 10
8.68479700
 20
3.65246018
  0
VERTEX
  8
0
 10
8.75295362
 20
3.64570742
  0
VERTEX
  8
0
 10
8.78683266
 20
3.64137803
  0
VERTEX
  8
0
 10
8.82051598
 20
3.63618950
  0
VERTEX
  8
0
 10
8.85395643
 20
3.62997400
  0
VERTEX
  8
0
 10
8.88710686
 20
3.62256368
  0
VERTEX
  8
0
 10
8.91992010
 20
3.61379070
  0
VERTEX
  8
0
 10
8.95234901
 20
3.60348723
  0
VERTEX
  8
0
 10
8.98434644
 20
3.59148541
  0
VERTEX
  8
0
 10
9.01586523
 20
3.57761741
  0
VERTEX
  8
0
 10
9.04077342
 20
3.56415586
  0
VERTEX
  8
0
 10
9.06440120
 20
3.54917787
  0
VERTEX
  8
0
 10
9.08686198
 20
3.53282569
  0
VERTEX
  8
0
 10
9.10826918
 20
3.51524154
  0
VERTEX
  8
0
 10
9.12873624
 20
3.49656766
  0
VERTEX
  8
0
 10
9.14837656
 20
3.47694626
  0
VERTEX
  8
0
 10
9.16730358
 20
3.45651959
  0
VERTEX
  8
0
 10
9.18563072
 20
3.43542986
  0
VERTEX
  8
0
 10
9.22093902
 20
3.39183019
  0
VERTEX
  8
0
 10
9.25520885
 20
3.34728508
  0
VERTEX
  8
0
 10
9.28934759
 20
3.30293238
  0
VERTEX
  8
0
 10
9.32426262
 20
3.25990991
  0
VERTEX
  8
0
 10
9.33730173
 20
3.35773114
  0
VERTEX
  8
0
 10
9.34867803
 20
3.45582199
  0
VERTEX
  8
0
 10
9.35977520
 20
3.55400389
  0
VERTEX
  8
0
 10
9.37197693
 20
3.65209829
  0
VERTEX
  8
0
 10
9.37410822
 20
3.66458718
  0
VERTEX
  8
0
 10
9.37545253
 20
3.67694244
  0
VERTEX
  8
0
 10
9.37588801
 20
3.70123475
  0
VERTEX
  8
0
 10
9.37349885
 20
3.72494060
  0
VERTEX
  8
0
 10
9.36850055
 20
3.74802533
  0
VERTEX
  8
0
 10
9.36110860
 20
3.77045432
  0
VERTEX
  8
0
 10
9.35153849
 20
3.79219292
  0
VERTEX
  8
0
 10
9.34000572
 20
3.81320650
  0
VERTEX
  8
0
 10
9.32672578
 20
3.83346041
  0
VERTEX
  8
0
 10
9.31191416
 20
3.85292001
  0
VERTEX
  8
0
 10
9.29578635
 20
3.87155067
  0
VERTEX
  8
0
 10
9.27855785
 20
3.88931774
  0
VERTEX
  8
0
 10
9.26044415
 20
3.90618659
  0
VERTEX
  8
0
 10
9.24166074
 20
3.92212258
  0
VERTEX
  8
0
 10
9.22242312
 20
3.93709106
  0
VERTEX
  8
0
 10
9.20294678
 20
3.95105741
  0
VERTEX
  8
0
 10
9.18344721
 20
3.96398697
  0
VERTEX
  8
0
 10
9.16494416
 20
3.97600964
  0
VERTEX
  8
0
 10
9.14615325
 20
3.98709124
  0
VERTEX
  8
0
 10
9.12708843
 20
3.99727506
  0
VERTEX
  8
0
 10
9.10776365
 20
4.00660439
  0
VERTEX
  8
0
 10
9.08819286
 20
4.01512252
  0
VERTEX
  8
0
 10
9.06839001
 20
4.02287273
  0
VERTEX
  8
0
 10
9.02814397
 20
4.03624257
  0
VERTEX
  8
0
 10
8.98713714
 20
4.04706022
  0
VERTEX
  8
0
 10
8.94548116
 20
4.05567200
  0
VERTEX
  8
0
 10
8.90328763
 20
4.06242423
  0
VERTEX
  8
0
 10
8.86066819
 20
4.06766322
  0
VERTEX
  8
0
 10
8.81773445
 20
4.07173527
  0
VERTEX
  8
0
 10
8.77459804
 20
4.07498671
  0
VERTEX
  8
0
 10
8.68816370
 20
4.08041301
  0
VERTEX
  8
0
 10
8.60225814
 20
4.08671261
  0
VERTEX
  8
0
 10
8.55978272
 20
4.09105569
  0
VERTEX
  8
0
 10
8.51777435
 20
4.09665603
  0
VERTEX
  8
0
 10
8.47966648
 20
4.09793992
  0
VERTEX
  8
0
 10
8.44187240
 20
4.10087169
  0
VERTEX
  8
0
 10
8.40439329
 20
4.10537119
  0
VERTEX
  8
0
 10
8.36723035
 20
4.11135827
  0
VERTEX
  8
0
 10
8.33038475
 20
4.11875276
  0
VERTEX
  8
0
 10
8.29385768
 20
4.12747451
  0
VERTEX
  8
0
 10
8.25765031
 20
4.13744336
  0
VERTEX
  8
0
 10
8.22176385
 20
4.14857916
  0
VERTEX
  8
0
 10
8.18619946
 20
4.16080174
  0
VERTEX
  8
0
 10
8.15095833
 20
4.17403096
  0
VERTEX
  8
0
 10
8.11604165
 20
4.18818666
  0
VERTEX
  8
0
 10
8.08145060
 20
4.20318868
  0
VERTEX
  8
0
 10
8.04718637
 20
4.21895686
  0
VERTEX
  8
0
 10
8.01325012
 20
4.23541105
  0
VERTEX
  8
0
 10
7.94636636
 20
4.27005683
  0
SEQEND
  0
POLYLINE
  8
Default_Layer
 66
   1
 39
0.000000
 70
    1
  0
VERTEX
  8
0
 10
5.89697844
 20
4.01519257
  0
VERTEX
  8
0
 10
5.87133410
 20
4.01086802
  0
VERTEX
  8
0
 10
5.84512170
 20
4.00706755
  0
VERTEX
  8
0
 10
5.81883901
 20
4.00292082
  0
VERTEX
  8
0
 10
5.79298381
 20
3.99755746
  0
VERTEX
  8
0
 10
5.76805390
 20
3.99010711
  0
VERTEX
  8
0
 10
5.75609148
 20
3.98532733
  0
VERTEX
  8
0
 10
5.74454705
 20
3.97969941
  0
VERTEX
  8
0
 10
5.73348283
 20
3.97311457
  0
VERTEX
  8
0
 10
5.72296104
 20
3.96546400
  0
VERTEX
  8
0
 10
5.71304391
 20
3.95663891
  0
VERTEX
  8
0
 10
5.70379366
 20
3.94653051
  0
VERTEX
  8
0
 10
5.67288194
 20
3.91594029
  0
VERTEX
  8
0
 10
5.64094218
 20
3.88536883
  0
VERTEX
  8
0
 10
5.60762588
 20
3.85616347
  0
VERTEX
  8
0
 10
5.59034260
 20
3.84249411
  0
VERTEX
  8
0
 10
5.57258449
 20
3.82967153
  0
VERTEX
  8
0
 10
5.55430798
 20
3.81786414
  0
VERTEX
  8
0
 10
5.53546951
 20
3.80724035
  0
VERTEX
  8
0
 10
5.51602550
 20
3.79796859
  0
VERTEX
  8
0
 10
5.49593239
 20
3.79021728
  0
VERTEX
  8
0
 10
5.47514662
 20
3.78415482
  0
VERTEX
  8
0
 10
5.45362462
 20
3.77994964
  0
VERTEX
  8
0
 10
5.43132283
 20
3.77777015
  0
VERTEX
  8
0
 10
5.40819767
 20
3.77778477
  0
VERTEX
  8
0
 10
5.38811336
 20
3.77507992
  0
VERTEX
  8
0
 10
5.36799634
 20
3.77332856
  0
VERTEX
  8
0
 10
5.34785041
 20
3.77245329
  0
VERTEX
  8
0
 10
5.32767938
 20
3.77237665
  0
VERTEX
  8
0
 10
5.28727721
 20
3.77430958
  0
VERTEX
  8
0
 10
5.24682022
 20
3.77850791
  0
VERTEX
  8
0
 10
5.20633883
 20
3.78435221
  0
VERTEX
  8
0
 10
5.16586343
 20
3.79122303
  0
VERTEX
  8
0
 10
5.08505221
 20
3.80556644
  0
VERTEX
  8
0
 10
5.04477721
 20
3.81180016
  0
VERTEX
  8
0
 10
5.00462981
 20
3.81658262
  0
VERTEX
  8
0
 10
4.96464041
 20
3.81929439
  0
VERTEX
  8
0
 10
4.94471447
 20
3.81968019
  0
VERTEX
  8
0
 10
4.92483942
 20
3.81931602
  0
VERTEX
  8
0
 10
4.90501909
 20
3.81812446
  0
VERTEX
  8
0
 10
4.88525725
 20
3.81602807
  0
VERTEX
  8
0
 10
4.86555772
 20
3.81294942
  0
VERTEX
  8
0
 10
4.84592429
 20
3.80881109
  0
VERTEX
  8
0
 10
4.82636077
 20
3.80353565
  0
VERTEX
  8
0
 10
4.80687095
 20
3.79704565
  0
VERTEX
  8
0
 10
4.78745863
 20
3.78926368
  0
VERTEX
  8
0
 10
4.76812762
 20
3.78011230
  0
VERTEX
  8
0
 10
4.75228691
 20
3.77299317
  0
VERTEX
  8
0
 10
4.73673378
 20
3.76493820
  0
VERTEX
  8
0
 10
4.72150883
 20
3.75599235
  0
VERTEX
  8
0
 10
4.70665265
 20
3.74620057
  0
VERTEX
  8
0
 10
4.69220583
 20
3.73560783
  0
VERTEX
  8
0
 10
4.67820895
 20
3.72425908
  0
VERTEX
  8
0
 10
4.66470263
 20
3.71219928
  0
VERTEX
  8
0
 10
4.65172743
 20
3.69947339
  0
VERTEX
  8
0
 10
4.63932396
 20
3.68612637
  0
VERTEX
  8
0
 10
4.62753281
 20
3.67220317
  0
VERTEX
  8
0
 10
4.61639457
 20
3.65774876
  0
VERTEX
  8
0
 10
4.60594983
 20
3.64280808
  0
VERTEX
  8
0
 10
4.59623918
 20
3.62742611
  0
VERTEX
  8
0
 10
4.58730321
 20
3.61164779
  0
VERTEX
  8
0
 10
4.57918251
 20
3.59551808
  0
VERTEX
  8
0
 10
4.57191769
 20
3.57908195
  0
VERTEX
  8
0
 10
4.56554931
 20
3.56238435
  0
VERTEX
  8
0
 10
4.56011799
 20
3.54547024
  0
VERTEX
  8
0
 10
4.55566431
 20
3.52838457
  0
VERTEX
  8
0
 10
4.55222885
 20
3.51117231
  0
VERTEX
  8
0
 10
4.54985222
 20
3.49387841
  0
VERTEX
  8
0
 10
4.54857500
 20
3.47654784
  0
VERTEX
  8
0
 10
4.54843779
 20
3.45922554
  0
VERTEX
  8
0
 10
4.54948118
 20
3.44195648
  0
VERTEX
  8
0
 10
4.55174575
 20
3.42478562
  0
VERTEX
  8
0
 10
4.55527210
 20
3.40775791
  0
VERTEX
  8
0
 10
4.56010083
 20
3.39091831
  0
VERTEX
  8
0
 10
4.56627251
 20
3.37431178
  0
VERTEX
  8
0
 10
4.57382775
 20
3.35798328
  0
VERTEX
  8
0
 10
4.58280713
 20
3.34197776
  0
VERTEX
  8
0
 10
4.59325125
 20
3.32634019
  0
VERTEX
  8
0
 10
4.60520070
 20
3.31111552
  0
VERTEX
  8
0
 10
4.61812308
 20
3.29430741
  0
VERTEX
  8
0
 10
4.63169424
 20
3.27871194
  0
VERTEX
  8
0
 10
4.64588419
 20
3.26428484
  0
VERTEX
  8
0
 10
4.66066292
 20
3.25098185
  0
VERTEX
  8
0
 10
4.67600045
 20
3.23875871
  0
VERTEX
  8
0
 10
4.69186679
 20
3.22757114
  0
VERTEX
  8
0
 10
4.70823192
 20
3.21737488
  0
VERTEX
  8
0
 10
4.72506587
 20
3.20812567
  0
VERTEX
  8
0
 10
4.74233864
 20
3.19977925
  0
VERTEX
  8
0
 10
4.76002022
 20
3.19229135
  0
VERTEX
  8
0
 10
4.77808064
 20
3.18561770
  0
VERTEX
  8
0
 10
4.79648988
 20
3.17971404
  0
VERTEX
  8
0
 10
4.83423489
 20
3.17003964
  0
VERTEX
  8
0
 10
4.87301529
 20
3.16291402
  0
VERTEX
  8
0
 10
4.91259113
 20
3.15798306
  0
VERTEX
  8
0
 10
4.95272244
 20
3.15489266
  0
VERTEX
  8
0
 10
4.99316926
 20
3.15328868
  0
VERTEX
  8
0
 10
5.03369165
 20
3.15281703
  0
VERTEX
  8
0
 10
5.11400326
 20
3.15385418
  0
VERTEX
  8
0
 10
5.19173762
 20
3.15517118
  0
VERTEX
  8
0
 10
5.22733430
 20
3.15494808
  0
VERTEX
  8
0
 10
5.26232860
 20
3.15733668
  0
VERTEX
  8
0
 10
5.29677811
 20
3.16208087
  0
VERTEX
  8
0
 10
5.33074042
 20
3.16892455
  0
VERTEX
  8
0
 10
5.36427311
 20
3.17761163
  0
VERTEX
  8
0
 10
5.39743380
 20
3.18788600
  0
VERTEX
  8
0
 10
5.43028006
 20
3.19949158
  0
VERTEX
  8
0
 10
5.46286949
 20
3.21217225
  0
VERTEX
  8
0
 10
5.52750823
 20
3.23973450
  0
VERTEX
  8
0
 10
5.59181075
 20
3.26852397
  0
VERTEX
  8
0
 10
5.65623780
 20
3.29649186
  0
VERTEX
  8
0
 10
5.68864201
 20
3.30952747
  0
VERTEX
  8
0
 10
5.72125012
 20
3.32158939
  0
VERTEX
  8
0
 10
5.76547700
 20
3.33760311
  0
VERTEX
  8
0
 10
5.80909022
 20
3.35507683
  0
VERTEX
  8
0
 10
5.85219414
 20
3.37376177
  0
VERTEX
  8
0
 10
5.89489315
 20
3.39340915
  0
VERTEX
  8
0
 10
5.97949388
 20
3.43459614
  0
VERTEX
  8
0
 10
6.06372742
 20
3.47664761
  0
VERTEX
  8
0
 10
6.14842877
 20
3.51757334
  0
VERTEX
  8
0
 10
6.19121580
 20
3.53699212
  0
VERTEX
  8
0
 10
6.23443290
 20
3.55538314
  0
VERTEX
  8
0
 10
6.27818445
 20
3.57249762
  0
VERTEX
  8
0
 10
6.32257483
 20
3.58808679
  0
VERTEX
  8
0
 10
6.36770840
 20
3.60190187
  0
VERTEX
  8
0
 10
6.41368953
 20
3.61369409
  0
VERTEX
  8
0
 10
6.46923521
 20
3.62814678
  0
VERTEX
  8
0
 10
6.52563094
 20
3.64193653
  0
VERTEX
  8
0
 10
6.58273890
 20
3.65478624
  0
VERTEX
  8
0
 10
6.64042126
 20
3.66641879
  0
VERTEX
  8
0
 10
6.69854020
 20
3.67655707
  0
VERTEX
  8
0
 10
6.75695788
 20
3.68492397
  0
VERTEX
  8
0
 10
6.81553649
 20
3.69124239
  0
VERTEX
  8
0
 10
6.87413820
 20
3.69523520
  0
VERTEX
  8
0
 10
6.93262517
 20
3.69662530
  0
VERTEX
  8
0
 10
6.96178256
 20
3.69625774
  0
VERTEX
  8
0
 10
6.99085958
 20
3.69513558
  0
VERTEX
  8
0
 10
7.01983901
 20
3.69322419
  0
VERTEX
  8
0
 10
7.04870361
 20
3.69048892
  0
VERTEX
  8
0
 10
7.07743616
 20
3.68689515
  0
VERTEX
  8
0
 10
7.10601943
 20
3.68240823
  0
VERTEX
  8
0
 10
7.13443619
 20
3.67699352
  0
VERTEX
  8
0
 10
7.16266921
 20
3.67061638
  0
VERTEX
  8
0
 10
7.19070127
 20
3.66324217
  0
VERTEX
  8
0
 10
7.21851513
 20
3.65483626
  0
VERTEX
  8
0
 10
7.24609357
 20
3.64536401
  0
VERTEX
  8
0
 10
7.27341935
 20
3.63479077
  0
VERTEX
  8
0
 10
7.30047526
 20
3.62308191
  0
VERTEX
  8
0
 10
7.32724406
 20
3.61020279
  0
VERTEX
  8
0
 10
7.35986502
 20
3.59101774
  0
VERTEX
  8
0
 10
7.39371832
 20
3.56928014
  0
VERTEX
  8
0
 10
7.41041940
 20
3.55739761
  0
VERTEX
  8
0
 10
7.42660333
 20
3.54480911
  0
VERTEX
  8
0
 10
7.44199501
 20
3.53149205
  0
VERTEX
  8
0
 10
7.45631938
 20
3.51742381
  0
VERTEX
  8
0
 10
7.46930135
 20
3.50258179
  0
VERTEX
  8
0
 10
7.48066583
 20
3.48694337
  0
VERTEX
  8
0
 10
7.49013775
 20
3.47048594
  0
VERTEX
  8
0
 10
7.49744203
 20
3.45318691
  0
VERTEX
  8
0
 10
7.50230359
 20
3.43502366
  0
VERTEX
  8
0
 10
7.50444734
 20
3.41597358
  0
VERTEX
  8
0
 10
7.50441407
 20
3.40610892
  0
VERTEX
  8
0
 10
7.50359820
 20
3.39601407
  0
VERTEX
  8
0
 10
7.50196533
 20
3.38568622
  0
VERTEX
  8
0
 10
7.49948109
 20
3.37512252
  0
VERTEX
  8
0
 10
7.49047815
 20
3.35493093
  0
VERTEX
  8
0
 10
7.47957071
 20
3.33591623
  0
VERTEX
  8
0
 10
7.46691079
 20
3.31813298
  0
VERTEX
  8
0
 10
7.45265043
 20
3.30163572
  0
VERTEX
  8
0
 10
7.43694167
 20
3.28647902
  0
VERTEX
  8
0
 10
7.41993652
 20
3.27271741
  0
VERTEX
  8
0
 10
7.40178704
 20
3.26040546
  0
VERTEX
  8
0
 10
7.38264524
 20
3.24959772
  0
VERTEX
  8
0
 10
7.36266316
 20
3.24034872
  0
VERTEX
  8
0
 10
7.34199283
 20
3.23271304
  0
VERTEX
  8
0
 10
7.32078629
 20
3.22674521
  0
VERTEX
  8
0
 10
7.29919556
 20
3.22249979
  0
VERTEX
  8
0
 10
7.27737268
 20
3.22003133
  0
VERTEX
  8
0
 10
7.25546968
 20
3.21939439
  0
VERTEX
  8
0
 10
7.23363859
 20
3.22064350
  0
VERTEX
  8
0
 10
7.21203145
 20
3.22383324
  0
VERTEX
  8
0
 10
7.18307637
 20
3.22858336
  0
VERTEX
  8
0
 10
7.15366993
 20
3.23260392
  0
VERTEX
  8
0
 10
7.12392775
 20
3.23577008
  0
VERTEX
  8
0
 10
7.09396541
 20
3.23795697
  0
VERTEX
  8
0
 10
7.06389854
 20
3.23903973
  0
VERTEX
  8
0
 10
7.03384274
 20
3.23889352
  0
VERTEX
  8
0
 10
7.00391363
 20
3.23739348
  0
VERTEX
  8
0
 10
6.97422679
 20
3.23441476
  0
VERTEX
  8
0
 10
6.94489785
 20
3.22983250
  0
VERTEX
  8
0
 10
6.91604242
 20
3.22352184
  0
VERTEX
  8
0
 10
6.88777609
 20
3.21535793
  0
VERTEX
  8
0
 10
6.86021448
 20
3.20521593
  0
VERTEX
  8
0
 10
6.83347320
 20
3.19297096
  0
VERTEX
  8
0
 10
6.80766784
 20
3.17849819
  0
VERTEX
  8
0
 10
6.78291403
 20
3.16167274
  0
VERTEX
  8
0
 10
6.75932736
 20
3.14236978
  0
VERTEX
  8
0
 10
6.74733193
 20
3.13133012
  0
VERTEX
  8
0
 10
6.73689894
 20
3.11932936
  0
VERTEX
  8
0
 10
6.72796148
 20
3.10646907
  0
VERTEX
  8
0
 10
6.72045266
 20
3.09285085
  0
VERTEX
  8
0
 10
6.71430560
 20
3.07857627
  0
VERTEX
  8
0
 10
6.70945339
 20
3.06374692
  0
VERTEX
  8
0
 10
6.70582915
 20
3.04846438
  0
VERTEX
  8
0
 10
6.70336598
 20
3.03283024
  0
VERTEX
  8
0
 10
6.70199698
 20
3.01694608
  0
VERTEX
  8
0
 10
6.70165527
 20
3.00091349
  0
VERTEX
  8
0
 10
6.70227394
 20
2.98483404
  0
VERTEX
  8
0
 10
6.70378611
 20
2.96880933
  0
VERTEX
  8
0
 10
6.70612488
 20
2.95294094
  0
VERTEX
  8
0
 10
6.70922336
 20
2.93733044
  0
VERTEX
  8
0
 10
6.71743187
 20
2.90728950
  0
VERTEX
  8
0
 10
6.72509643
 20
2.89385378
  0
VERTEX
  8
0
 10
6.73334153
 20
2.88091235
  0
VERTEX
  8
0
 10
6.75148027
 20
2.85651214
  0
VERTEX
  8
0
 10
6.77166191
 20
2.83408844
  0
VERTEX
  8
0
 10
6.79370029
 20
2.81364084
  0
VERTEX
  8
0
 10
6.81740925
 20
2.79516891
  0
VERTEX
  8
0
 10
6.84260262
 20
2.77867223
  0
VERTEX
  8
0
 10
6.86909425
 20
2.76415037
  0
VERTEX
  8
0
 10
6.89669796
 20
2.75160292
  0
VERTEX
  8
0
 10
6.92522759
 20
2.74102945
  0
VERTEX
  8
0
 10
6.95449698
 20
2.73242954
  0
VERTEX
  8
0
 10
6.98431996
 20
2.72580276
  0
VERTEX
  8
0
 10
7.01451038
 20
2.72114869
  0
VERTEX
  8
0
 10
7.04488206
 20
2.71846691
  0
VERTEX
  8
0
 10
7.07524884
 20
2.71775700
  0
VERTEX
  8
0
 10
7.10542455
 20
2.71901852
  0
VERTEX
  8
0
 10
7.13522305
 20
2.72225107
  0
VERTEX
  8
0
 10
7.17460453
 20
2.72792711
  0
VERTEX
  8
0
 10
7.21387790
 20
2.73442408
  0
VERTEX
  8
0
 10
7.29218103
 20
2.74916856
  0
VERTEX
  8
0
 10
7.44837794
 20
2.78067367
  0
VERTEX
  8
0
 10
7.52659466
 20
2.79458519
  0
VERTEX
  8
0
 10
7.56580323
 20
2.80045744
  0
VERTEX
  8
0
 10
7.60510551
 20
2.80536993
  0
VERTEX
  8
0
 10
7.64452169
 20
2.80914459
  0
VERTEX
  8
0
 10
7.68407195
 20
2.81160335
  0
VERTEX
  8
0
 10
7.72377648
 20
2.81256813
  0
VERTEX
  8
0
 10
7.76365546
 20
2.81186088
  0
VERTEX
  8
0
 10
7.80287581
 20
2.81110054
  0
VERTEX
  8
0
 10
7.84231961
 20
2.81132067
  0
VERTEX
  8
0
 10
7.92166753
 20
2.81359138
  0
VERTEX
  8
0
 10
8.00127928
 20
2.81645110
  0
VERTEX
  8
0
 10
8.04105284
 20
2.81740751
  0
VERTEX
  8
0
 10
8.08073487
 20
2.81767797
  0
VERTEX
  8
0
 10
8.12027288
 20
2.81698473
  0
VERTEX
  8
0
 10
8.15961436
 20
2.81505008
  0
VERTEX
  8
0
 10
8.19870683
 20
2.81159626
  0
VERTEX
  8
0
 10
8.23749778
 20
2.80634555
  0
VERTEX
  8
0
 10
8.27593473
 20
2.79902021
  0
VERTEX
  8
0
 10
8.31396518
 20
2.78934250
  0
VERTEX
  8
0
 10
8.35153662
 20
2.77703469
  0
VERTEX
  8
0
 10
8.37013382
 20
2.76980770
  0
VERTEX
  8
0
 10
8.38859658
 20
2.76181904
  0
VERTEX
  8
0
 10
8.44206442
 20
2.73820661
  0
VERTEX
  8
0
 10
8.49521256
 20
2.71376747
  0
VERTEX
  8
0
 10
8.54785690
 20
2.68827734
  0
VERTEX
  8
0
 10
8.59981332
 20
2.66151196
  0
VERTEX
  8
0
 10
8.65089772
 20
2.63324706
  0
VERTEX
  8
0
 10
8.70092598
 20
2.60325839
  0
VERTEX
  8
0
 10
8.74971400
 20
2.57132167
  0
VERTEX
  8
0
 10
8.79707765
 20
2.53721264
  0
VERTEX
  8
0
 10
8.83489510
 20
2.50609659
  0
VERTEX
  8
0
 10
8.87067135
 20
2.47318177
  0
VERTEX
  8
0
 10
8.90464444
 20
2.43867448
  0
VERTEX
  8
0
 10
8.93705239
 20
2.40278104
  0
VERTEX
  8
0
 10
8.96813326
 20
2.36570777
  0
VERTEX
  8
0
 10
8.99812507
 20
2.32766097
  0
VERTEX
  8
0
 10
9.02726587
 20
2.28884696
  0
VERTEX
  8
0
 10
9.05579369
 20
2.24947206
  0
VERTEX
  8
0
 10
9.11196253
 20
2.16986481
  0
VERTEX
  8
0
 10
9.16853591
 20
2.09048972
  0
VERTEX
  8
0
 10
9.19756940
 20
2.05140503
  0
VERTEX
  8
0
 10
9.22741813
 20
2.01299731
  0
VERTEX
  8
0
 10
9.25832014
 20
1.97547289
  0
VERTEX
  8
0
 10
9.29051347
 20
1.93903808
  0
VERTEX
  8
0
 10
9.27091148
 20
2.00713018
  0
VERTEX
  8
0
 10
9.25226307
 20
2.07545833
  0
VERTEX
  8
0
 10
9.23479281
 20
2.14404829
  0
VERTEX
  8
0
 10
9.21872525
 20
2.21292579
  0
VERTEX
  8
0
 10
9.20428496
 20
2.28211656
  0
VERTEX
  8
0
 10
9.19169650
 20
2.35164633
  0
VERTEX
  8
0
 10
9.18118443
 20
2.42154085
  0
VERTEX
  8
0
 10
9.17297333
 20
2.49182585
  0
VERTEX
  8
0
 10
9.16869470
 20
2.52616189
  0
VERTEX
  8
0
 10
9.16533525
 20
2.56091726
  0
VERTEX
  8
0
 10
9.16202834
 20
2.59579847
  0
VERTEX
  8
0
 10
9.15790730
 20
2.63051200
  0
VERTEX
  8
0
 10
9.15210550
 20
2.66476433
  0
VERTEX
  8
0
 10
9.14830348
 20
2.68162583
  0
VERTEX
  8
0
 10
9.14375626
 20
2.69826196
  0
VERTEX
  8
0
 10
9.13835553
 20
2.71463603
  0
VERTEX
  8
0
 10
9.13199295
 20
2.73071136
  0
VERTEX
  8
0
 10
9.12456019
 20
2.74645126
  0
VERTEX
  8
0
 10
9.11594891
 20
2.76181904
  0
VERTEX
  8
0
 10
9.09980078
 20
2.78687548
  0
VERTEX
  8
0
 10
9.08290286
 20
2.81139891
  0
VERTEX
  8
0
 10
9.06527642
 20
2.83537835
  0
VERTEX
  8
0
 10
9.04694271
 20
2.85880281
  0
VERTEX
  8
0
 10
9.02792297
 20
2.88166131
  0
VERTEX
  8
0
 10
9.00823847
 20
2.90394288
  0
VERTEX
  8
0
 10
8.98791046
 20
2.92563652
  0
VERTEX
  8
0
 10
8.96696019
 20
2.94673125
  0
VERTEX
  8
0
 10
8.94540891
 20
2.96721610
  0
VERTEX
  8
0
 10
8.92327789
 20
2.98708008
  0
VERTEX
  8
0
 10
8.90058836
 20
3.00631222
  0
VERTEX
  8
0
 10
8.87736160
 20
3.02490152
  0
VERTEX
  8
0
 10
8.85361884
 20
3.04283701
  0
VERTEX
  8
0
 10
8.82938135
 20
3.06010770
  0
VERTEX
  8
0
 10
8.80467037
 20
3.07670262
  0
VERTEX
  8
0
 10
8.77950717
 20
3.09261077
  0
VERTEX
  8
0
 10
8.75391299
 20
3.10782119
  0
VERTEX
  8
0
 10
8.72790910
 20
3.12232289
  0
VERTEX
  8
0
 10
8.70151673
 20
3.13610488
  0
VERTEX
  8
0
 10
8.67475715
 20
3.14915619
  0
VERTEX
  8
0
 10
8.64765161
 20
3.16146582
  0
VERTEX
  8
0
 10
8.62022137
 20
3.17302281
  0
VERTEX
  8
0
 10
8.59248767
 20
3.18381617
  0
VERTEX
  8
0
 10
8.56447178
 20
3.19383492
  0
VERTEX
  8
0
 10
8.53619494
 20
3.20306807
  0
VERTEX
  8
0
 10
8.50767841
 20
3.21150464
  0
VERTEX
  8
0
 10
8.47894344
 20
3.21913365
  0
VERTEX
  8
0
 10
8.45001129
 20
3.22594413
  0
VERTEX
  8
0
 10
8.42090320
 20
3.23192508
  0
VERTEX
  8
0
 10
8.39164045
 20
3.23706553
  0
VERTEX
  8
0
 10
8.36224427
 20
3.24135449
  0
VERTEX
  8
0
 10
8.33273592
 20
3.24478098
  0
VERTEX
  8
0
 10
8.24256396
 20
3.24569853
  0
VERTEX
  8
0
 10
8.15212925
 20
3.24532313
  0
VERTEX
  8
0
 10
8.06162268
 20
3.24514691
  0
VERTEX
  8
0
 10
7.97123516
 20
3.24666199
  0
VERTEX
  8
0
 10
7.92614571
 20
3.24852006
  0
VERTEX
  8
0
 10
7.88115761
 20
3.25136051
  0
VERTEX
  8
0
 10
7.83629472
 20
3.25536984
  0
VERTEX
  8
0
 10
7.79158091
 20
3.26073458
  0
VERTEX
  8
0
 10
7.74704004
 20
3.26764123
  0
VERTEX
  8
0
 10
7.70269597
 20
3.27627633
  0
VERTEX
  8
0
 10
7.65857257
 20
3.28682637
  0
VERTEX
  8
0
 10
7.61469370
 20
3.29947788
  0
VERTEX
  8
0
 10
7.61578209
 20
3.35462427
  0
VERTEX
  8
0
 10
7.61850365
 20
3.40968722
  0
VERTEX
  8
0
 10
7.62259289
 20
3.46468579
  0
VERTEX
  8
0
 10
7.62778431
 20
3.51963905
  0
VERTEX
  8
0
 10
7.64041166
 20
3.62948597
  0
VERTEX
  8
0
 10
7.65426167
 20
3.73938057
  0
VERTEX
  8
0
 10
7.65472182
 20
3.75756378
  0
VERTEX
  8
0
 10
7.65630171
 20
3.77644795
  0
VERTEX
  8
0
 10
7.65810558
 20
3.79568267
  0
VERTEX
  8
0
 10
7.65923766
 20
3.81491756
  0
VERTEX
  8
0
 10
7.65880218
 20
3.83380223
  0
VERTEX
  8
0
 10
7.65771668
 20
3.84300374
  0
VERTEX
  8
0
 10
7.65590338
 20
3.85198630
  0
VERTEX
  8
0
 10
7.65325031
 20
3.86070610
  0
VERTEX
  8
0
 10
7.64964549
 20
3.86911936
  0
VERTEX
  8
0
 10
7.64497696
 20
3.87718227
  0
VERTEX
  8
0
 10
7.63913274
 20
3.88485103
  0
VERTEX
  8
0
 10
7.61010803
 20
3.91944091
  0
VERTEX
  8
0
 10
7.57922117
 20
3.95241002
  0
VERTEX
  8
0
 10
7.54658245
 20
3.98367226
  0
VERTEX
  8
0
 10
7.51230210
 20
4.01314151
  0
VERTEX
  8
0
 10
7.47649041
 20
4.04073167
  0
VERTEX
  8
0
 10
7.43925763
 20
4.06635662
  0
VERTEX
  8
0
 10
7.40071403
 20
4.08993027
  0
VERTEX
  8
0
 10
7.36096986
 20
4.11136649
  0
VERTEX
  8
0
 10
7.32013540
 20
4.13057918
  0
VERTEX
  8
0
 10
7.27832089
 20
4.14748222
  0
VERTEX
  8
0
 10
7.23563662
 20
4.16198952
  0
VERTEX
  8
0
 10
7.19219283
 20
4.17401496
  0
VERTEX
  8
0
 10
7.14809980
 20
4.18347243
  0
VERTEX
  8
0
 10
7.10346779
 20
4.19027583
  0
VERTEX
  8
0
 10
7.05840705
 20
4.19433904
  0
VERTEX
  8
0
 10
7.01302785
 20
4.19557595
  0
VERTEX
  8
0
 10
6.97716497
 20
4.19782754
  0
VERTEX
  8
0
 10
6.94142955
 20
4.19904960
  0
VERTEX
  8
0
 10
6.90581521
 20
4.19929419
  0
VERTEX
  8
0
 10
6.87031557
 20
4.19861336
  0
VERTEX
  8
0
 10
6.83492424
 20
4.19705917
  0
VERTEX
  8
0
 10
6.79963485
 20
4.19468368
  0
VERTEX
  8
0
 10
6.72933634
 20
4.18767706
  0
VERTEX
  8
0
 10
6.65936896
 20
4.17800996
  0
VERTEX
  8
0
 10
6.58968165
 20
4.16609886
  0
VERTEX
  8
0
 10
6.52022335
 20
4.15236024
  0
VERTEX
  8
0
 10
6.45094299
 20
4.13721057
  0
VERTEX
  8
0
 10
6.31271186
 20
4.10434398
  0
VERTEX
  8
0
 10
6.17457973
 20
4.07083092
  0
VERTEX
  8
0
 10
6.10542313
 20
4.05487315
  0
VERTEX
  8
0
 10
6.03613809
 20
4.04000318
  0
VERTEX
  8
0
 10
5.96667355
 20
4.02663750
  0
VERTEX
  8
0
 10
5.89697844
 20
4.01519257
  0
SEQEND
  0
POLYLINE
  8
Default_Layer
 66
   1
 39
0.000000
 70
    1
  0
VERTEX
  8
0
 10
2.62093228
 20
7.10213291
  0
VERTEX
  8
0
 10
2.44965663
 20
6.98878570
  0
VERTEX
  8
0
 10
2.50452915
 20
7.18670474
  0
VERTEX
  8
0
 10
2.34380246
 20
7.31457135
  0
VERTEX
  8
0
 10
2.54899119
 20
7.32354483
  0
VERTEX
  8
0
 10
2.62093228
 20
7.51591795
  0
VERTEX
  8
0
 10
2.69287337
 20
7.32354483
  0
VERTEX
  8
0
 10
2.89806210
 20
7.31457135
  0
VERTEX
  8
0
 10
2.73733541
 20
7.18670474
  0
VERTEX
  8
0
 10
2.79220793
 20
6.98878570
  0
VERTEX
  8
0
 10
2.62093228
 20
7.10213291
  0
SEQEND
  0
POLYLINE
  8
Default_Layer
 66
   1
 39
0.000000
 70
    1
  0
VERTEX
  8
0
 10
4.09198090
 20
7.22426926
  0
VERTEX
  8
0
 10
3.92070525
 20
7.11092205
  0
VERTEX
  8
0
 10
3.97557777
 20
7.30884109
  0
VERTEX
  8
0
 10
3.81485108
 20
7.43670769
  0
VERTEX
  8
0
 10
4.02003981
 20
7.44568117
  0
VERTEX
  8
0
 10
4.09198090
 20
7.63805430
  0
VERTEX
  8
0
 10
4.16392199
 20
7.44568117
  0
VERTEX
  8
0
 10
4.36911072
 20
7.43670769
  0
VERTEX
  8
0
 10
4.20838403
 20
7.30884109
  0
VERTEX
  8
0
 10
4.26325655
 20
7.11092205
  0
VERTEX
  8
0
 10
4.09198090
 20
7.22426926
  0
SEQEND
  0
POLYLINE
  8
Default_Layer
 66
   1
 39
0.000000
 70
    1
  0
VERTEX
  8
0
 10
5.21603577
 20
7.09695678
  0
VERTEX
  8
0
 10
5.04476012
 20
6.98360957
  0
VERTEX
  8
0
 10
5.09963264
 20
7.18152861
  0
VERTEX
  8
0
 10
4.93890595
 20
7.30939522
  0
VERTEX
  8
0
 10
5.14409468
 20
7.31836870
  0
VERTEX
  8
0
 10
5.21603577
 20
7.51074182
  0
VERTEX
  8
0
 10
5.28797686
 20
7.31836870
  0
VERTEX
  8
0
 10
5.49316560
 20
7.30939522
  0
VERTEX
  8
0
 10
5.33243890
 20
7.18152861
  0
VERTEX
  8
0
 10
5.38731142
 20
6.98360957
  0
VERTEX
  8
0
 10
5.21603577
 20
7.09695678
  0
SEQEND
  0
POLYLINE
  8
Default_Layer
 66
   1
 39
0.000000
 70
    1
  0
VERTEX
  8
0
 10
4.59892906
 20
7.72664937
  0
VERTEX
  8
0
 10
4.42765341
 20
7.61330216
  0
VERTEX
  8
0
 10
4.48252593
 20
7.81122120
  0
VERTEX
  8
0
 10
4.32179923
 20
7.93908781
  0
VERTEX
  8
0
 10
4.52698797
 20
7.94806129
  0
VERTEX
  8
0
 10
4.59892906
 20
8.14043441
  0
VERTEX
  8
0
 10
4.67087015
 20
7.94806129
  0
VERTEX
  8
0
 10
4.87605888
 20
7.93908781
  0
VERTEX
  8
0
 10
4.71533219
 20
7.81122120
  0
VERTEX
  8
0
 10
4.77020471
 20
7.61330216
  0
VERTEX
  8
0
 10
4.59892906
 20
7.72664937
  0
SEQEND
  0
POLYLINE
  8
Default_Layer
 66
   1
 39
0.000000
 70
    1
  0
VERTEX
  8
0
 10
3.84598010
 20
8.14431522
  0
VERTEX
  8
0
 10
3.67470445
 20
8.03096801
  0
VERTEX
  8
0
 10
3.72957696
 20
8.22888705
  0
VERTEX
  8
0
 10
3.56885027
 20
8.35675366
  0
VERTEX
  8
0
 10
3.77403901
 20
8.36572714
  0
VERTEX
  8
0
 10
3.84598010
 20
8.55810026
  0
VERTEX
  8
0
 10
3.91792119
 20
8.36572714
  0
VERTEX
  8
0
 10
4.12310992
 20
8.35675366
  0
VERTEX
  8
0
 10
3.96238323
 20
8.22888705
  0
VERTEX
  8
0
 10
4.01725575
 20
8.03096801
  0
VERTEX
  8
0
 10
3.84598010
 20
8.14431522
  0
SEQEND
  0
POLYLINE
  8
Default_Layer
 66
   1
 39
0.000000
 70
    1
  0
VERTEX
  8
0
 10
3.28213120
 20
7.64311620
  0
VERTEX
  8
0
 10
3.11085555
 20
7.52976899
  0
VERTEX
  8
0
 10
3.16572807
 20
7.72768803
  0
VERTEX
  8
0
 10
3.00500138
 20
7.85555464
  0
VERTEX
  8
0
 10
3.21019011
 20
7.86452812
  0
VERTEX
  8
0
 10
3.28213120
 20
8.05690124
  0
VERTEX
  8
0
 10
3.35407229
 20
7.86452812
  0
VERTEX
  8
0
 10
3.55926102
 20
7.85555464
  0
VERTEX
  8
0
 10
3.39853433
 20
7.72768803
  0
VERTEX
  8
0
 10
3.45340685
 20
7.52976899
  0
VERTEX
  8
0
 10
3.28213120
 20
7.64311620
  0
SEQEND
  0
POLYLINE
  8
Default_Layer
 66
   1
 39
0.000000
 70
    1
  0
VERTEX
  8
0
 10
2.38530006
 20
8.09210699
  0
VERTEX
  8
0
 10
2.21402440
 20
7.97875978
  0
VERTEX
  8
0
 10
2.26889692
 20
8.17667882
  0
VERTEX
  8
0
 10
2.10817023
 20
8.30454543
  0
VERTEX
  8
0
 10
2.31335896
 20
8.31351891
  0
VERTEX
  8
0
 10
2.38530006
 20
8.50589203
  0
VERTEX
  8
0
 10
2.45724115
 20
8.31351891
  0
VERTEX
  8
0
 10
2.66242988
 20
8.30454543
  0
VERTEX
  8
0
 10
2.50170319
 20
8.17667882
  0
VERTEX
  8
0
 10
2.55657571
 20
7.97875978
  0
VERTEX
  8
0
 10
2.38530006
 20
8.09210699
  0
SEQEND
  0
POLYLINE
  8
Default_Layer
 66
   1
 39
0.000000
 70
    1
  0
VERTEX
  8
0
 10
3.05256400
 20
8.64103700
  0
VERTEX
  8
0
 10
2.88128835
 20
8.52768979
  0
VERTEX
  8
0
 10
2.93616087
 20
8.72560882
  0
VERTEX
  8
0
 10
2.77543418
 20
8.85347543
  0
VERTEX
  8
0
 10
2.98062291
 20
8.86244891
  0
VERTEX
  8
0
 10
3.05256400
 20
9.05482204
  0
VERTEX
  8
0
 10
3.12450509
 20
8.86244891
  0
VERTEX
  8
0
 10
3.32969382
 20
8.85347543
  0
VERTEX
  8
0
 10
3.16896713
 20
8.72560882
  0
VERTEX
  8
0
 10
3.22383965
 20
8.52768979
  0
VERTEX
  8
0
 10
3.05256400
 20
8.64103700
  0
SEQEND
  0
POLYLINE
  8
Default_Layer
 66
   1
 39
0.000000
 70
    1
  0
VERTEX
  8
0
 10
4.42564048
 20
8.60449124
  0
VERTEX
  8
0
 10
4.25436483
 20
8.49114402
  0
VERTEX
  8
0
 10
4.30923735
 20
8.68906306
  0
VERTEX
  8
0
 10
4.14851066
 20
8.81692967
  0
VERTEX
  8
0
 10
4.35369939
 20
8.82590315
  0
VERTEX
  8
0
 10
4.42564048
 20
9.01827627
  0
VERTEX
  8
0
 10
4.49758157
 20
8.82590315
  0
VERTEX
  8
0
 10
4.70277030
 20
8.81692967
  0
VERTEX
  8
0
 10
4.54204361
 20
8.68906306
  0
VERTEX
  8
0
 10
4.59691613
 20
8.49114402
  0
VERTEX
  8
0
 10
4.42564048
 20
8.60449124
  0
SEQEND
  0
POLYLINE
  8
Default_Layer
 66
   1
 39
0.000000
 70
    1
  0
VERTEX
  8
0
 10
5.22442642
 20
8.21292950
  0
VERTEX
  8
0
 10
5.05315077
 20
8.09958229
  0
VERTEX
  8
0
 10
5.10802329
 20
8.29750133
  0
VERTEX
  8
0
 10
4.94729659
 20
8.42536794
  0
VERTEX
  8
0
 10
5.15248533
 20
8.43434142
  0
VERTEX
  8
0
 10
5.22442642
 20
8.62671454
  0
VERTEX
  8
0
 10
5.29636751
 20
8.43434142
  0
VERTEX
  8
0
 10
5.50155624
 20
8.42536794
  0
VERTEX
  8
0
 10
5.34082955
 20
8.29750133
  0
VERTEX
  8
0
 10
5.39570207
 20
8.09958229
  0
VERTEX
  8
0
 10
5.22442642
 20
8.21292950
  0
SEQEND
  0
POLYLINE
  8
Default_Layer
 66
   1
 39
0.000000
 70
    1
  0
VERTEX
  8
0
 10
5.54389804
 20
9.25112972
  0
VERTEX
  8
0
 10
5.37262239
 20
9.13778251
  0
VERTEX
  8
0
 10
5.42749491
 20
9.33570155
  0
VERTEX
  8
0
 10
5.26676822
 20
9.46356816
  0
VERTEX
  8
0
 10
5.47195695
 20
9.47254164
  0
VERTEX
  8
0
 10
5.54389804
 20
9.66491476
  0
VERTEX
  8
0
 10
5.61583914
 20
9.47254164
  0
VERTEX
  8
0
 10
5.82102787
 20
9.46356816
  0
VERTEX
  8
0
 10
5.66030118
 20
9.33570155
  0
VERTEX
  8
0
 10
5.71517369
 20
9.13778251
  0
VERTEX
  8
0
 10
5.54389804
 20
9.25112972
  0
SEQEND
  0
POLYLINE
  8
Default_Layer
 66
   1
 39
0.000000
 70
    1
  0
VERTEX
  8
0
 10
4.99146060
 20
9.01428229
  0
VERTEX
  8
0
 10
4.82018495
 20
8.90093508
  0
VERTEX
  8
0
 10
4.87505747
 20
9.09885412
  0
VERTEX
  8
0
 10
4.71433078
 20
9.22672073
  0
VERTEX
  8
0
 10
4.91951951
 20
9.23569421
  0
VERTEX
  8
0
 10
4.99146060
 20
9.42806733
  0
VERTEX
  8
0
 10
5.06340169
 20
9.23569421
  0
VERTEX
  8
0
 10
5.26859042
 20
9.22672073
  0
VERTEX
  8
0
 10
5.10786373
 20
9.09885412
  0
VERTEX
  8
0
 10
5.16273625
 20
8.90093508
  0
VERTEX
  8
0
 10
4.99146060
 20
9.01428229
  0
SEQEND
  0
POLYLINE
  8
Default_Layer
 66
   1
 39
0.000000
 70
    1
  0
VERTEX
  8
0
 10
3.70918911
 20
9.10697368
  0
VERTEX
  8
0
 10
3.53791346
 20
8.99362647
  0
VERTEX
  8
0
 10
3.59278598
 20
9.19154551
  0
VERTEX
  8
0
 10
3.43205929
 20
9.31941212
  0
VERTEX
  8
0
 10
3.63724802
 20
9.32838560
  0
VERTEX
  8
0
 10
3.70918911
 20
9.52075872
  0
VERTEX
  8
0
 10
3.78113020
 20
9.32838560
  0
VERTEX
  8
0
 10
3.98631894
 20
9.31941212
  0
VERTEX
  8
0
 10
3.82559224
 20
9.19154551
  0
VERTEX
  8
0
 10
3.88046476
 20
8.99362647
  0
VERTEX
  8
0
 10
3.70918911
 20
9.10697368
  0
SEQEND
  0
POLYLINE
  8
Default_Layer
 66
   1
 39
0.000000
 70
    1
  0
VERTEX
  8
0
 10
3.09630181
 20
9.67732683
  0
VERTEX
  8
0
 10
2.92502616
 20
9.56397962
  0
VERTEX
  8
0
 10
2.97989868
 20
9.76189866
  0
VERTEX
  8
0
 10
2.81917198
 20
9.88976526
  0
VERTEX
  8
0
 10
3.02436072
 20
9.89873875
  0
VERTEX
  8
0
 10
3.09630181
 20
10.09111187
  0
VERTEX
  8
0
 10
3.16824290
 20
9.89873875
  0
VERTEX
  8
0
 10
3.37343163
 20
9.88976526
  0
VERTEX
  8
0
 10
3.21270494
 20
9.76189866
  0
VERTEX
  8
0
 10
3.26757746
 20
9.56397962
  0
VERTEX
  8
0
 10
3.09630181
 20
9.67732683
  0
SEQEND
  0
POLYLINE
  8
Default_Layer
 66
   1
 39
0.000000
 70
    1
  0
VERTEX
  8
0
 10
2.39937580
 20
9.20698051
  0
VERTEX
  8
0
 10
2.22810015
 20
9.09363330
  0
VERTEX
  8
0
 10
2.28297266
 20
9.29155234
  0
VERTEX
  8
0
 10
2.12224597
 20
9.41941894
  0
VERTEX
  8
0
 10
2.32743470
 20
9.42839242
  0
VERTEX
  8
0
 10
2.39937580
 20
9.62076555
  0
VERTEX
  8
0
 10
2.47131689
 20
9.42839242
  0
VERTEX
  8
0
 10
2.67650562
 20
9.41941894
  0
VERTEX
  8
0
 10
2.51577893
 20
9.29155234
  0
VERTEX
  8
0
 10
2.57065145
 20
9.09363330
  0
VERTEX
  8
0
 10
2.39937580
 20
9.20698051
  0
SEQEND
  0
POLYLINE
  8
Default_Layer
 66
   1
 39
0.000000
 70
    1
  0
VERTEX
  8
0
 10
2.22810015
 20
10.07380803
  0
VERTEX
  8
0
 10
2.05682450
 20
9.96046082
  0
VERTEX
  8
0
 10
2.11169701
 20
10.15837986
  0
VERTEX
  8
0
 10
1.95097032
 20
10.28624647
  0
VERTEX
  8
0
 10
2.15615905
 20
10.29521995
  0
VERTEX
  8
0
 10
2.22810015
 20
10.48759307
  0
VERTEX
  8
0
 10
2.30004124
 20
10.29521995
  0
VERTEX
  8
0
 10
2.50522997
 20
10.28624647
  0
VERTEX
  8
0
 10
2.34450328
 20
10.15837986
  0
VERTEX
  8
0
 10
2.39937580
 20
9.96046082
  0
VERTEX
  8
0
 10
2.22810015
 20
10.07380803
  0
SEQEND
  0
POLYLINE
  8
Default_Layer
 66
   1
 39
0.000000
 70
    1
  0
VERTEX
  8
0
 10
3.80958335
 20
10.11852994
  0
VERTEX
  8
0
 10
3.63830770
 20
10.00518273
  0
VERTEX
  8
0
 10
3.69318022
 20
10.20310177
  0
VERTEX
  8
0
 10
3.53245353
 20
10.33096838
  0
VERTEX
  8
0
 10
3.73764226
 20
10.33994186
  0
VERTEX
  8
0
 10
3.80958335
 20
10.53231498
  0
VERTEX
  8
0
 10
3.88152445
 20
10.33994186
  0
VERTEX
  8
0
 10
4.08671318
 20
10.33096838
  0
VERTEX
  8
0
 10
3.92598649
 20
10.20310177
  0
VERTEX
  8
0
 10
3.98085900
 20
10.00518273
  0
VERTEX
  8
0
 10
3.80958335
 20
10.11852994
  0
SEQEND
  0
POLYLINE
  8
Default_Layer
 66
   1
 39
0.000000
 70
    1
  0
VERTEX
  8
0
 10
4.33443552
 20
9.52046602
  0
VERTEX
  8
0
 10
4.16315987
 20
9.40711880
  0
VERTEX
  8
0
 10
4.21803239
 20
9.60503784
  0
VERTEX
  8
0
 10
4.05730570
 20
9.73290445
  0
VERTEX
  8
0
 10
4.26249443
 20
9.74187793
  0
VERTEX
  8
0
 10
4.33443552
 20
9.93425105
  0
VERTEX
  8
0
 10
4.40637661
 20
9.74187793
  0
VERTEX
  8
0
 10
4.61156534
 20
9.73290445
  0
VERTEX
  8
0
 10
4.45083865
 20
9.60503784
  0
VERTEX
  8
0
 10
4.50571117
 20
9.40711880
  0
VERTEX
  8
0
 10
4.33443552
 20
9.52046602
  0
SEQEND
  0
POLYLINE
  8
Default_Layer
 66
   1
 39
0.000000
 70
    1
  0
VERTEX
  8
0
 10
5.01447467
 20
9.80784741
  0
VERTEX
  8
0
 10
4.84319902
 20
9.69450020
  0
VERTEX
  8
0
 10
4.89807154
 20
9.89241923
  0
VERTEX
  8
0
 10
4.73734484
 20
10.02028584
  0
VERTEX
  8
0
 10
4.94253358
 20
10.02925932
  0
VERTEX
  8
0
 10
5.01447467
 20
10.22163245
  0
VERTEX
  8
0
 10
5.08641576
 20
10.02925932
  0
VERTEX
  8
0
 10
5.29160449
 20
10.02028584
  0
VERTEX
  8
0
 10
5.13087780
 20
9.89241923
  0
VERTEX
  8
0
 10
5.18575032
 20
9.69450020
  0
VERTEX
  8
0
 10
5.01447467
 20
9.80784741
  0
SEQEND
  0
POLYLINE
  8
Default_Layer
 66
   1
 39
0.000000
 70
    1
  0
VERTEX
  8
0
 10
5.63370162
 20
10.02061773
  0
VERTEX
  8
0
 10
5.46242597
 20
9.90727052
  0
VERTEX
  8
0
 10
5.51729849
 20
10.10518956
  0
VERTEX
  8
0
 10
5.35657180
 20
10.23305616
  0
VERTEX
  8
0
 10
5.56176053
 20
10.24202964
  0
VERTEX
  8
0
 10
5.63370162
 20
10.43440277
  0
VERTEX
  8
0
 10
5.70564271
 20
10.24202964
  0
VERTEX
  8
0
 10
5.91083144
 20
10.23305616
  0
VERTEX
  8
0
 10
5.75010475
 20
10.10518956
  0
VERTEX
  8
0
 10
5.80497727
 20
9.90727052
  0
VERTEX
  8
0
 10
5.63370162
 20
10.02061773
  0
SEQEND
  0
POLYLINE
  8
Default_Layer
 66
   1
 39
0.000000
 70
    1
  0
VERTEX
  8
0
 10
5.19279526
 20
10.61733322
  0
VERTEX
  8
0
 10
5.02151961
 20
10.50398600
  0
VERTEX
  8
0
 10
5.07639212
 20
10.70190504
  0
VERTEX
  8
0
 10
4.91566543
 20
10.82977165
  0
VERTEX
  8
0
 10
5.12085416
 20
10.83874513
  0
VERTEX
  8
0
 10
5.19279526
 20
11.03111825
  0
VERTEX
  8
0
 10
5.26473635
 20
10.83874513
  0
VERTEX
  8
0
 10
5.46992508
 20
10.82977165
  0
VERTEX
  8
0
 10
5.30919839
 20
10.70190504
  0
VERTEX
  8
0
 10
5.36407091
 20
10.50398600
  0
VERTEX
  8
0
 10
5.19279526
 20
10.61733322
  0
SEQEND
  0
POLYLINE
  8
Default_Layer
 66
   1
 39
0.000000
 70
    1
  0
VERTEX
  8
0
 10
4.42649288
 20
10.51291675
  0
VERTEX
  8
0
 10
4.25521723
 20
10.39956954
  0
VERTEX
  8
0
 10
4.31008975
 20
10.59748858
  0
VERTEX
  8
0
 10
4.14936305
 20
10.72535519
  0
VERTEX
  8
0
 10
4.35455179
 20
10.73432867
  0
VERTEX
  8
0
 10
4.42649288
 20
10.92670179
  0
VERTEX
  8
0
 10
4.49843397
 20
10.73432867
  0
VERTEX
  8
0
 10
4.70362270
 20
10.72535519
  0
VERTEX
  8
0
 10
4.54289601
 20
10.59748858
  0
VERTEX
  8
0
 10
4.59776853
 20
10.39956954
  0
VERTEX
  8
0
 10
4.42649288
 20
10.51291675
  0
SEQEND
  0
POLYLINE
  8
Default_Layer
 66
   1
 39
0.000000
 70
    1
  0
VERTEX
  8
0
 10
3.53033340
 20
10.84495844
  0
VERTEX
  8
0
 10
3.35905775
 20
10.73161123
  0
VERTEX
  8
0
 10
3.41393027
 20
10.92953026
  0
VERTEX
  8
0
 10
3.25320357
 20
11.05739687
  0
VERTEX
  8
0
 10
3.45839231
 20
11.06637035
  0
VERTEX
  8
0
 10
3.53033340
 20
11.25874348
  0
VERTEX
  8
0
 10
3.60227449
 20
11.06637035
  0
VERTEX
  8
0
 10
3.80746322
 20
11.05739687
  0
VERTEX
  8
0
 10
3.64673653
 20
10.92953026
  0
VERTEX
  8
0
 10
3.70160905
 20
10.73161123
  0
VERTEX
  8
0
 10
3.53033340
 20
10.84495844
  0
SEQEND
  0
POLYLINE
  8
Default_Layer
 66
   1
 39
0.000000
 70
    1
  0
VERTEX
  8
0
 10
2.85148275
 20
10.56514997
  0
VERTEX
  8
0
 10
2.68020710
 20
10.45180276
  0
VERTEX
  8
0
 10
2.73507962
 20
10.64972179
  0
VERTEX
  8
0
 10
2.57435293
 20
10.77758840
  0
VERTEX
  8
0
 10
2.77954166
 20
10.78656188
  0
VERTEX
  8
0
 10
2.85148275
 20
10.97893501
  0
VERTEX
  8
0
 10
2.92342384
 20
10.78656188
  0
VERTEX
  8
0
 10
3.12861258
 20
10.77758840
  0
VERTEX
  8
0
 10
2.96788589
 20
10.64972179
  0
VERTEX
  8
0
 10
3.02275840
 20
10.45180276
  0
VERTEX
  8
0
 10
2.85148275
 20
10.56514997
  0
SEQEND
  0
POLYLINE
  8
Default_Layer
 66
   1
 39
0.000000
 70
    1
  0
VERTEX
  8
0
 10
2.07507148
 20
10.89249519
  0
VERTEX
  8
0
 10
1.90379582
 20
10.77914798
  0
VERTEX
  8
0
 10
1.95866834
 20
10.97706702
  0
VERTEX
  8
0
 10
1.79794165
 20
11.10493362
  0
VERTEX
  8
0
 10
2.00313038
 20
11.11390711
  0
VERTEX
  8
0
 10
2.07507148
 20
11.30628023
  0
VERTEX
  8
0
 10
2.14701257
 20
11.11390711
  0
VERTEX
  8
0
 10
2.35220130
 20
11.10493362
  0
VERTEX
  8
0
 10
2.19147461
 20
10.97706702
  0
VERTEX
  8
0
 10
2.24634713
 20
10.77914798
  0
VERTEX
  8
0
 10
2.07507148
 20
10.89249519
  0
SEQEND
  0
POLYLINE
  8
Default_Layer
 66
   1
 39
0.000000
 70
    1
  0
VERTEX
  8
0
 10
0.23035236
 20
0.05000000
  0
VERTEX
  8
0
 10
11.76964764
 20
0.05000000
  0
VERTEX
  8
0
 10
11.76964764
 20
11.95000000
  0
VERTEX
  8
0
 10
0.23035236
 20
11.95000000
  0
VERTEX
  8
0
 10
0.23035236
 20
0.05000000
  0
SEQEND
  0
POLYLINE
  8
Default_Layer
 66
   1
 39
0.000000
 70
    1
  0
VERTEX
  8
0
 10
3.25845168
 20
1.73729908
  0
VERTEX
  8
0
 10
3.25845168
 20
0.32332615
  0
VERTEX
  8
0
 10
2.93705450
 20
0.32332615
  0
VERTEX
  8
0
 10
2.93661782
 20
1.27791072
  0
VERTEX
  8
0
 10
2.80867030
 20
0.32332615
  0
VERTEX
  8
0
 10
2.58072284
 20
0.32332615
  0
VERTEX
  8
0
 10
2.44578842
 20
1.25607667
  0
VERTEX
  8
0
 10
2.44535174
 20
0.32332615
  0
VERTEX
  8
0
 10
2.12395456
 20
0.32332615
  0
VERTEX
  8
0
 10
2.12395456
 20
1.73729908
  0
VERTEX
  8
0
 10
2.59971846
 20
1.73729908
  0
VERTEX
  8
0
 10
2.62054268
 20
1.59821620
  0
VERTEX
  8
0
 10
2.64273153
 20
1.43598922
  0
VERTEX
  8
0
 10
2.69556993
 20
1.07703748
  0
VERTEX
  8
0
 10
2.78006769
 20
1.73729908
  0
VERTEX
  8
0
 10
3.25845168
 20
1.73729908
  0
SEQEND
  0
POLYLINE
  8
Default_Layer
 66
   1
 39
0.000000
 70
    1
  0
VERTEX
  8
0
 10
5.52226647
 20
1.73729908
  0
VERTEX
  8
0
 10
6.13536653
 20
1.73729908
  0
VERTEX
  8
0
 10
6.13536653
 20
1.45432982
  0
VERTEX
  8
0
 10
5.88995184
 20
1.45432982
  0
VERTEX
  8
0
 10
5.88995184
 20
1.18620772
  0
VERTEX
  8
0
 10
6.11964602
 20
1.18620772
  0
VERTEX
  8
0
 10
6.11964602
 20
0.91721225
  0
VERTEX
  8
0
 10
5.88995184
 20
0.91721225
  0
VERTEX
  8
0
 10
5.88995184
 20
0.60629541
  0
VERTEX
  8
0
 10
6.15982067
 20
0.60629541
  0
VERTEX
  8
0
 10
6.15982067
 20
0.32332615
  0
VERTEX
  8
0
 10
5.52226647
 20
0.32332615
  0
VERTEX
  8
0
 10
5.52226647
 20
1.73729908
  0
SEQEND
  0
POLYLINE
  8
Default_Layer
 66
   1
 39
0.000000
 70
    1
  0
VERTEX
  8
0
 10
6.91714153
 20
1.73729908
  0
VERTEX
  8
0
 10
6.91714153
 20
0.32332615
  0
VERTEX
  8
0
 10
6.54945617
 20
0.32332615
  0
VERTEX
  8
0
 10
6.54945617
 20
1.73729908
  0
VERTEX
  8
0
 10
6.91714153
 20
1.73729908
  0
SEQEND
  0
POLYLINE
  8
Default_Layer
 66
   1
 39
0.000000
 70
    1
  0
VERTEX
  8
0
 10
7.91702483
 20
1.73729908
  0
VERTEX
  8
0
 10
7.91702483
 20
0.32332615
  0
VERTEX
  8
0
 10
7.59475428
 20
0.32332615
  0
VERTEX
  8
0
 10
7.40348802
 20
0.96612052
  0
VERTEX
  8
0
 10
7.40348802
 20
0.32332615
  0
VERTEX
  8
0
 10
7.09606463
 20
0.32332615
  0
VERTEX
  8
0
 10
7.09606463
 20
1.73729908
  0
VERTEX
  8
0
 10
7.40348802
 20
1.73729908
  0
VERTEX
  8
0
 10
7.60960143
 20
1.10061825
  0
VERTEX
  8
0
 10
7.60960143
 20
1.73729908
  0
VERTEX
  8
0
 10
7.91702483
 20
1.73729908
  0
SEQEND
  0
POLYLINE
  8
Default_Layer
 66
   1
 39
0.000000
 70
    1
  0
VERTEX
  8
0
 10
9.12173917
 20
1.73729908
  0
VERTEX
  8
0
 10
9.12173917
 20
0.79232150
  0
VERTEX
  8
0
 10
9.12108414
 20
0.71792198
  0
VERTEX
  8
0
 10
9.11911908
 20
0.65542202
  0
VERTEX
  8
0
 10
9.11584397
 20
0.60482161
  0
VERTEX
  8
0
 10
9.11125882
 20
0.56612076
  0
VERTEX
  8
0
 10
9.10799736
 20
0.54989534
  0
VERTEX
  8
0
 10
9.10345315
 20
0.53353345
  0
VERTEX
  8
0
 10
9.09762619
 20
0.51703509
  0
VERTEX
  8
0
 10
9.09051648
 20
0.50040028
  0
VERTEX
  8
0
 10
9.08212402
 20
0.48362900
  0
VERTEX
  8
0
 10
9.07244880
 20
0.46672126
  0
VERTEX
  8
0
 10
9.06149084
 20
0.44967706
  0
VERTEX
  8
0
 10
9.04925013
 20
0.43249639
  0
VERTEX
  8
0
 10
9.03584948
 20
0.41597075
  0
VERTEX
  8
0
 10
9.02141172
 20
0.40045493
  0
VERTEX
  8
0
 10
9.00593684
 20
0.38594893
  0
VERTEX
  8
0
 10
8.98942484
 20
0.37245276
  0
VERTEX
  8
0
 10
8.97187572
 20
0.35996641
  0
VERTEX
  8
0
 10
8.95328949
 20
0.34848989
  0
VERTEX
  8
0
 10
8.93366614
 20
0.33802320
  0
VERTEX
  8
0
 10
8.91300567
 20
0.32856632
  0
VERTEX
  8
0
 10
8.89156736
 20
0.32037856
  0
VERTEX
  8
0
 10
8.86917382
 20
0.31328249
  0
VERTEX
  8
0
 10
8.84582503
 20
0.30727813
  0
VERTEX
  8
0
 10
8.82152101
 20
0.30236547
  0
VERTEX
  8
0
 10
8.79626175
 20
0.29854451
  0
VERTEX
  8
0
 10
8.77004724
 20
0.29581525
  0
VERTEX
  8
0
 10
8.74287750
 20
0.29417770
  0
VERTEX
  8
0
 10
8.71475252
 20
0.29363185
  0
VERTEX
  8
0
 10
8.68355712
 20
0.29428687
  0
VERTEX
  8
0
 10
8.65328967
 20
0.29625193
  0
VERTEX
  8
0
 10
8.62395017
 20
0.29952704
  0
VERTEX
  8
0
 10
8.59553862
 20
0.30411219
  0
VERTEX
  8
0
 10
8.56805501
 20
0.31000738
  0
VERTEX
  8
0
 10
8.54149935
 20
0.31721262
  0
VERTEX
  8
0
 10
8.51587164
 20
0.32572790
  0
VERTEX
  8
0
 10
8.49117187
 20
0.33555322
  0
VERTEX
  8
0
 10
8.46770027
 20
0.34642930
  0
VERTEX
  8
0
 10
8.44575705
 20
0.35809687
  0
VERTEX
  8
0
 10
8.42534221
 20
0.37055593
  0
VERTEX
  8
0
 10
8.40645576
 20
0.38380647
  0
VERTEX
  8
0
 10
8.38909770
 20
0.39784849
  0
VERTEX
  8
0
 10
8.37326801
 20
0.41268199
  0
VERTEX
  8
0
 10
8.35896671
 20
0.42830698
  0
VERTEX
  8
0
 10
8.34619379
 20
0.44472346
  0
VERTEX
  8
0
 10
8.33479915
 20
0.46164485
  0
VERTEX
  8
0
 10
8.32463267
 20
0.47878457
  0
VERTEX
  8
0
 10
8.31569436
 20
0.49614264
  0
VERTEX
  8
0
 10
8.30798421
 20
0.51371905
  0
VERTEX
  8
0
 10
8.30150223
 20
0.53151380
  0
VERTEX
  8
0
 10
8.29624841
 20
0.54952689
  0
VERTEX
  8
0
 10
8.29222276
 20
0.56775832
  0
VERTEX
  8
0
 10
8.28942527
 20
0.58620809
  0
VERTEX
  8
0
 10
8.28560431
 20
0.63402465
  0
VERTEX
  8
0
 10
8.28287505
 20
0.70236522
  0
VERTEX
  8
0
 10
8.28123750
 20
0.79122980
  0
VERTEX
  8
0
 10
8.28069165
 20
0.90061837
  0
VERTEX
  8
0
 10
8.28069165
 20
1.73729908
  0
VERTEX
  8
0
 10
8.64837701
 20
1.73729908
  0
VERTEX
  8
0
 10
8.64837701
 20
0.67703773
  0
VERTEX
  8
0
 10
8.64897745
 20
0.63489801
  0
VERTEX
  8
0
 10
8.65077876
 20
0.60105524
  0
VERTEX
  8
0
 10
8.65378094
 20
0.57550940
  0
VERTEX
  8
0
 10
8.65573236
 20
0.56584784
  0
VERTEX
  8
0
 10
8.65798399
 20
0.55826051
  0
VERTEX
  8
0
 10
8.66091794
 20
0.55232437
  0
VERTEX
  8
0
 10
8.66447962
 20
0.54717973
  0
VERTEX
  8
0
 10
8.66866903
 20
0.54282656
  0
VERTEX
  8
0
 10
8.67348617
 20
0.53926488
  0
VERTEX
  8
0
 10
8.67893103
 20
0.53649469
  0
VERTEX
  8
0
 10
8.68500363
 20
0.53451598
  0
VERTEX
  8
0
 10
8.69170395
 20
0.53332875
  0
VERTEX
  8
0
 10
8.69903200
 20
0.53293301
  0
VERTEX
  8
0
 10
8.70736988
 20
0.53336969
  0
VERTEX
  8
0
 10
8.71491627
 20
0.53467973
  0
VERTEX
  8
0
 10
8.72167118
 20
0.53686314
  0
VERTEX
  8
0
 10
8.72763461
 20
0.53991991
  0
VERTEX
  8
0
 10
8.73280655
 20
0.54385003
  0
VERTEX
  8
0
 10
8.73718700
 20
0.54865353
  0
VERTEX
  8
0
 10
8.74077597
 20
0.55433038
  0
VERTEX
  8
0
 10
8.74357346
 20
0.56088059
  0
VERTEX
  8
0
 10
8.74602979
 20
0.56928670
  0
VERTEX
  8
0
 10
8.74815861
 20
0.58009455
  0
VERTEX
  8
0
 10
8.75143372
 20
0.60891550
  0
VERTEX
  8
0
 10
8.75339878
 20
0.64734342
  0
VERTEX
  8
0
 10
8.75405380
 20
0.69537833
  0
VERTEX
  8
0
 10
8.75405380
 20
1.73729908
  0
VERTEX
  8
0
 10
9.12173917
 20
1.73729908
  0
SEQEND
  0
POLYLINE
  8
Default_Layer
 66
   1
 39
0.000000
 70
    1
  0
VERTEX
  8
0
 10
10.10578586
 20
1.30935175
  0
VERTEX
  8
0
 10
9.76430135
 20
1.30935175
  0
VERTEX
  8
0
 10
9.76430135
 20
1.41415518
  0
VERTEX
  8
0
 10
9.76348257
 20
1.44750668
  0
VERTEX
  8
0
 10
9.76102624
 20
1.47419881
  0
VERTEX
  8
0
 10
9.75693236
 20
1.49423155
  0
VERTEX
  8
0
 10
9.75427133
 20
1.50175065
  0
VERTEX
  8
0
 10
9.75120092
 20
1.50760490
  0
VERTEX
  8
0
 10
9.74765289
 20
1.51231287
  0
VERTEX
  8
0
 10
9.74355900
 20
1.51639310
  0
VERTEX
  8
0
 10
9.73891927
 20
1.51984561
  0
VERTEX
  8
0
 10
9.73373368
 20
1.52267039
  0
VERTEX
  8
0
 10
9.72800225
 20
1.52486744
  0
VERTEX
  8
0
 10
9.72172496
 20
1.52643677
  0
VERTEX
  8
0
 10
9.70753283
 20
1.52769222
  0
VERTEX
  8
0
 10
9.69948152
 20
1.52725554
  0
VERTEX
  8
0
 10
9.69192148
 20
1.52594550
  0
VERTEX
  8
0
 10
9.68485271
 20
1.52376210
  0
VERTEX
  8
0
 10
9.67827520
 20
1.52070533
  0
VERTEX
  8
0
 10
9.67218896
 20
1.51677520
  0
VERTEX
  8
0
 10
9.66659399
 20
1.51197171
  0
VERTEX
  8
0
 10
9.66149028
 20
1.50629486
  0
VERTEX
  8
0
 10
9.65687784
 20
1.49974464
  0
VERTEX
  8
0
 10
9.65298865
 20
1.49253941
  0
VERTEX
  8
0
 10
9.64961801
 20
1.48446081
  0
VERTEX
  8
0
 10
9.64443243
 20
1.46568353
  0
VERTEX
  8
0
 10
9.64132108
 20
1.44341280
  0
VERTEX
  8
0
 10
9.64028396
 20
1.41764862
  0
VERTEX
  8
0
 10
9.64143025
 20
1.38446087
  0
VERTEX
  8
0
 10
9.64486911
 20
1.35563993
  0
VERTEX
  8
0
 10
9.64744826
 20
1.34286701
  0
VERTEX
  8
0
 10
9.65060055
 20
1.33118579
  0
VERTEX
  8
0
 10
9.65432598
 20
1.32059628
  0
VERTEX
  8
0
 10
9.65862456
 20
1.31109847
  0
VERTEX
  8
0
 10
9.66426047
 20
1.30191452
  0
VERTEX
  8
0
 10
9.67199791
 20
1.29226660
  0
VERTEX
  8
0
 10
9.68183688
 20
1.28215471
  0
VERTEX
  8
0
 10
9.69377738
 20
1.27157884
  0
VERTEX
  8
0
 10
9.70781940
 20
1.26053900
  0
VERTEX
  8
0
 10
9.72396295
 20
1.24903519
  0
VERTEX
  8
0
 10
9.76255463
 20
1.22463564
  0
VERTEX
  8
0
 10
9.82127457
 20
1.18919625
  0
VERTEX
  8
0
 10
9.87429037
 20
1.15536713
  0
VERTEX
  8
0
 10
9.92160202
 20
1.12314826
  0
VERTEX
  8
0
 10
9.96320952
 20
1.09253965
  0
VERTEX
  8
0
 10
9.99911289
 20
1.06354131
  0
VERTEX
  8
0
 10
10.02931210
 20
1.03615323
  0
VERTEX
  8
0
 10
10.04227266
 20
1.02306303
  0
VERTEX
  8
0
 10
10.05380718
 20
1.01037540
  0
VERTEX
  8
0
 10
10.06391566
 20
0.99809034
  0
VERTEX
  8
0
 10
10.07259810
 20
0.98620784
  0
VERTEX
  8
0
 10
10.08031849
 20
0.97407971
  0
VERTEX
  8
0
 10
10.08754078
 20
0.96105775
  0
VERTEX
  8
0
 10
10.09426498
 20
0.94714195
  0
VERTEX
  8
0
 10
10.10049110
 20
0.93233233
  0
VERTEX
  8
0
 10
10.10621913
 20
0.91662887
  0
VERTEX
  8
0
 10
10.11144906
 20
0.90003158
  0
VERTEX
  8
0
 10
10.12041467
 20
0.86415551
  0
VERTEX
  8
0
 10
10.12738792
 20
0.82470412
  0
VERTEX
  8
0
 10
10.13236881
 20
0.78167740
  0
VERTEX
  8
0
 10
10.13535734
 20
0.73507535
  0
VERTEX
  8
0
 10
10.13635352
 20
0.68489798
  0
VERTEX
  8
0
 10
10.13579403
 20
0.64836689
  0
VERTEX
  8
0
 10
10.13411553
 20
0.61431942
  0
VERTEX
  8
0
 10
10.13131805
 20
0.58275558
  0
VERTEX
  8
0
 10
10.12740156
 20
0.55367536
  0
VERTEX
  8
0
 10
10.12236609
 20
0.52707876
  0
VERTEX
  8
0
 10
10.11621161
 20
0.50296578
  0
VERTEX
  8
0
 10
10.10893815
 20
0.48133643
  0
VERTEX
  8
0
 10
10.10054568
 20
0.46219070
  0
VERTEX
  8
0
 10
10.09077495
 20
0.44464158
  0
VERTEX
  8
0
 10
10.07892998
 20
0.42780207
  0
VERTEX
  8
0
 10
10.06501077
 20
0.41167217
  0
VERTEX
  8
0
 10
10.04901733
 20
0.39625187
  0
VERTEX
  8
0
 10
10.03094966
 20
0.38154118
  0
VERTEX
  8
0
 10
10.01080775
 20
0.36754010
  0
VERTEX
  8
0
 10
9.98859160
 20
0.35424862
  0
VERTEX
  8
0
 10
9.96430123
 20
0.34166675
  0
VERTEX
  8
0
 10
9.93845517
 20
0.33040857
  0
VERTEX
  8
0
 10
9.91157200
 20
0.32065148
  0
VERTEX
  8
0
 10
9.88365171
 20
0.31239548
  0
VERTEX
  8
0
 10
9.85469431
 20
0.30564057
  0
VERTEX
  8
0
 10
9.82469978
 20
0.30038676
  0
VERTEX
  8
0
 10
9.79366814
 20
0.29663403
  0
VERTEX
  8
0
 10
9.76159939
 20
0.29438239
  0
VERTEX
  8
0
 10
9.72849351
 20
0.29363185
  0
VERTEX
  8
0
 10
9.69226264
 20
0.29450521
  0
VERTEX
  8
0
 10
9.65736910
 20
0.29712530
  0
VERTEX
  8
0
 10
9.62381290
 20
0.30149211
  0
VERTEX
  8
0
 10
9.59159403
 20
0.30760564
  0
VERTEX
  8
0
 10
9.56071250
 20
0.31546590
  0
VERTEX
  8
0
 10
9.53116831
 20
0.32507288
  0
VERTEX
  8
0
 10
9.50296145
 20
0.33642658
  0
VERTEX
  8
0
 10
9.47609192
 20
0.34952701
  0
VERTEX
  8
0
 10
9.45122840
 20
0.36397842
  0
VERTEX
  8
0
 10
9.42860287
 20
0.37938507
  0
VERTEX
  8
0
 10
9.40821532
 20
0.39574696
  0
VERTEX
  8
0
 10
9.39006577
 20
0.41306409
  0
VERTEX
  8
0
 10
9.37415421
 20
0.43133646
  0
VERTEX
  8
0
 10
9.36048064
 20
0.45056407
  0
VERTEX
  8
0
 10
9.34904506
 20
0.47074691
  0
VERTEX
  8
0
 10
9.33984746
 20
0.49188500
  0
VERTEX
  8
0
 10
9.33227378
 20
0.51463335
  0
VERTEX
  8
0
 10
9.32570992
 20
0.53964698
  0
VERTEX
  8
0
 10
9.32015588
 20
0.56692589
  0
VERTEX
  8
0
 10
9.31561167
 20
0.59647009
  0
VERTEX
  8
0
 10
9.31207728
 20
0.62827957
  0
VERTEX
  8
0
 10
9.30955272
 20
0.66235433
  0
VERTEX
  8
0
 10
9.30803798
 20
0.69869437
  0
VERTEX
  8
0
 10
9.30753307
 20
0.73729970
  0
VERTEX
  8
0
 10
9.30753307
 20
0.82987606
  0
VERTEX
  8
0
 10
9.64901758
 20
0.82987606
  0
VERTEX
  8
0
 10
9.64901758
 20
0.65782376
  0
VERTEX
  8
0
 10
9.64989094
 20
0.62163383
  0
VERTEX
  8
0
 10
9.65251103
 20
0.59253996
  0
VERTEX
  8
0
 10
9.65447609
 20
0.58065405
  0
VERTEX
  8
0
 10
9.65687784
 20
0.57054216
  0
VERTEX
  8
0
 10
9.65971626
 20
0.56220428
  0
VERTEX
  8
0
 10
9.66299137
 20
0.55564042
  0
VERTEX
  8
0
 10
9.66704431
 20
0.55031837
  0
VERTEX
  8
0
 10
9.67177957
 20
0.54570593
  0
VERTEX
  8
0
 10
9.67719715
 20
0.54180309
  0
VERTEX
  8
0
 10
9.68329703
 20
0.53860986
  0
VERTEX
  8
0
 10
9.69007923
 20
0.53612624
  0
VERTEX
  8
0
 10
9.69754375
 20
0.53435222
  0
VERTEX
  8
0
 10
9.70569058
 20
0.53328781
  0
VERTEX
  8
0
 10
9.71451972
 20
0.53293301
  0
VERTEX
  8
0
 10
9.72338980
 20
0.53338334
  0
VERTEX
  8
0
 10
9.73165945
 20
0.53473432
  0
VERTEX
  8
0
 10
9.73932866
 20
0.53698596
  0
VERTEX
  8
0
 10
9.74639743
 20
0.54013825
  0
VERTEX
  8
0
 10
9.75286577
 20
0.54419119
  0
VERTEX
  8
0
 10
9.75873367
 20
0.54914479
  0
VERTEX
  8
0
 10
9.76400113
 20
0.55499905
  0
VERTEX
  8
0
 10
9.76866816
 20
0.56175395
  0
VERTEX
  8
0
 10
9.77296674
 20
0.56939587
  0
VERTEX
  8
0
 10
9.77669217
 20
0.57791115
  0
VERTEX
  8
0
 10
9.77984446
 20
0.58729979
  0
VERTEX
  8
0
 10
9.78242361
 20
0.59756179
  0
VERTEX
  8
0
 10
9.78586247
 20
0.62070588
  0
VERTEX
  8
0
 10
9.78700876
 20
0.64734342
  0
VERTEX
  8
0
 10
9.78647655
 20
0.67721513
  0
VERTEX
  8
0
 10
9.78487994
 20
0.70438487
  0
VERTEX
  8
0
 10
9.78221892
 20
0.72885265
  0
VERTEX
  8
0
 10
9.77849348
 20
0.75061847
  0
VERTEX
  8
0
 10
9.77370364
 20
0.76968232
  0
VERTEX
  8
0
 10
9.76784938
 20
0.78604421
  0
VERTEX
  8
0
 10
9.76093072
 20
0.79970413
  0
VERTEX
  8
0
 10
9.75294765
 20
0.81066210
  0
VERTEX
  8
0
 10
9.74261741
 20
0.82107421
  0
VERTEX
  8
0
 10
9.72909395
 20
0.83309658
  0
VERTEX
  8
0
 10
9.69246733
 20
0.86197211
  0
VERTEX
  8
0
 10
9.64306780
 20
0.89728868
  0
VERTEX
  8
0
 10
9.58089535
 20
0.93904630
  0
VERTEX
  8
0
 10
9.51812246
 20
0.98134977
  0
VERTEX
  8
0
 10
9.46692162
 20
1.01743053
  0
VERTEX
  8
0
 10
9.42729282
 20
1.04728859
  0
VERTEX
  8
0
 10
9.39923607
 20
1.07092395
  0
VERTEX
  8
0
 10
9.38833270
 20
1.08167721
  0
VERTEX
  8
0
 10
9.37789329
 20
1.09341302
  0
VERTEX
  8
0
 10
9.36791786
 20
1.10613135
  0
VERTEX
  8
0
 10
9.35840640
 20
1.11983221
  0
VERTEX
  8
0
 10
9.34935892
 20
1.13451561
  0
VERTEX
  8
0
 10
9.34077541
 20
1.15018154
  0
VERTEX
  8
0
 10
9.33265587
 20
1.16683000
  0
VERTEX
  8
0
 10
9.32500031
 20
1.18446099
  0
VERTEX
  8
0
 10
9.31824540
 20
1.20321098
  0
VERTEX
  8
0
 10
9.31239115
 20
1.22321643
  0
VERTEX
  8
0
 10
9.30743755
 20
1.24447733
  0
VERTEX
  8
0
 10
9.30338460
 20
1.26699369
  0
VERTEX
  8
0
 10
9.30023231
 20
1.29076551
  0
VERTEX
  8
0
 10
9.29798068
 20
1.31579279
  0
VERTEX
  8
0
 10
9.29662969
 20
1.34207553
  0
VERTEX
  8
0
 10
9.29617937
 20
1.36961372
  0
VERTEX
  8
0
 10
9.29682074
 20
1.40886042
  0
VERTEX
  8
0
 10
9.29874487
 20
1.44537786
  0
VERTEX
  8
0
 10
9.30195174
 20
1.47916605
  0
VERTEX
  8
0
 10
9.30644137
 20
1.51022499
  0
VERTEX
  8
0
 10
9.31221375
 20
1.53855466
  0
VERTEX
  8
0
 10
9.31926887
 20
1.56415508
  0
VERTEX
  8
0
 10
9.32760675
 20
1.58702625
  0
VERTEX
  8
0
 10
9.33722738
 20
1.60716816
  0
VERTEX
  8
0
 10
9.34849920
 20
1.62542688
  0
VERTEX
  8
0
 10
9.36135400
 20
1.64264848
  0
VERTEX
  8
0
 10
9.37579176
 20
1.65883297
  0
VERTEX
  8
0
 10
9.39181250
 20
1.67398034
  0
VERTEX
  8
0
 10
9.40941620
 20
1.68809060
  0
VERTEX
  8
0
 10
9.42860287
 20
1.70116373
  0
VERTEX
  8
0
 10
9.44937250
 20
1.71319975
  0
VERTEX
  8
0
 10
9.47172511
 20
1.72419865
  0
VERTEX
  8
0
 10
9.49546964
 20
1.73422867
  0
VERTEX
  8
0
 10
9.52041504
 20
1.74292135
  0
VERTEX
  8
0
 10
9.54656131
 20
1.75027669
  0
VERTEX
  8
0
 10
9.57390845
 20
1.75629470
  0
VERTEX
  8
0
 10
9.60245647
 20
1.76097538
  0
VERTEX
  8
0
 10
9.63220536
 20
1.76431872
  0
VERTEX
  8
0
 10
9.66315512
 20
1.76632472
  0
VERTEX
  8
0
 10
9.69530576
 20
1.76699339
  0
VERTEX
  8
0
 10
9.73044493
 20
1.76627013
  0
VERTEX
  8
0
 10
9.76424676
 20
1.76410038
  0
VERTEX
  8
0
 10
9.79671126
 20
1.76048411
  0
VERTEX
  8
0
 10
9.82783843
 20
1.75542134
  0
VERTEX
  8
0
 10
9.85762826
 20
1.74891207
  0
VERTEX
  8
0
 10
9.88608075
 20
1.74095628
  0
VERTEX
  8
0
 10
9.91319591
 20
1.73155400
  0
VERTEX
  8
0
 10
9.93897373
 20
1.72070521
  0
VERTEX
  8
0
 10
9.96322317
 20
1.70875106
  0
VERTEX
  8
0
 10
9.98531650
 20
1.69603273
  0
VERTEX
  8
0
 10
10.00525371
 20
1.68255021
  0
VERTEX
  8
0
 10
10.02303482
 20
1.66830349
  0
VERTEX
  8
0
 10
10.03865981
 20
1.65329258
  0
VERTEX
  8
0
 10
10.05212868
 20
1.63751748
  0
VERTEX
  8
0
 10
10.06344145
 20
1.62097819
  0
VERTEX
  8
0
 10
10.07259810
 20
1.60367471
  0
VERTEX
  8
0
 10
10.08037648
 20
1.58466544
  0
VERTEX
  8
0
 10
10.08711775
 20
1.56257211
  0
VERTEX
  8
0
 10
10.09282189
 20
1.53739473
  0
VERTEX
  8
0
 10
10.09748892
 20
1.50913328
  0
VERTEX
  8
0
 10
10.10111883
 20
1.47778778
  0
VERTEX
  8
0
 10
10.10371162
 20
1.44335821
  0
VERTEX
  8
0
 10
10.10526730
 20
1.40584459
  0
VERTEX
  8
0
 10
10.10578586
 20
1.36524691
  0
VERTEX
  8
0
 10
10.10578586
 20
1.30935175
  0
SEQEND
  0
POLYLINE
  8
Default_Layer
 66
   1
 39
0.000000
 70
    1
  0
VERTEX
  8
0
 10
10.75860317
 20
0.57747447
  0
VERTEX
  8
0
 10
10.75860317
 20
0.82812934
  0
VERTEX
  8
0
 10
10.78633236
 20
0.82812934
  0
VERTEX
  8
0
 10
10.77204300
 20
0.95531266
  0
VERTEX
  8
0
 10
10.75790716
 20
1.09668812
  0
VERTEX
  8
0
 10
10.74387367
 20
1.25225571
  0
VERTEX
  8
0
 10
10.72989135
 20
1.42201543
  0
VERTEX
  8
0
 10
10.70450927
 20
1.23227756
  0
VERTEX
  8
0
 10
10.68425819
 20
1.07005058
  0
VERTEX
  8
0
 10
10.66913811
 20
0.93533451
  0
VERTEX
  8
0
 10
10.65914904
 20
0.82812934
  0
VERTEX
  8
0
 10
10.68598152
 20
0.82812934
  0
VERTEX
  8
0
 10
10.68598152
 20
0.57747447
  0
VERTEX
  8
0
 10
10.66444379
 20
0.57747447
  0
VERTEX
  8
0
 10
10.64233682
 20
0.32332615
  0
VERTEX
  8
0
 10
10.26220605
 20
0.32332615
  0
VERTEX
  8
0
 10
10.44976052
 20
1.73729908
  0
VERTEX
  8
0
 10
10.98120124
 20
1.73729908
  0
VERTEX
  8
0
 10
11.19146312
 20
0.32332615
  0
VERTEX
  8
0
 10
10.81569916
 20
0.32332615
  0
VERTEX
  8
0
 10
10.79596664
 20
0.57747447
  0
VERTEX
  8
0
 10
10.75860317
 20
0.57747447
  0
SEQEND
  0
POLYLINE
  8
Default_Layer
 66
   1
 39
0.000000
 70
    1
  0
VERTEX
  8
0
 10
3.84344022
 20
0.57747447
  0
VERTEX
  8
0
 10
3.81885634
 20
0.57747447
  0
VERTEX
  8
0
 10
3.79674936
 20
0.32332615
  0
VERTEX
  8
0
 10
3.41661859
 20
0.32332615
  0
VERTEX
  8
0
 10
3.60417306
 20
1.73729908
  0
VERTEX
  8
0
 10
4.13561378
 20
1.73729908
  0
VERTEX
  8
0
 10
4.34587566
 20
0.32332615
  0
VERTEX
  8
0
 10
3.97011170
 20
0.32332615
  0
VERTEX
  8
0
 10
3.95037918
 20
0.57747447
  0
VERTEX
  8
0
 10
3.91606187
 20
0.57747447
  0
VERTEX
  8
0
 10
3.91606187
 20
0.82812934
  0
VERTEX
  8
0
 10
3.94074491
 20
0.82812934
  0
VERTEX
  8
0
 10
3.92645555
 20
0.95531266
  0
VERTEX
  8
0
 10
3.91231971
 20
1.09668812
  0
VERTEX
  8
0
 10
3.89828622
 20
1.25225571
  0
VERTEX
  8
0
 10
3.88430390
 20
1.42201543
  0
VERTEX
  8
0
 10
3.85892182
 20
1.23227756
  0
VERTEX
  8
0
 10
3.83867074
 20
1.07005058
  0
VERTEX
  8
0
 10
3.82355066
 20
0.93533451
  0
VERTEX
  8
0
 10
3.81356158
 20
0.82812934
  0
VERTEX
  8
0
 10
3.84344022
 20
0.82812934
  0
VERTEX
  8
0
 10
3.84344022
 20
0.57747447
  0
SEQEND
  0
POLYLINE
  8
Default_Layer
 66
   1
 39
0.000000
 70
    1
  0
VERTEX
  8
0
 10
4.92824895
 20
1.73352057
  0
VERTEX
  8
0
 10
4.92824895
 20
1.47727421
  0
VERTEX
  8
0
 10
4.93532634
 20
1.47055364
  0
VERTEX
  8
0
 10
4.94109358
 20
1.46259704
  0
VERTEX
  8
0
 10
4.94555124
 20
1.45340451
  0
VERTEX
  8
0
 10
4.94869988
 20
1.44297612
  0
VERTEX
  8
0
 10
4.95137455
 20
1.42512678
  0
VERTEX
  8
0
 10
4.95328503
 20
1.39865300
  0
VERTEX
  8
0
 10
4.95443132
 20
1.36355477
  0
VERTEX
  8
0
 10
4.95481341
 20
1.31983209
  0
VERTEX
  8
0
 10
4.95481341
 20
0.77048745
  0
VERTEX
  8
0
 10
4.95366713
 20
0.70656828
  0
VERTEX
  8
0
 10
4.95223427
 20
0.67972604
  0
VERTEX
  8
0
 10
4.95022826
 20
0.65629538
  0
VERTEX
  8
0
 10
4.94764912
 20
0.63627629
  0
VERTEX
  8
0
 10
4.94449683
 20
0.61966877
  0
VERTEX
  8
0
 10
4.94077139
 20
0.60647281
  0
VERTEX
  8
0
 10
4.93647281
 20
0.59668843
  0
VERTEX
  8
0
 10
4.93283209
 20
0.59148057
  0
VERTEX
  8
0
 10
4.92824895
 20
0.58676725
  0
VERTEX
  8
0
 10
4.92824895
 20
0.32332615
  0
VERTEX
  8
0
 10
4.93472609
 20
0.32332615
  0
VERTEX
  8
0
 10
4.99651645
 20
0.32419951
  0
VERTEX
  8
0
 10
5.05000986
 20
0.32681960
  0
VERTEX
  8
0
 10
5.09520634
 20
0.33118641
  0
VERTEX
  8
0
 10
5.11469323
 20
0.33402484
  0
VERTEX
  8
0
 10
5.13210588
 20
0.33729994
  0
VERTEX
  8
0
 10
5.14815391
 20
0.34133924
  0
VERTEX
  8
0
 10
5.16354691
 20
0.34603356
  0
VERTEX
  8
0
 10
5.17828489
 20
0.35138290
  0
VERTEX
  8
0
 10
5.19236785
 20
0.35738727
  0
VERTEX
  8
0
 10
5.20579579
 20
0.36404665
  0
VERTEX
  8
0
 10
5.21856871
 20
0.37136106
  0
VERTEX
  8
0
 10
5.23068661
 20
0.37933049
  0
VERTEX
  8
0
 10
5.24214948
 20
0.38795493
  0
VERTEX
  8
0
 10
5.25286181
 20
0.39754827
  0
VERTEX
  8
0
 10
5.26272807
 20
0.40798767
  0
VERTEX
  8
0
 10
5.27174826
 20
0.41927315
  0
VERTEX
  8
0
 10
5.27992238
 20
0.43140469
  0
VERTEX
  8
0
 10
5.28725044
 20
0.44438230
  0
VERTEX
  8
0
 10
5.29373242
 20
0.45820598
  0
VERTEX
  8
0
 10
5.29936833
 20
0.47287573
  0
VERTEX
  8
0
 10
5.30415818
 20
0.48839155
  0
VERTEX
  8
0
 10
5.30845676
 20
0.50651381
  0
VERTEX
  8
0
 10
5.31218219
 20
0.52856620
  0
VERTEX
  8
0
 10
5.31533448
 20
0.55454872
  0
VERTEX
  8
0
 10
5.31791363
 20
0.58446136
  0
VERTEX
  8
0
 10
5.31991963
 20
0.61830414
  0
VERTEX
  8
0
 10
5.32135249
 20
0.65607704
  0
VERTEX
  8
0
 10
5.32249878
 20
0.74341323
  0
VERTEX
  8
0
 10
5.32249878
 20
1.23860943
  0
VERTEX
  8
0
 10
5.32173459
 20
1.33074911
  0
VERTEX
  8
0
 10
5.31944201
 20
1.40629492
  0
VERTEX
  8
0
 10
5.31562105
 20
1.46524685
  0
VERTEX
  8
0
 10
5.31313743
 20
1.48850011
  0
VERTEX
  8
0
 10
5.31027171
 20
1.50760490
  0
VERTEX
  8
0
 10
5.30664180
 20
1.52464910
  0
VERTEX
  8
0
 10
5.30186560
 20
1.54128392
  0
VERTEX
  8
0
 10
5.29594312
 20
1.55750935
  0
VERTEX
  8
0
 10
5.28887434
 20
1.57332538
  0
VERTEX
  8
0
 10
5.28065928
 20
1.58873203
  0
VERTEX
  8
0
 10
5.27129794
 20
1.60372929
  0
VERTEX
  8
0
 10
5.26079030
 20
1.61831717
  0
VERTEX
  8
0
 10
5.24913638
 20
1.63249565
  0
VERTEX
  8
0
 10
5.23619970
 20
1.64597818
  0
VERTEX
  8
0
 10
5.22184382
 20
1.65847817
  0
VERTEX
  8
0
 10
5.20606872
 20
1.66999563
  0
VERTEX
  8
0
 10
5.18887441
 20
1.68053056
  0
VERTEX
  8
0
 10
5.17026088
 20
1.69008295
  0
VERTEX
  8
0
 10
5.15022814
 20
1.69865282
  0
VERTEX
  8
0
 10
5.12877619
 20
1.70624015
  0
VERTEX
  8
0
 10
5.10590502
 20
1.71284495
  0
VERTEX
  8
0
 10
5.07349072
 20
1.71971534
  0
VERTEX
  8
0
 10
5.03307859
 20
1.72545291
  0
VERTEX
  8
0
 10
4.98466565
 20
1.73005540
  0
VERTEX
  8
0
 10
4.92824895
 20
1.73352057
  0
SEQEND
  0
POLYLINE
  8
Default_Layer
 66
   1
 39
0.000000
 70
    1
  0
VERTEX
  8
0
 10
4.85562730
 20
0.32332615
  0
VERTEX
  8
0
 10
4.47097092
 20
0.32332615
  0
VERTEX
  8
0
 10
4.47097092
 20
1.73729908
  0
VERTEX
  8
0
 10
4.74607992
 20
1.73729908
  0
VERTEX
  8
0
 10
4.85562730
 20
1.73607105
  0
VERTEX
  8
0
 10
4.85562730
 20
1.49505712
  0
VERTEX
  8
0
 10
4.83865628
 20
1.49537783
  0
VERTEX
  8
0
 10
4.83865628
 20
0.56524740
  0
VERTEX
  8
0
 10
4.85562730
 20
0.56566102
  0
VERTEX
  8
0
 10
4.85562730
 20
0.32332615
  0
SEQEND
  0
ENDSEC
  0
EOF
